SplineFontDB: 3.2
FontName: ScacchiPainter
FullName: ScacchiPainter
FamilyName: ScacchiPainter
Weight: Bold
Copyright: 
Version: 1.0
ItalicAngle: 0
UnderlinePosition: 0
UnderlineWidth: 0
Ascent: 2048
Descent: 0
InvalidEm: 0
sfntRevision: 0x00010000
LayerCount: 2
Layer: 0 1 "Sfondo" 1
Layer: 1 1 "Fore" 0
XUID: [1021 279 526073520 11930]
StyleMap: 0x0020
FSType: 8
OS2Version: 1
OS2_WeightWidthSlopeOnly: 0
OS2_UseTypoMetrics: 0
CreationTime: 1591702101
ModificationTime: 1591705387
PfmFamily: 17
TTFWeight: 700
TTFWidth: 5
LineGap: 184
VLineGap: 0
Panose: 2 0 8 3 0 0 0 0 0 0
OS2TypoAscent: 2048
OS2TypoAOffset: 0
OS2TypoDescent: 0
OS2TypoDOffset: 0
OS2TypoLinegap: 184
OS2WinAscent: 2049
OS2WinAOffset: 0
OS2WinDescent: 1
OS2WinDOffset: 0
HheadAscent: 2049
HheadAOffset: 0
HheadDescent: -1
HheadDOffset: 0
OS2SubXSize: 1331
OS2SubYSize: 1433
OS2SubXOff: 0
OS2SubYOff: 286
OS2SupXSize: 1331
OS2SupYSize: 1433
OS2SupXOff: 0
OS2SupYOff: 983
OS2StrikeYSize: 102
OS2StrikeYPos: 530
OS2Vendor: 'PfEd'
OS2CodePages: 00000001.00000000
OS2UnicodeRanges: 00000000.00000000.00000000.00000000
Lookup: 4 0 1 "'liga' Ligature standard lookup 0" { "'liga' Ligature standard lookup 0-1"  } ['liga' ('DFLT' <'dflt' > 'cyrl' <'dflt' > 'grek' <'dflt' > 'latn' <'dflt' > ) ]
MarkAttachClasses: 1
DEI: 91125
ShortTable: cvt  2
  68
  1297
EndShort
ShortTable: maxp 16
  1
  0
  35
  448
  14
  0
  0
  2
  0
  1
  1
  0
  64
  46
  0
  0
EndShort
LangName: 1033 "" "" "" "FontForge 2.0 : ScacchiPainter : 9-6-2020" "" "Version 1.0"
GaspTable: 1 65535 2 0
Encoding: UnicodeBmp
UnicodeInterp: none
NameList: AGL For New Fonts
DisplaySize: -48
AntiAlias: 1
FitToEm: 0
WinInfo: 65056 38 14
BeginPrivate: 0
EndPrivate
TeXData: 1 0 0 272384 136192 90794 580096 -1048576 90794 783286 444596 497025 792723 393216 433062 380633 303038 157286 324010 404750 52429 2506097 1059062 262144
BeginChars: 65575 742

StartChar: .notdef
Encoding: 0 -1 0
AltUni2: 000000.ffffffff.0
Width: 2048
Flags: W
LayerCount: 2
Fore
SplineSet
68 0 m 1,0,-1
 68 1365 l 1,1,-1
 612 1365 l 1,2,-1
 612 0 l 1,3,-1
 68 0 l 1,0,-1
136 68 m 1,4,-1
 544 68 l 1,5,-1
 544 1297 l 1,6,-1
 136 1297 l 1,7,-1
 136 68 l 1,4,-1
EndSplineSet
EndChar

StartChar: w_q
Encoding: 65538 -1 3
Width: 2048
GlyphClass: 3
Flags: W
LayerCount: 2
Fore
SplineSet
909 1875 m 0,0,1
 909 1839 909 1839 929.5 1810 c 128,-1,2
 950 1781 950 1781 982 1768 c 1,3,-1
 983 1764 l 1,4,-1
 866 1227 l 1,5,-1
 624 1721 l 1,6,7
 670 1756 670 1756 670 1812 c 0,8,9
 670 1859 670 1859 636 1893 c 128,-1,10
 602 1927 602 1927 555 1927 c 128,-1,11
 508 1927 508 1927 474 1893 c 128,-1,12
 440 1859 440 1859 440 1812 c 0,13,14
 440 1769 440 1769 468 1737 c 128,-1,15
 496 1705 496 1705 537 1698 c 1,16,-1
 571 1152 l 1,17,-1
 203 1551 l 1,18,19
 230 1584 230 1584 230 1625 c 0,20,21
 230 1672 230 1672 196.5 1706 c 128,-1,22
 163 1740 163 1740 115.5 1740 c 128,-1,23
 68 1740 68 1740 34 1706 c 128,-1,24
 0 1672 0 1672 0 1624.5 c 128,-1,25
 0 1577 0 1577 34 1543.5 c 128,-1,26
 68 1510 68 1510 115 1510 c 0,27,28
 117 1510 117 1510 121 1510.5 c 128,-1,29
 125 1511 125 1511 126 1511 c 2,30,-1
 429 756 l 1,31,32
 421 746 421 746 415 736 c 0,33,34
 403 715 403 715 399 692 c 0,35,36
 398 686 398 686 398 678 c 2,37,-1
 397 675 l 1,38,-1
 397 674 l 1,39,-1
 397 671 l 1,40,-1
 397 671 l 1,41,-1
 397 670 l 1,42,-1
 397 318 l 2,43,44
 397 290 397 290 400 279 c 0,45,46
 404 259 404 259 413 244 c 0,47,48
 421 231 421 231 432 218 c 0,49,50
 437 212 437 212 443 206 c 256,51,52
 449 200 449 200 456 195 c 0,53,54
 506 153 506 153 594 122 c 0,55,56
 702 84 702 84 844 68 c 0,57,58
 937 59 937 59 1023 59 c 0,59,60
 1139 58 1139 58 1253 75 c 0,61,62
 1309 83 1309 83 1355 94 c 0,63,64
 1445 115 1445 115 1511 146 c 0,65,66
 1522 151 1522 151 1522 152 c 0,67,68
 1596 189 1596 189 1627 235 c 0,69,70
 1631 241 1631 241 1635 248 c 0,71,72
 1642 261 1642 261 1648 285 c 0,73,74
 1651 293 1651 293 1651 368 c 0,75,76
 1651 393 1651 393 1651 466.5 c 128,-1,77
 1651 540 1651 540 1651 600 c 128,-1,78
 1651 660 1651 660 1651 662 c 0,79,80
 1651 665 1651 665 1651 670 c 128,-1,81
 1651 675 1651 675 1651 676 c 0,82,83
 1651 678 1651 678 1648 701 c 0,84,85
 1644 719 1644 719 1637 732 c 0,86,87
 1633 739 1633 739 1629 745 c 256,88,89
 1625 751 1625 751 1619 758 c 1,90,-1
 1922 1511 l 2,91,92
 1923 1511 1923 1511 1927 1510.5 c 128,-1,93
 1931 1510 1931 1510 1933 1510 c 0,94,95
 1980 1510 1980 1510 2014 1543.5 c 128,-1,96
 2048 1577 2048 1577 2048 1624.5 c 128,-1,97
 2048 1672 2048 1672 2014 1706 c 128,-1,98
 1980 1740 1980 1740 1932.5 1740 c 128,-1,99
 1885 1740 1885 1740 1851.5 1706 c 128,-1,100
 1818 1672 1818 1672 1818 1625 c 0,101,102
 1818 1584 1818 1584 1845 1551 c 1,103,-1
 1477 1152 l 1,104,-1
 1511 1698 l 1,105,106
 1552 1705 1552 1705 1580 1737 c 128,-1,107
 1608 1769 1608 1769 1608 1812 c 0,108,109
 1608 1859 1608 1859 1574 1893 c 128,-1,110
 1540 1927 1540 1927 1493 1927 c 128,-1,111
 1446 1927 1446 1927 1412 1893 c 128,-1,112
 1378 1859 1378 1859 1378 1812 c 0,113,114
 1378 1756 1378 1756 1424 1721 c 1,115,-1
 1182 1227 l 1,116,-1
 1065 1764 l 1,117,-1
 1066 1768 l 1,118,119
 1098 1781 1098 1781 1118.5 1810 c 128,-1,120
 1139 1839 1139 1839 1139 1875 c 0,121,122
 1139 1923 1139 1923 1105 1956.5 c 128,-1,123
 1071 1990 1071 1990 1024 1990 c 128,-1,124
 977 1990 977 1990 943 1956.5 c 128,-1,125
 909 1923 909 1923 909 1875 c 0,0,1
1024 1920 m 128,-1,127
 1043 1920 1043 1920 1055.5 1907 c 128,-1,128
 1068 1894 1068 1894 1068 1875.5 c 128,-1,129
 1068 1857 1068 1857 1055.5 1844 c 128,-1,130
 1043 1831 1043 1831 1024 1831 c 128,-1,131
 1005 1831 1005 1831 992.5 1844 c 128,-1,132
 980 1857 980 1857 980 1875.5 c 128,-1,133
 980 1894 980 1894 992.5 1907 c 128,-1,126
 1005 1920 1005 1920 1024 1920 c 128,-1,127
555 1856 m 128,-1,135
 574 1856 574 1856 586.5 1843 c 128,-1,136
 599 1830 599 1830 599 1811.5 c 128,-1,137
 599 1793 599 1793 586.5 1780 c 128,-1,138
 574 1767 574 1767 555 1767 c 128,-1,139
 536 1767 536 1767 523.5 1780 c 128,-1,140
 511 1793 511 1793 511 1811.5 c 128,-1,141
 511 1830 511 1830 523.5 1843 c 128,-1,134
 536 1856 536 1856 555 1856 c 128,-1,135
1493 1856 m 128,-1,143
 1512 1856 1512 1856 1524.5 1843 c 128,-1,144
 1537 1830 1537 1830 1537 1811.5 c 128,-1,145
 1537 1793 1537 1793 1524.5 1780 c 128,-1,146
 1512 1767 1512 1767 1493 1767 c 128,-1,147
 1474 1767 1474 1767 1461.5 1780 c 128,-1,148
 1449 1793 1449 1793 1449 1811.5 c 128,-1,149
 1449 1830 1449 1830 1461.5 1843 c 128,-1,142
 1474 1856 1474 1856 1493 1856 c 128,-1,143
115 1669 m 128,-1,151
 134 1669 134 1669 146.5 1656.5 c 128,-1,152
 159 1644 159 1644 159 1625 c 128,-1,153
 159 1606 159 1606 146.5 1593 c 128,-1,154
 134 1580 134 1580 115 1580 c 128,-1,155
 96 1580 96 1580 83.5 1593 c 128,-1,156
 71 1606 71 1606 71 1625 c 128,-1,157
 71 1644 71 1644 83.5 1656.5 c 128,-1,150
 96 1669 96 1669 115 1669 c 128,-1,151
1932.5 1669 m 128,-1,159
 1951 1669 1951 1669 1964 1656.5 c 128,-1,160
 1977 1644 1977 1644 1977 1625 c 128,-1,161
 1977 1606 1977 1606 1964 1593 c 128,-1,162
 1951 1580 1951 1580 1932.5 1580 c 128,-1,163
 1914 1580 1914 1580 1901 1593 c 128,-1,164
 1888 1606 1888 1606 1888 1625 c 128,-1,165
 1888 1644 1888 1644 1901 1656.5 c 128,-1,158
 1914 1669 1914 1669 1932.5 1669 c 128,-1,159
1024 1577 m 1,166,-1
 1153 986 l 1,167,-1
 1421 1533 l 1,168,-1
 1384 933 l 1,169,-1
 1774 1357 l 1,170,-1
 1554 811 l 1,171,172
 1511 838 1511 838 1452 859 c 0,173,174
 1357 890 1357 890 1242.5 905.5 c 128,-1,175
 1128 921 1128 921 1025 922 c 0,176,177
 770 919 770 919 596 858 c 0,178,179
 537 837 537 837 493 811 c 1,180,-1
 273 1357 l 1,181,-1
 664 933 l 1,182,-1
 627 1533 l 1,183,-1
 895 986 l 1,184,-1
 1024 1577 l 1,166,-1
1425 783 m 0,185,186
 1500 757 1500 757 1539 724 c 0,187,188
 1570 698 1570 698 1570 675 c 2,189,-1
 1570 674 l 2,190,191
 1571 670 1571 670 1571 662 c 128,-1,192
 1571 654 1571 654 1571 652 c 2,193,-1
 1503 614 l 2,194,195
 1493 609 1493 609 1490.5 602 c 128,-1,196
 1488 595 1488 595 1491 588.5 c 128,-1,197
 1494 582 1494 582 1503 572 c 2,198,-1
 1571 489 l 1,199,-1
 1571 432 l 1,200,201
 1523 465 1523 465 1452 491 c 0,202,203
 1273 554 1273 554 1023 554 c 0,204,205
 775 554 775 554 597 492 c 0,206,207
 524 466 524 466 475 432 c 1,208,-1
 475 489 l 1,209,-1
 543 572 l 2,210,211
 551 582 551 582 554.5 588.5 c 128,-1,212
 558 595 558 595 555.5 602 c 128,-1,213
 553 609 553 609 543 614 c 2,214,-1
 475 652 l 1,215,-1
 475 657 l 2,216,217
 475 661 475 661 475 667 c 128,-1,218
 475 673 475 673 475 674 c 0,219,220
 475 698 475 698 507 724 c 0,221,222
 546 757 546 757 621 783 c 0,223,224
 786 842 786 842 1022.5 842 c 128,-1,225
 1259 842 1259 842 1425 783 c 0,185,186
985 789 m 2,226,-1
 867 725 l 2,227,228
 851 716 851 716 851 703.5 c 128,-1,229
 851 691 851 691 867 683 c 2,230,-1
 985 618 l 2,231,232
 1000 610 1000 610 1023 610 c 128,-1,233
 1046 610 1046 610 1061 618 c 2,234,-1
 1179 683 l 2,235,236
 1194 691 1194 691 1194 703.5 c 128,-1,237
 1194 716 1194 716 1179 725 c 2,238,-1
 1061 789 l 2,239,240
 1019 808 1019 808 985 789 c 2,226,-1
1023 474 m 1,241,242
 1259 474 1259 474 1425 416 c 0,243,244
 1500 389 1500 389 1539 356 c 0,245,246
 1570 330 1570 330 1569 306 c 0,247,248
 1567 284 1567 284 1549 265 c 0,249,250
 1502 227 1502 227 1446 205 c 0,251,252
 1264 139 1264 139 1023 138 c 0,253,254
 789 139 789 139 621 197 c 0,255,256
 546 223 546 223 507 256 c 0,257,258
 475 282 475 282 476 307 c 256,259,260
 477 332 477 332 509 358 c 0,261,262
 549 390 549 390 623 416 c 0,263,264
 789 474 789 474 1023 474 c 1,265,-1
 1023 474 l 1,241,242
EndSplineSet
Ligature2: "'liga' Ligature standard lookup 0-1" w underscore q
EndChar

StartChar: w_k
Encoding: 65539 -1 4
Width: 2048
GlyphClass: 3
Flags: W
LayerCount: 2
Fore
SplineSet
777 2048 m 1,0,-1
 777 2004 l 1,1,-1
 777 1565 l 1,2,-1
 884 1565 l 1,3,4
 877 1560 877 1560 874 1558 c 0,5,6
 871 1555 871 1555 866 1552 c 0,7,8
 809 1508 809 1508 758 1436 c 1,9,10
 742 1449 742 1449 726 1463 c 0,11,12
 662 1514 662 1514 581.5 1541.5 c 128,-1,13
 501 1569 501 1569 416 1569 c 0,14,15
 330 1570 330 1570 251.5 1542 c 128,-1,16
 173 1514 173 1514 117 1457 c 0,17,18
 50 1388 50 1388 30.5 1301 c 128,-1,19
 11 1214 11 1214 27 1124 c 0,20,21
 40 1050 40 1050 70 986.5 c 128,-1,22
 100 923 100 923 134 885 c 0,23,24
 199 814 199 814 357 687 c 1,25,26
 353 671 353 671 353 659 c 2,27,-1
 353 658 l 1,28,-1
 353 657 l 2,29,30
 354 655 354 655 354 652.5 c 128,-1,31
 354 650 354 650 354 650 c 2,32,33
 354 649 354 649 353.5 648 c 128,-1,34
 353 647 353 647 353 646 c 2,35,-1
 353 270 l 1,36,-1
 353 269 l 1,37,-1
 353 269 l 1,38,-1
 353 268 l 1,39,-1
 353 265 l 1,40,-1
 353 264 l 1,41,-1
 354 261 l 1,42,-1
 354 260 l 2,43,44
 355 252 355 252 356 246 c 0,45,46
 359 222 359 222 373 199 c 0,47,48
 381 184 381 184 393 171 c 0,49,50
 398 165 398 165 405 158 c 0,51,52
 411 152 411 152 418 146 c 0,53,54
 472 101 472 101 566 68 c 0,55,56
 681 27 681 27 833 11 c 0,57,58
 894 4 894 4 959 2 c 0,59,60
 992 0 992 0 1024 0 c 256,61,62
 1056 0 1056 0 1088 2 c 2,63,64
 1088 2 1088 2 1089 2 c 0,65,66
 1120 3 1120 3 1151 5 c 0,67,68
 1164 6 1164 6 1193 9 c 0,69,70
 1252 14 1252 14 1345 32 c 0,71,72
 1496 63 1496 63 1583 114 c 0,73,74
 1643 150 1643 150 1670 189 c 0,75,76
 1690 221 1690 221 1693 243 c 0,77,78
 1695 260 1695 260 1695 266 c 0,79,80
 1695 289 1695 289 1696 646 c 0,81,82
 1696 647 1696 647 1695.5 648 c 128,-1,83
 1695 649 1695 649 1695 650 c 128,-1,84
 1695 651 1695 651 1695 652.5 c 128,-1,85
 1695 654 1695 654 1695 655 c 2,86,-1
 1695 657 l 1,87,-1
 1695 659 l 2,88,89
 1695 671 1695 671 1692 687 c 1,90,91
 1850 814 1850 814 1915 885 c 0,92,93
 1949 923 1949 923 1978.5 986 c 128,-1,94
 2008 1049 2008 1049 2022 1124 c 0,95,96
 2038 1214 2038 1214 2018.5 1301 c 128,-1,97
 1999 1388 1999 1388 1931 1457 c 0,98,99
 1875 1514 1875 1514 1797 1542 c 128,-1,100
 1719 1570 1719 1570 1633 1569 c 0,101,102
 1548 1569 1548 1569 1467.5 1541.5 c 128,-1,103
 1387 1514 1387 1514 1323 1463 c 0,104,105
 1306 1449 1306 1449 1291 1436 c 1,106,107
 1240 1508 1240 1508 1183 1552 c 0,108,109
 1178 1555 1178 1555 1174 1558 c 0,110,111
 1173 1559 1173 1559 1165 1565 c 1,112,-1
 1271 1565 l 1,113,-1
 1271 2048 l 1,114,-1
 777 2048 l 1,0,-1
928 1960 m 1,115,-1
 1120 1960 l 1,116,-1
 1024 1866 l 1,117,-1
 928 1960 l 1,115,-1
1182 1901 m 1,118,-1
 1182 1712 l 1,119,-1
 1085 1807 l 1,120,-1
 1182 1901 l 1,118,-1
866 1901 m 1,121,-1
 963 1807 l 1,122,-1
 866 1712 l 1,123,-1
 866 1901 l 1,121,-1
1024 1747 m 1,124,-1
 1120 1653 l 1,125,-1
 928 1653 l 1,126,-1
 1024 1747 l 1,124,-1
1024 1526 m 0,127,128
 1054 1525 1054 1525 1086 1511 c 0,129,130
 1157 1479 1157 1479 1227 1375 c 1,131,132
 1079 1225 1079 1225 1029 1062 c 0,133,134
 1028 1059 1028 1059 1026.5 1053.5 c 128,-1,135
 1025 1048 1025 1048 1024 1047 c 1,136,137
 1024 1048 1024 1048 1022.5 1053.5 c 128,-1,138
 1021 1059 1021 1059 1020 1062 c 0,139,140
 970 1225 970 1225 822 1375 c 1,141,142
 848 1410 848 1410 864.5 1430 c 128,-1,143
 881 1450 881 1450 908 1474 c 128,-1,144
 935 1498 935 1498 963 1511 c 0,145,146
 994 1526 994 1526 1024 1526 c 0,127,128
416 1484 m 0,147,148
 485 1483 485 1483 553 1460 c 128,-1,149
 621 1437 621 1437 672 1396 c 0,150,151
 880 1229 880 1229 939 1038 c 0,152,153
 958 975 958 975 958 922 c 1,154,155
 731 914 731 914 566 856 c 0,156,157
 472 823 472 823 418 778 c 0,158,159
 410 771 410 771 401 762 c 1,160,161
 252 883 252 883 197 943 c 0,162,163
 176 967 176 967 149 1023 c 128,-1,164
 122 1079 122 1079 111 1139 c 0,165,166
 82 1299 82 1299 179 1397 c 0,167,168
 221 1440 221 1440 283 1462.5 c 128,-1,169
 345 1485 345 1485 416 1484 c 0,147,148
1633 1484 m 0,170,171
 1704 1485 1704 1485 1766 1462.5 c 128,-1,172
 1828 1440 1828 1440 1870 1397 c 0,173,174
 1967 1298 1967 1298 1938 1139 c 0,175,176
 1927 1079 1927 1079 1900 1023 c 128,-1,177
 1873 967 1873 967 1852 943 c 0,178,179
 1797 883 1797 883 1648 762 c 1,180,181
 1639 771 1639 771 1631 778 c 0,182,183
 1577 823 1577 823 1483 856 c 0,184,185
 1318 914 1318 914 1091 922 c 1,186,187
 1091 975 1091 975 1110 1038 c 0,188,189
 1169 1229 1169 1229 1377 1396 c 0,190,191
 1428 1437 1428 1437 1496 1460 c 128,-1,192
 1564 1483 1564 1483 1633 1484 c 0,170,171
1024.5 838 m 128,-1,194
 1277 838 1277 838 1455 775 c 0,195,196
 1534 747 1534 747 1576 712 c 0,197,198
 1609 685 1609 685 1610 659 c 1,199,-1
 1608 647 l 1,200,-1
 1610 640 l 1,201,-1
 1610 635 l 1,202,-1
 1537 595 l 2,203,204
 1527 589 1527 589 1524.5 582 c 128,-1,205
 1522 575 1522 575 1525.5 568 c 128,-1,206
 1529 561 1529 561 1537 550 c 2,207,-1
 1610 461 l 1,208,-1
 1610 400 l 1,209,210
 1559 436 1559 436 1483 463 c 0,211,212
 1292 530 1292 530 1024 530 c 0,213,214
 760 530 760 530 569 464 c 0,215,216
 491 436 491 436 439 400 c 1,217,-1
 439 461 l 1,218,-1
 511 550 l 2,219,220
 520 561 520 561 523.5 568 c 128,-1,221
 527 575 527 575 524.5 582 c 128,-1,222
 522 589 522 589 511 595 c 2,223,-1
 439 635 l 1,224,-1
 439 641 l 1,225,-1
 441 647 l 1,226,-1
 439 656 l 2,227,228
 439 657 439 657 439 659 c 0,229,230
 439 684 439 684 473 712 c 0,231,232
 515 747 515 747 594 775 c 0,233,193
 772 838 772 838 1024.5 838 c 128,-1,194
1024.5 791 m 128,-1,235
 1000 791 1000 791 984 782 c 2,236,-1
 858 713 l 2,237,238
 841 704 841 704 841 690.5 c 128,-1,239
 841 677 841 677 858 668 c 2,240,-1
 984 599 l 2,241,242
 1000 590 1000 590 1024.5 590 c 128,-1,243
 1049 590 1049 590 1065 599 c 2,244,-1
 1191 668 l 2,245,246
 1208 677 1208 677 1208 690.5 c 128,-1,247
 1208 704 1208 704 1191 713 c 2,248,-1
 1065 782 l 2,249,234
 1049 791 1049 791 1024.5 791 c 128,-1,235
1024 445 m 1,250,251
 1277 445 1277 445 1455 382 c 0,252,253
 1534 354 1534 354 1576 319 c 0,254,255
 1610 291 1610 291 1608 265 c 0,256,257
 1600 223 1600 223 1545 190 c 0,258,259
 1528 180 1528 180 1510 171.5 c 128,-1,260
 1492 163 1492 163 1471.5 155.5 c 128,-1,261
 1451 148 1451 148 1441 144 c 128,-1,262
 1431 140 1431 140 1408 133 c 128,-1,263
 1385 126 1385 126 1384 125 c 0,264,265
 1330 108 1330 108 1227.5 97 c 128,-1,266
 1125 86 1125 86 1024 86 c 0,267,268
 993 86 993 86 962 87 c 256,269,270
 931 88 931 88 901 90 c 0,271,272
 722 103 722 103 594 148 c 0,273,274
 515 177 515 177 473 212 c 0,275,276
 439 240 439 240 440 266 c 0,277,278
 441 293 441 293 475 321 c 0,279,280
 518 355 518 355 597 383 c 0,281,282
 774 445 774 445 1025 445 c 2,283,-1
 1024 445 l 1,284,-1
 1024 445 l 1,250,251
EndSplineSet
Ligature2: "'liga' Ligature standard lookup 0-1" w underscore k
EndChar

StartChar: w_r
Encoding: 65540 -1 5
Width: 2048
GlyphClass: 3
Flags: W
LayerCount: 2
Fore
SplineSet
863 2048 m 1,0,-1
 863 1842 l 1,1,-1
 652 1842 l 1,2,-1
 652 2048 l 1,3,-1
 311 2048 l 1,4,-1
 311 1553 l 1,5,-1
 544 1398 l 1,6,-1
 549 869 l 1,7,-1
 342 638 l 1,8,-1
 342 516 l 1,9,-1
 167 341 l 1,10,-1
 167 0 l 1,11,-1
 837 0 l 1,12,-1
 1212 0 l 1,13,-1
 1881 0 l 1,14,-1
 1881 341 l 1,15,-1
 1706 516 l 1,16,-1
 1706 638 l 1,17,-1
 1500 869 l 1,18,-1
 1504 1398 l 1,19,-1
 1737 1553 l 1,20,-1
 1737 2048 l 1,21,-1
 1396 2048 l 1,22,-1
 1396 1842 l 1,23,-1
 1185 1842 l 1,24,-1
 1185 2048 l 1,25,-1
 1139 2048 l 1,26,-1
 909 2048 l 1,27,-1
 863 2048 l 1,0,-1
399 1960 m 1,28,-1
 564 1960 l 1,29,-1
 564 1754 l 1,30,-1
 951 1754 l 1,31,-1
 951 1960 l 1,32,-1
 1097 1960 l 1,33,-1
 1097 1754 l 1,34,-1
 1484 1754 l 1,35,-1
 1484 1960 l 1,36,-1
 1649 1960 l 1,37,-1
 1649 1617 l 1,38,-1
 1189 1617 l 1,39,-1
 859 1617 l 1,40,-1
 399 1617 l 1,41,-1
 399 1960 l 1,28,-1
503 1530 m 1,42,-1
 859 1530 l 1,43,-1
 1189 1530 l 1,44,-1
 1545 1530 l 1,45,-1
 1418 1445 l 1,46,-1
 1390 1445 l 1,47,-1
 659 1445 l 1,48,-1
 631 1445 l 1,49,-1
 503 1530 l 1,42,-1
632 1358 m 1,50,-1
 659 1358 l 1,51,-1
 1390 1358 l 1,52,-1
 1416 1358 l 1,53,-1
 1412 896 l 1,54,-1
 1389 896 l 1,55,-1
 660 896 l 1,56,-1
 636 896 l 1,57,-1
 632 1358 l 1,50,-1
612 809 m 1,58,-1
 660 809 l 1,59,-1
 1389 809 l 1,60,-1
 1436 809 l 1,61,-1
 1590 636 l 1,62,-1
 1200 636 l 1,63,-1
 848 636 l 1,64,-1
 458 636 l 1,65,-1
 612 809 l 1,58,-1
430 549 m 1,66,-1
 848 549 l 1,67,-1
 1200 549 l 1,68,-1
 1618 549 l 1,69,-1
 1618 480 l 1,70,-1
 1783 315 l 1,71,-1
 1194 315 l 1,72,-1
 854 315 l 1,73,-1
 265 315 l 1,74,-1
 430 480 l 1,75,-1
 430 549 l 1,66,-1
254 228 m 1,76,-1
 854 228 l 1,77,-1
 1194 228 l 1,78,-1
 1794 228 l 1,79,-1
 1794 88 l 1,80,-1
 1212 88 l 1,81,-1
 837 88 l 1,82,-1
 254 88 l 1,83,-1
 254 228 l 1,84,-1
 254 228 l 1,76,-1
EndSplineSet
Ligature2: "'liga' Ligature standard lookup 0-1" w underscore r
EndChar

StartChar: w_b
Encoding: 65541 -1 6
Width: 2048
GlyphClass: 3
Flags: W
LayerCount: 2
Fore
SplineSet
1025 2007 m 128,-1,1
 957 2007 957 2007 908 1958.5 c 128,-1,2
 859 1910 859 1910 859 1842 c 0,3,4
 859 1795 859 1795 883 1756 c 128,-1,5
 907 1717 907 1717 947 1696 c 1,6,7
 797 1578 797 1578 704.5 1495 c 128,-1,8
 612 1412 612 1412 558 1342 c 0,9,10
 498 1264 498 1264 476.5 1187 c 128,-1,11
 455 1110 455 1110 466 1024 c 0,12,13
 472 977 472 977 492 935.5 c 128,-1,14
 512 894 512 894 539.5 864.5 c 128,-1,15
 567 835 567 835 589 817.5 c 128,-1,16
 611 800 611 800 634 786 c 1,17,-1
 634 509 l 1,18,-1
 643 498 l 2,19,20
 693 434 693 434 809 413 c 1,21,22
 807 409 807 409 803.5 397 c 128,-1,23
 800 385 800 385 798 379 c 128,-1,24
 796 373 796 373 791 365.5 c 128,-1,25
 786 358 786 358 779 354 c 0,26,27
 734 327 734 327 641 326 c 0,28,29
 581 325 581 325 460 338.5 c 128,-1,30
 339 352 339 352 295 350 c 0,31,32
 178 347 178 347 109 298 c 0,33,34
 65 266 65 266 29 200 c 0,35,36
 0 146 0 146 0 86 c 2,37,-1
 0 43 l 1,38,-1
 43 43 l 2,39,40
 90 43 90 43 165 42 c 128,-1,41
 240 41 240 41 260 41 c 2,42,-1
 268 41 l 1,43,-1
 276 45 l 2,44,45
 303 56 303 56 317 79 c 1,46,47
 325 82 325 82 342 83 c 0,48,49
 386 84 386 84 445.5 76.5 c 128,-1,50
 505 69 505 69 550.5 61 c 128,-1,51
 596 53 596 53 662 51.5 c 128,-1,52
 728 50 728 50 786 63 c 1,53,-1
 787 63 l 1,54,55
 846 78 846 78 890 98 c 128,-1,56
 934 118 934 118 969 157 c 0,57,58
 1003 194 1003 194 1024 251 c 1,59,60
 1045 194 1045 194 1079 157 c 0,61,62
 1114 118 1114 118 1158 98 c 128,-1,63
 1202 78 1202 78 1261 63 c 1,64,-1
 1262 63 l 1,65,66
 1319 50 1319 50 1385.5 51.5 c 128,-1,67
 1452 53 1452 53 1497.5 61 c 128,-1,68
 1543 69 1543 69 1602.5 76.5 c 128,-1,69
 1662 84 1662 84 1706 83 c 0,70,71
 1725 82 1725 82 1732 79 c 0,72,73
 1733 77 1733 77 1736.5 72 c 128,-1,74
 1740 67 1740 67 1750 58.5 c 128,-1,75
 1760 50 1760 50 1772 45 c 2,76,-1
 1780 41 l 1,77,-1
 1789 41 l 2,78,79
 1809 41 1809 41 1883.5 42 c 128,-1,80
 1958 43 1958 43 2005 43 c 2,81,-1
 2048 43 l 1,82,-1
 2048 86 l 2,83,84
 2048 146 2048 146 2019 200 c 0,85,86
 1983 266 1983 266 1939 298 c 0,87,88
 1871 347 1871 347 1753 350 c 0,89,90
 1709 352 1709 352 1588 338.5 c 128,-1,91
 1467 325 1467 325 1408 326 c 0,92,93
 1314 327 1314 327 1269 354 c 0,94,95
 1262 358 1262 358 1257 365.5 c 128,-1,96
 1252 373 1252 373 1250 378.5 c 128,-1,97
 1248 384 1248 384 1244.5 396.5 c 128,-1,98
 1241 409 1241 409 1239 413 c 1,99,100
 1355 434 1355 434 1405 498 c 2,101,-1
 1414 509 l 1,102,-1
 1414 786 l 1,103,104
 1437 800 1437 800 1459 817.5 c 128,-1,105
 1481 835 1481 835 1508.5 864.5 c 128,-1,106
 1536 894 1536 894 1556 935.5 c 128,-1,107
 1576 977 1576 977 1582 1024 c 0,108,109
 1593 1110 1593 1110 1572 1187 c 128,-1,110
 1551 1264 1551 1264 1491 1342 c 0,111,112
 1437 1411 1437 1411 1344.5 1494.5 c 128,-1,113
 1252 1578 1252 1578 1102 1695 c 1,114,115
 1142 1716 1142 1716 1166.5 1755.5 c 128,-1,116
 1191 1795 1191 1795 1191 1842 c 0,117,118
 1191 1910 1191 1910 1142 1958.5 c 128,-1,0
 1093 2007 1093 2007 1025 2007 c 128,-1,1
1025 1922 m 128,-1,120
 1059 1922 1059 1922 1082 1898.5 c 128,-1,121
 1105 1875 1105 1875 1105 1841.5 c 128,-1,122
 1105 1808 1105 1808 1082 1784.5 c 128,-1,123
 1059 1761 1059 1761 1025 1761 c 128,-1,124
 991 1761 991 1761 967.5 1784.5 c 128,-1,125
 944 1808 944 1808 944 1841.5 c 128,-1,126
 944 1875 944 1875 967.5 1898.5 c 128,-1,119
 991 1922 991 1922 1025 1922 c 128,-1,120
1024 1648 m 1,127,128
 1181 1526 1181 1526 1277 1440.5 c 128,-1,129
 1373 1355 1373 1355 1423 1290 c 0,130,131
 1476 1221 1476 1221 1491.5 1165 c 128,-1,132
 1507 1109 1507 1109 1497 1035 c 0,133,134
 1493 1003 1493 1003 1478 972.5 c 128,-1,135
 1463 942 1463 942 1446.5 923 c 128,-1,136
 1430 904 1430 904 1409 887 c 128,-1,137
 1388 870 1388 870 1378 864.5 c 128,-1,138
 1368 859 1368 859 1360 855 c 1,139,140
 1223 913 1223 913 1021 917 c 1,141,-1
 1021 918 l 2,142,143
 1018 918 1018 918 1013.5 918 c 128,-1,144
 1009 918 1009 918 1007 918 c 256,145,146
 1005 918 1005 918 1000 918 c 128,-1,147
 995 918 995 918 992 918 c 2,148,-1
 992 917 l 1,149,150
 818 913 818 913 687 855 c 1,151,152
 679 859 679 859 669 865 c 128,-1,153
 659 871 659 871 638 888 c 128,-1,154
 617 905 617 905 601 924 c 128,-1,155
 585 943 585 943 570 973 c 128,-1,156
 555 1003 555 1003 551 1035 c 0,157,158
 541 1109 541 1109 556.5 1165 c 128,-1,159
 572 1221 572 1221 625 1290 c 0,160,161
 675 1355 675 1355 771 1440.5 c 128,-1,162
 867 1526 867 1526 1024 1648 c 1,127,128
996 1367 m 1,163,-1
 996 1223 l 1,164,-1
 851 1223 l 1,165,-1
 851 1166 l 1,166,-1
 996 1166 l 1,167,-1
 996 1022 l 1,168,-1
 1052 1022 l 1,169,-1
 1052 1166 l 1,170,-1
 1196 1166 l 1,171,-1
 1196 1223 l 1,172,-1
 1052 1223 l 1,173,-1
 1052 1367 l 1,174,-1
 996 1367 l 1,163,-1
1006 832 m 0,175,176
 1212 830 1212 830 1329 784 c 1,177,-1
 1329 726 l 1,178,-1
 1292 689 l 1,179,-1
 1329 651 l 1,180,-1
 1329 565 l 1,181,182
 1167 600 1167 600 1022 602 c 0,183,184
 865 604 865 604 719 567 c 1,185,-1
 719 653 l 1,186,-1
 756 690 l 1,187,-1
 719 727 l 1,188,-1
 719 784 l 1,189,190
 826 831 826 831 1006 832 c 0,175,176
1013 770 m 1,191,-1
 1013 747 l 1,192,-1
 962 747 l 1,193,-1
 962 703 l 1,194,-1
 1013 703 l 1,195,-1
 1013 680 l 1,196,-1
 1035 680 l 1,197,-1
 1035 703 l 1,198,-1
 1086 703 l 1,199,-1
 1086 747 l 1,200,-1
 1035 747 l 1,201,-1
 1035 770 l 1,202,-1
 1013 770 l 1,191,-1
1022 545 m 0,203,204
 1148 544 1148 544 1289 515 c 1,205,206
 1257 498 1257 498 1215 491 c 0,207,208
 1169 484 1169 484 1052 485 c 2,209,-1
 1038 485 l 1,210,-1
 1010 485 l 1,211,-1
 996 485 l 2,212,213
 879 484 879 484 833 491 c 0,214,215
 789 498 789 498 756 517 c 1,216,217
 885 547 885 547 1022 545 c 0,203,204
888 404 m 1,218,219
 945 402 945 402 956 402 c 1,220,221
 944 256 944 256 906 214 c 0,222,223
 882 188 882 188 849.5 173 c 128,-1,224
 817 158 817 158 768 146 c 0,225,226
 721 135 721 135 661.5 137.5 c 128,-1,227
 602 140 602 140 559 148 c 128,-1,228
 516 156 516 156 454 163 c 128,-1,229
 392 170 392 170 339 168 c 2,230,-1
 338 168 l 2,231,232
 308 166 308 166 288 159 c 0,233,234
 266 152 266 152 253 136 c 2,235,-1
 245 126 l 1,236,237
 225 126 225 126 170.5 127 c 128,-1,238
 116 128 116 128 96 128 c 1,239,240
 97 130 97 130 99 142 c 128,-1,241
 101 154 101 154 104 160 c 0,242,243
 131 209 131 209 159 229 c 0,244,245
 206 262 206 262 298 265 c 0,246,247
 325 266 325 266 447.5 252.5 c 128,-1,248
 570 239 570 239 642 241 c 0,249,250
 758 242 758 242 822 281 c 0,251,252
 848 296 848 296 862 326 c 128,-1,253
 876 356 876 356 888 404 c 1,218,219
1160 404 m 1,254,255
 1168 373 1168 373 1174 354 c 128,-1,256
 1180 335 1180 335 1193.5 313.5 c 128,-1,257
 1207 292 1207 292 1226 281 c 0,258,259
 1290 242 1290 242 1406 241 c 0,260,261
 1478 239 1478 239 1600.5 252.5 c 128,-1,262
 1723 266 1723 266 1750 265 c 0,263,264
 1842 262 1842 262 1889 229 c 0,265,266
 1917 209 1917 209 1944 160 c 0,267,268
 1947 154 1947 154 1949 142.5 c 128,-1,269
 1951 131 1951 131 1952 128 c 1,270,271
 1933 128 1933 128 1878 127 c 128,-1,272
 1823 126 1823 126 1803 126 c 1,273,-1
 1795 136 l 2,274,275
 1781 152 1781 152 1760 159 c 0,276,277
 1741 166 1741 166 1710 168 c 2,278,-1
 1709 168 l 2,279,280
 1656 170 1656 170 1594 163 c 128,-1,281
 1532 156 1532 156 1489 148 c 128,-1,282
 1446 140 1446 140 1386.5 137.5 c 128,-1,283
 1327 135 1327 135 1280 146 c 0,284,285
 1231 158 1231 158 1198 173 c 128,-1,286
 1165 188 1165 188 1142 214 c 0,287,288
 1104 255 1104 255 1092 402 c 1,289,290
 1104 402 1104 402 1160 404 c 1,291,-1
 1160 404 l 1,254,255
EndSplineSet
Ligature2: "'liga' Ligature standard lookup 0-1" w underscore b
EndChar

StartChar: w_n
Encoding: 65542 -1 7
Width: 2048
GlyphClass: 3
Flags: W
LayerCount: 2
Fore
SplineSet
858 2037 m 0,0,1
 842 2037 842 2037 830.5 2027 c 128,-1,2
 819 2017 819 2017 816 2002 c 2,3,-1
 778 1807 l 1,4,-1
 700 1802 l 1,5,-1
 547 1993 l 2,6,7
 531 2012 531 2012 506 2008.5 c 128,-1,8
 481 2005 481 2005 472 1981 c 0,9,10
 468 1970 468 1970 470 1958 c 2,11,-1
 501 1772 l 1,12,-1
 326 1516 l 2,13,14
 319 1506 319 1506 318 1495 c 2,15,-1
 304 1343 l 1,16,17
 230 1246 230 1246 159 1139 c 0,18,19
 92 1038 92 1038 52 964 c 0,20,21
 35 931 35 931 25 910.5 c 128,-1,22
 15 890 15 890 7.5 863.5 c 128,-1,23
 0 837 0 837 0 814 c 0,24,25
 0 721 0 721 35.5 650.5 c 128,-1,26
 71 580 71 580 131 538 c 0,27,28
 188 497 188 497 240 509 c 0,29,30
 242 510 242 510 246 515.5 c 128,-1,31
 250 521 250 521 252 522 c 2,32,33
 252 522 252 522 251.5 521 c 128,-1,34
 251 520 251 520 251 520 c 1,35,36
 253 500 253 500 263 485 c 256,37,38
 273 470 273 470 292 463 c 0,39,40
 302 460 302 460 329 459 c 0,41,42
 333 459 333 459 356.5 457.5 c 128,-1,43
 380 456 380 456 390.5 456 c 128,-1,44
 401 456 401 456 420.5 457.5 c 128,-1,45
 440 459 440 459 456 463 c 0,46,47
 496 473 496 473 520 501 c 0,48,49
 546 532 546 532 549 581 c 0,50,51
 550 606 550 606 548 630 c 128,-1,52
 546 654 546 654 543 672 c 128,-1,53
 540 690 540 690 540 696 c 0,54,55
 540 706 540 706 543 711 c 0,56,57
 548 719 548 719 568 730 c 0,58,59
 603 750 603 750 720 778 c 0,60,61
 851 809 851 809 905 837 c 0,62,63
 927 849 927 849 944 862.5 c 128,-1,64
 961 876 961 876 969 884.5 c 128,-1,65
 977 893 977 893 991.5 911.5 c 128,-1,66
 1006 930 1006 930 1014 939 c 1,67,-1
 1001 736 l 1,68,69
 995 715 995 715 968 679 c 0,70,71
 906 596 906 596 785 523 c 0,72,73
 575 397 575 397 575 53 c 0,74,75
 575 35 575 35 588 23.5 c 128,-1,76
 601 12 601 12 618 12 c 2,77,-1
 2003 12 l 2,78,79
 2021 11 2021 11 2033.5 24 c 128,-1,80
 2046 37 2046 37 2046 55 c 0,81,82
 2050 192 2050 192 2047.5 344 c 128,-1,83
 2045 496 2045 496 2036.5 632 c 128,-1,84
 2028 768 2028 768 2001.5 909 c 128,-1,85
 1975 1050 1975 1050 1930 1167 c 0,86,87
 1723 1710 1723 1710 1063 1781 c 1,88,89
 1035 1838 1035 1838 991.5 1899 c 128,-1,90
 948 1960 948 1960 919 1992 c 2,91,-1
 889 2025 l 2,92,93
 876 2038 876 2038 858 2037 c 0,0,1
882 1888 m 1,94,95
 888 1882 888 1882 906 1862.5 c 128,-1,96
 924 1843 924 1843 932.5 1833 c 128,-1,97
 941 1823 941 1823 955 1805 c 128,-1,98
 969 1787 969 1787 979 1768 c 128,-1,99
 989 1749 989 1749 998 1726 c 0,100,101
 1008 1702 1008 1702 1034 1699 c 0,102,103
 1175 1686 1175 1686 1290.5 1652 c 128,-1,104
 1406 1618 1406 1618 1493 1569 c 128,-1,105
 1580 1520 1580 1520 1649 1451.5 c 128,-1,106
 1718 1383 1718 1383 1765.5 1306.5 c 128,-1,107
 1813 1230 1813 1230 1849 1135 c 0,108,109
 1889 1031 1889 1031 1913.5 902 c 128,-1,110
 1938 773 1938 773 1946.5 645.5 c 128,-1,111
 1955 518 1955 518 1958.5 375 c 128,-1,112
 1962 232 1962 232 1958 99 c 1,113,-1
 666 99 l 1,114,115
 667 119 667 119 668.5 139 c 128,-1,116
 670 159 670 159 675 194 c 128,-1,117
 680 229 680 229 691.5 261.5 c 128,-1,118
 703 294 703 294 719.5 329 c 128,-1,119
 736 364 736 364 765 395.5 c 128,-1,120
 794 427 794 427 830 449 c 0,121,122
 966 530 966 530 1038 627 c 0,123,124
 1054 649 1054 649 1066 671 c 128,-1,125
 1078 693 1078 693 1082 705 c 2,126,-1
 1086 716 l 2,127,128
 1087 720 1087 720 1087 724 c 2,129,-1
 1108 1042 l 2,130,131
 1109 1067 1109 1067 1088.5 1081 c 128,-1,132
 1068 1095 1068 1095 1045 1084 c 0,133,134
 1035 1079 1035 1079 1028 1070 c 0,135,136
 1025 1065 1025 1065 1019 1057.5 c 128,-1,137
 1013 1050 1013 1050 994.5 1028 c 128,-1,138
 976 1006 976 1006 957.5 987 c 128,-1,139
 939 968 939 968 913 947 c 128,-1,140
 887 926 887 926 864 914 c 0,141,142
 819 891 819 891 700 862 c 0,143,144
 696 861 696 861 681.5 857.5 c 128,-1,145
 667 854 667 854 662.5 853 c 128,-1,146
 658 852 658 852 644.5 849 c 128,-1,147
 631 846 631 846 625.5 844.5 c 128,-1,148
 620 843 620 843 608 839.5 c 128,-1,149
 596 836 596 836 590 833.5 c 128,-1,150
 584 831 584 831 573.5 827.5 c 128,-1,151
 563 824 563 824 556 821 c 128,-1,152
 549 818 549 818 540.5 814 c 128,-1,153
 532 810 532 810 525 806 c 0,154,155
 486 784 486 784 469 756 c 0,156,157
 453 730 453 730 453 694 c 0,158,159
 454 679 454 679 458.5 644 c 128,-1,160
 463 609 463 609 462 586 c 0,161,162
 461 566 461 566 453 557 c 0,163,164
 448 551 448 551 434 547 c 0,165,166
 417 543 417 543 346 546 c 1,167,168
 359 595 359 595 390 665 c 0,169,170
 399 688 399 688 384 708 c 128,-1,171
 369 728 369 728 344 725 c 0,172,173
 322 722 322 722 311 702 c 0,174,175
 291 663 291 663 271.5 637.5 c 128,-1,176
 252 612 252 612 240.5 604 c 128,-1,177
 229 596 229 596 221 594 c 0,178,179
 207 591 207 591 181 609 c 0,180,181
 87 675 87 675 87 814 c 0,182,183
 87 824 87 824 99 856.5 c 128,-1,184
 111 889 111 889 129 924 c 0,185,186
 166 994 166 994 231 1091 c 0,187,188
 264 1141 264 1141 301.5 1193.5 c 128,-1,189
 339 1246 339 1246 360 1273 c 2,190,-1
 381 1301 l 2,191,192
 388 1311 388 1311 390 1323 c 2,193,-1
 404 1476 l 1,194,-1
 583 1738 l 2,195,196
 593 1752 593 1752 590 1770 c 2,197,-1
 583 1808 l 1,198,-1
 646 1731 l 2,199,200
 660 1713 660 1713 682 1714 c 2,201,-1
 816 1722 l 2,202,203
 831 1722 831 1722 842.5 1732 c 128,-1,204
 854 1742 854 1742 857 1756 c 2,205,-1
 882 1888 l 1,94,95
630 1414 m 0,206,207
 606 1415 606 1415 562.5 1394.5 c 128,-1,208
 519 1374 519 1374 497 1345 c 0,209,210
 492 1340 492 1340 489 1325.5 c 128,-1,211
 486 1311 486 1311 486 1300 c 2,212,-1
 485 1289 l 2,213,214
 484 1269 484 1269 496 1267 c 0,215,216
 501 1266 501 1266 505.5 1270.5 c 128,-1,217
 510 1275 510 1275 516.5 1283.5 c 128,-1,218
 523 1292 523 1292 531 1296 c 0,219,220
 539 1302 539 1302 568.5 1300.5 c 128,-1,221
 598 1299 598 1299 606 1310 c 0,222,223
 617 1321 617 1321 617 1336.5 c 128,-1,224
 617 1352 617 1352 621 1374 c 0,225,226
 623 1380 623 1380 629 1386.5 c 128,-1,227
 635 1393 635 1393 639 1396 c 128,-1,228
 643 1399 643 1399 645 1403.5 c 128,-1,229
 647 1408 647 1408 640 1412 c 0,230,231
 636 1414 636 1414 630 1414 c 0,206,207
209 846 m 1,232,233
 199 851 199 851 177 823 c 128,-1,234
 155 795 155 795 152 777 c 0,235,236
 145 737 145 737 163 718 c 0,237,238
 180 701 180 701 199 704 c 0,239,240
 209 705 209 705 220 713 c 128,-1,241
 231 721 231 721 235 729 c 0,242,243
 238 736 238 736 237 748.5 c 128,-1,244
 236 761 236 761 231 766 c 0,245,246
 228 769 228 769 215 769.5 c 128,-1,247
 202 770 202 770 198 779 c 0,248,249
 195 783 195 783 199 794 c 128,-1,250
 203 805 203 805 208.5 814.5 c 128,-1,251
 214 824 214 824 215.5 834 c 128,-1,252
 217 844 217 844 209 846 c 1,253,-1
 209 846 l 1,232,233
EndSplineSet
Ligature2: "'liga' Ligature standard lookup 0-1" w underscore n
EndChar

StartChar: w_p
Encoding: 65543 -1 8
Width: 2048
GlyphClass: 3
Flags: W
LayerCount: 2
Fore
SplineSet
1024 2048 m 128,-1,1
 936 2048 936 2048 861.5 2003.5 c 128,-1,2
 787 1959 787 1959 744 1883 c 128,-1,3
 701 1807 701 1807 701 1718 c 0,4,5
 701 1670 701 1670 721.5 1625.5 c 128,-1,6
 742 1581 742 1581 779 1530 c 1,7,8
 679 1485 679 1485 609 1414 c 128,-1,9
 539 1343 539 1343 512 1253 c 2,10,-1
 495 1197 l 1,11,-1
 837 1197 l 1,12,13
 829 963 829 963 753 809 c 0,14,15
 742 786 742 786 681.5 678 c 128,-1,16
 621 570 621 570 590 494 c 1,17,18
 453 470 453 470 361 372.5 c 128,-1,19
 269 275 269 275 269 142 c 2,20,-1
 269 43 l 1,21,-1
 269 0 l 1,22,-1
 877 0 l 1,23,-1
 1171 0 l 1,24,-1
 1779 0 l 1,25,-1
 1779 43 l 2,26,27
 1779 108 1779 108 1779 142 c 0,28,29
 1779 275 1779 275 1687 372.5 c 128,-1,30
 1595 470 1595 470 1458 494 c 1,31,32
 1427 570 1427 570 1366.5 678 c 128,-1,33
 1306 786 1306 786 1295 809 c 0,34,35
 1219 963 1219 963 1212 1197 c 1,36,-1
 1553 1197 l 1,37,-1
 1536 1253 l 2,38,39
 1509 1343 1509 1343 1439 1414 c 128,-1,40
 1369 1485 1369 1485 1270 1530 c 1,41,42
 1306 1581 1306 1581 1326.5 1625.5 c 128,-1,43
 1347 1670 1347 1670 1347 1718 c 0,44,45
 1347 1807 1347 1807 1304 1883 c 128,-1,46
 1261 1959 1261 1959 1186.5 2003.5 c 128,-1,0
 1112 2048 1112 2048 1024 2048 c 128,-1,1
1024 1962 m 128,-1,48
 1123 1962 1123 1962 1193 1890.5 c 128,-1,49
 1263 1819 1263 1819 1263 1718 c 0,50,51
 1263 1614 1263 1614 1190 1542 c 2,52,-1
 1141 1494 l 1,53,-1
 1205 1471 l 2,54,55
 1347 1419 1347 1419 1421 1283 c 1,56,-1
 1123 1283 l 1,57,-1
 925 1283 l 1,58,-1
 627 1283 l 1,59,60
 701 1420 701 1420 843 1471 c 2,61,-1
 907 1494 l 1,62,-1
 858 1542 l 2,63,64
 785 1614 785 1614 785 1718 c 0,65,66
 785 1819 785 1819 855 1890.5 c 128,-1,47
 925 1962 925 1962 1024 1962 c 128,-1,48
924 1197 m 1,67,-1
 1124 1197 l 1,68,69
 1130 951 1130 951 1219 771 c 0,70,71
 1234 740 1234 740 1295.5 632 c 128,-1,72
 1357 524 1357 524 1386 449 c 2,73,-1
 1395 424 l 1,74,-1
 1421 422 l 2,75,76
 1538 411 1538 411 1616 330.5 c 128,-1,77
 1694 250 1694 250 1694 142 c 2,78,-1
 1694 86 l 1,79,-1
 1171 86 l 1,80,-1
 877 86 l 1,81,-1
 354 86 l 1,82,-1
 354 142 l 2,83,84
 354 250 354 250 432 330.5 c 128,-1,85
 510 411 510 411 627 422 c 2,86,-1
 653 424 l 1,87,-1
 662 449 l 2,88,89
 691 524 691 524 752.5 632 c 128,-1,90
 814 740 814 740 829 771 c 0,91,92
 918 951 918 951 924 1197 c 1,93,-1
 924 1197 l 1,67,-1
EndSplineSet
Ligature2: "'liga' Ligature standard lookup 0-1" w underscore p
EndChar

StartChar: w_e
Encoding: 65544 -1 9
Width: 2048
GlyphClass: 3
Flags: W
LayerCount: 2
Fore
SplineSet
980 2014 m 1,0,-1
 980 1940 l 1,1,2
 999 1940 999 1940 1012.5 1926.5 c 128,-1,3
 1026 1913 1026 1913 1026 1893.5 c 128,-1,4
 1026 1874 1026 1874 1012.5 1860.5 c 128,-1,5
 999 1847 999 1847 980 1847 c 1,6,-1
 980 1796 l 1,7,8
 954 1838 954 1838 921.5 1879.5 c 128,-1,9
 889 1921 889 1921 870 1942 c 2,10,-1
 851 1963 l 2,11,12
 838 1976 838 1976 820 1975 c 0,13,14
 806 1974 806 1974 795 1965 c 128,-1,15
 784 1956 784 1956 781 1941 c 2,16,-1
 744 1754 l 1,17,-1
 669 1750 l 1,18,-1
 523 1932 l 2,19,20
 514 1943 514 1943 500 1946.5 c 128,-1,21
 486 1950 486 1950 473 1944 c 128,-1,22
 460 1938 460 1938 453.5 1925.5 c 128,-1,23
 447 1913 447 1913 449 1899 c 2,24,-1
 479 1722 l 1,25,-1
 311 1476 l 2,26,27
 305 1467 305 1467 304 1456 c 2,28,-1
 291 1311 l 1,29,30
 220 1218 220 1218 152 1115 c 0,31,32
 88 1019 88 1019 50 949 c 0,33,34
 24 900 24 900 12 868 c 128,-1,35
 0 836 0 836 0 805 c 0,36,37
 0 716 0 716 34 648.5 c 128,-1,38
 68 581 68 581 125 541 c 0,39,40
 180 502 180 502 229 513 c 0,41,42
 232 514 232 514 235.5 519 c 128,-1,43
 239 524 239 524 241 525 c 2,44,45
 241 525 241 525 241 524 c 0,46,47
 242 504 242 504 251 490 c 0,48,49
 262 475 262 475 280 469 c 0,50,51
 289 466 289 466 315 465 c 0,52,53
 319 465 319 465 341 463.5 c 128,-1,54
 363 462 363 462 373.5 462 c 128,-1,55
 384 462 384 462 402.5 463.5 c 128,-1,56
 421 465 421 465 436 469 c 0,57,58
 474 478 474 478 497 505 c 0,59,60
 522 535 522 535 525 582 c 0,61,62
 526 605 526 605 524 628.5 c 128,-1,63
 522 652 522 652 519.5 669 c 128,-1,64
 517 686 517 686 517 692 c 0,65,66
 517 701 517 701 519 706 c 0,67,68
 524 714 524 714 543 724 c 0,69,70
 577 743 577 743 689 770 c 0,71,72
 814 800 814 800 866 827 c 0,73,74
 887 838 887 838 903 851 c 128,-1,75
 919 864 919 864 927 872.5 c 128,-1,76
 935 881 935 881 948.5 898.5 c 128,-1,77
 962 916 962 916 970 924 c 1,78,-1
 957 730 l 2,79,80
 952 710 952 710 926 675 c 0,81,82
 867 596 867 596 751 526 c 0,83,84
 706 499 706 499 670 459.5 c 128,-1,85
 634 420 634 420 613.5 378.5 c 128,-1,86
 593 337 593 337 578.5 293.5 c 128,-1,87
 564 250 564 250 558.5 211.5 c 128,-1,88
 553 173 553 173 550.5 142.5 c 128,-1,89
 548 112 548 112 549 94 c 2,90,-1
 550 77 l 2,91,92
 551 60 551 60 563 48.5 c 128,-1,93
 575 37 575 37 591 37 c 2,94,-1
 980 37 l 2,95,96
 1032 37 1032 37 1100 35 c 0,97,98
 1238 34 1238 34 1321 41 c 0,99,100
 1401 49 1401 49 1487 89 c 0,101,102
 1499 95 1499 95 1500 95 c 0,103,104
 1576 135 1576 135 1609 182 c 0,105,106
 1613 189 1613 189 1617 196 c 0,107,108
 1624 209 1624 209 1631 235 c 0,109,110
 1633 243 1633 243 1633 321 c 2,111,-1
 1633 628 l 2,112,113
 1634 628 1634 628 1633.5 633 c 128,-1,114
 1633 638 1633 638 1633 639 c 2,115,-1
 1633 640 l 2,116,117
 1634 643 1634 643 1631 668 c 0,118,119
 1626 687 1626 687 1619 701 c 0,120,121
 1615 708 1615 708 1611 714 c 0,122,123
 1607 721 1607 721 1601 728 c 1,124,-1
 1917 1513 l 1,125,126
 1917 1513 1917 1513 1921.5 1512.5 c 128,-1,127
 1926 1512 1926 1512 1928 1512 c 0,128,129
 1977 1512 1977 1512 2012.5 1547.5 c 128,-1,130
 2048 1583 2048 1583 2048 1632.5 c 128,-1,131
 2048 1682 2048 1682 2012.5 1717.5 c 128,-1,132
 1977 1753 1977 1753 1927.5 1753 c 128,-1,133
 1878 1753 1878 1753 1843 1717.5 c 128,-1,134
 1808 1682 1808 1682 1808 1632 c 0,135,136
 1808 1590 1808 1590 1836 1556 c 1,137,-1
 1453 1140 l 1,138,-1
 1487 1709 l 1,139,140
 1531 1716 1531 1716 1560 1749.5 c 128,-1,141
 1589 1783 1589 1783 1589 1827 c 0,142,143
 1589 1877 1589 1877 1553.5 1912.5 c 128,-1,144
 1518 1948 1518 1948 1469 1948 c 128,-1,145
 1420 1948 1420 1948 1384.5 1912.5 c 128,-1,146
 1349 1877 1349 1877 1349 1827 c 0,147,148
 1349 1769 1349 1769 1397 1733 c 1,149,-1
 1145 1217 l 1,150,-1
 1022 1778 l 1,151,-1
 1023 1782 l 1,152,153
 1057 1796 1057 1796 1078.5 1826 c 128,-1,154
 1100 1856 1100 1856 1100 1894 c 0,155,156
 1100 1943 1100 1943 1064.5 1978.5 c 128,-1,157
 1029 2014 1029 2014 980 2014 c 1,0,-1
1468.5 1874 m 128,-1,159
 1488 1874 1488 1874 1501.5 1860.5 c 128,-1,160
 1515 1847 1515 1847 1515 1827.5 c 128,-1,161
 1515 1808 1515 1808 1501.5 1794.5 c 128,-1,162
 1488 1781 1488 1781 1468.5 1781 c 128,-1,163
 1449 1781 1449 1781 1436 1794.5 c 128,-1,164
 1423 1808 1423 1808 1423 1827.5 c 128,-1,165
 1423 1847 1423 1847 1436 1860.5 c 128,-1,158
 1449 1874 1449 1874 1468.5 1874 c 128,-1,159
844 1832 m 1,166,167
 849 1826 849 1826 866.5 1807.5 c 128,-1,168
 884 1789 884 1789 892 1779.5 c 128,-1,169
 900 1770 900 1770 913.5 1752.5 c 128,-1,170
 927 1735 927 1735 936.5 1717 c 128,-1,171
 946 1699 946 1699 955 1678 c 0,172,173
 967 1650 967 1650 980 1582 c 2,174,-1
 1114 966 l 1,175,-1
 1393 1537 l 1,176,-1
 1355 911 l 1,177,-1
 1762 1353 l 1,178,-1
 1533 783 l 1,179,180
 1488 811 1488 811 1426 833 c 0,181,182
 1333 863 1333 863 1197 880.5 c 128,-1,183
 1061 898 1061 898 991 898 c 1,184,-1
 989 1053 l 1,185,186
 975 1034 975 1034 954 1010.5 c 128,-1,187
 933 987 933 987 895.5 952 c 128,-1,188
 858 917 858 917 827 901 c 0,189,190
 784 878 784 878 669 851 c 0,191,192
 666 850 666 850 652 846.5 c 128,-1,193
 638 843 638 843 633.5 842 c 128,-1,194
 629 841 629 841 616 838 c 128,-1,195
 603 835 603 835 598 833.5 c 128,-1,196
 593 832 593 832 581.5 829 c 128,-1,197
 570 826 570 826 564 823.5 c 128,-1,198
 558 821 558 821 548.5 817.5 c 128,-1,199
 539 814 539 814 532 811 c 128,-1,200
 525 808 525 808 517 804.5 c 128,-1,201
 509 801 509 801 502 797 c 0,202,203
 465 776 465 776 448 749 c 0,204,205
 433 724 433 724 434 690 c 0,206,207
 434 675 434 675 438.5 641.5 c 128,-1,208
 443 608 443 608 442 586 c 0,209,210
 441 567 441 567 434 559 c 0,211,212
 428 553 428 553 415 549 c 0,213,214
 399 545 399 545 331 548 c 1,215,216
 343 596 343 596 373 662 c 0,217,218
 379 677 379 677 373 692.5 c 128,-1,219
 367 708 367 708 352 715.5 c 128,-1,220
 337 723 337 723 321.5 717.5 c 128,-1,221
 306 712 306 712 298 698 c 0,222,223
 279 660 279 660 260 636 c 128,-1,224
 241 612 241 612 230 604 c 128,-1,225
 219 596 219 596 211 594 c 0,226,227
 198 591 198 591 173 609 c 0,228,229
 83 672 83 672 83 805 c 0,230,231
 83 814 83 814 94.5 845 c 128,-1,232
 106 876 106 876 124 910 c 0,233,234
 159 976 159 976 221 1069 c 0,235,236
 253 1117 253 1117 288.5 1167 c 128,-1,237
 324 1217 324 1217 344 1244 c 2,238,-1
 364 1270 l 2,239,240
 372 1280 372 1280 373 1292 c 2,241,-1
 386 1438 l 1,242,-1
 557 1688 l 2,243,244
 567 1702 567 1702 564 1719 c 2,245,-1
 558 1756 l 1,246,-1
 618 1682 l 2,247,248
 631 1665 631 1665 652 1666 c 2,249,-1
 781 1673 l 2,250,251
 795 1674 795 1674 806 1683 c 128,-1,252
 817 1692 817 1692 820 1706 c 2,253,-1
 844 1832 l 1,166,167
1927.5 1679 m 128,-1,255
 1947 1679 1947 1679 1960.5 1665.5 c 128,-1,256
 1974 1652 1974 1652 1974 1632.5 c 128,-1,257
 1974 1613 1974 1613 1960.5 1599.5 c 128,-1,258
 1947 1586 1947 1586 1927.5 1586 c 128,-1,259
 1908 1586 1908 1586 1894.5 1599.5 c 128,-1,260
 1881 1613 1881 1613 1881 1632.5 c 128,-1,261
 1881 1652 1881 1652 1894.5 1665.5 c 128,-1,254
 1908 1679 1908 1679 1927.5 1679 c 128,-1,255
600 1379 m 2,262,263
 575 1378 575 1378 535.5 1358.5 c 128,-1,264
 496 1339 496 1339 476 1313 c 0,265,266
 471 1307 471 1307 468 1293.5 c 128,-1,267
 465 1280 465 1280 465 1269 c 2,268,-1
 464 1259 l 2,269,270
 463 1240 463 1240 475 1238 c 0,271,272
 480 1237 480 1237 484 1241.5 c 128,-1,273
 488 1246 488 1246 494.5 1253.5 c 128,-1,274
 501 1261 501 1261 508 1266 c 0,275,276
 516 1271 516 1271 544 1270 c 128,-1,277
 572 1269 572 1269 580 1279 c 0,278,279
 590 1290 590 1290 590 1305 c 128,-1,280
 590 1320 590 1320 594 1341 c 0,281,282
 596 1347 596 1347 601.5 1352.5 c 128,-1,283
 607 1358 607 1358 611.5 1361 c 128,-1,284
 616 1364 616 1364 617.5 1368.5 c 128,-1,285
 619 1373 619 1373 612 1376 c 0,286,287
 609 1379 609 1379 603 1379 c 2,288,-1
 600 1379 l 2,262,263
197 836 m 0,289,290
 187 835 187 835 167.5 810 c 128,-1,291
 148 785 148 785 145 769 c 0,292,293
 138 731 138 731 156 713 c 0,294,295
 172 696 172 696 191 699 c 0,296,297
 200 701 200 701 210.5 708.5 c 128,-1,298
 221 716 221 716 224 723 c 256,299,300
 227 730 227 730 226.5 742 c 128,-1,301
 226 754 226 754 221 759 c 0,302,303
 218 762 218 762 206 762.5 c 128,-1,304
 194 763 194 763 189 771 c 0,305,306
 186 775 186 775 190 785.5 c 128,-1,307
 194 796 194 796 199.5 805.5 c 128,-1,308
 205 815 205 815 206.5 824 c 128,-1,309
 208 833 208 833 200 835 c 0,310,311
 199 836 199 836 197 836 c 0,289,290
989 816 m 1,312,313
 1226 815 1226 815 1398 754 c 0,314,315
 1476 727 1476 727 1517 693 c 0,316,317
 1549 666 1549 666 1550 641 c 0,318,319
 1550 636 1550 636 1550 628 c 128,-1,320
 1550 620 1550 620 1550 617 c 2,321,-1
 1479 578 l 2,322,323
 1469 572 1469 572 1466.5 565 c 128,-1,324
 1464 558 1464 558 1467 551.5 c 128,-1,325
 1470 545 1470 545 1479 534 c 2,326,-1
 1550 447 l 1,327,-1
 1550 388 l 1,328,329
 1500 423 1500 423 1426 449 c 0,330,331
 1240 515 1240 515 980 515 c 1,332,-1
 980 432 l 1,333,334
 1226 432 1226 432 1398 371 c 0,335,336
 1476 343 1476 343 1517 309 c 0,337,338
 1550 282 1550 282 1548 256 c 0,339,340
 1546 233 1546 233 1527 214 c 0,341,342
 1478 174 1478 174 1420 151 c 0,343,344
 1369 133 1369 133 1307.5 124.5 c 128,-1,345
 1246 116 1246 116 1202.5 116 c 128,-1,346
 1159 116 1159 116 1086 118.5 c 128,-1,347
 1013 121 1013 121 980 120 c 2,348,-1
 637 120 l 1,349,350
 638 140 638 140 639.5 159 c 128,-1,351
 641 178 641 178 645.5 211.5 c 128,-1,352
 650 245 650 245 661 276 c 128,-1,353
 672 307 672 307 688 341 c 128,-1,354
 704 375 704 375 731.5 404.5 c 128,-1,355
 759 434 759 434 794 455 c 0,356,357
 912 526 912 526 980 609 c 1,358,-1
 980 573 l 1,359,360
 1003 574 1003 574 1018 582 c 2,361,-1
 1141 650 l 2,362,363
 1157 658 1157 658 1157 671.5 c 128,-1,364
 1157 685 1157 685 1141 693 c 2,365,-1
 1018 761 l 2,366,367
 1002 770 1002 770 989 770 c 1,368,-1
 989 816 l 1,369,-1
 989 816 l 1,312,313
EndSplineSet
Ligature2: "'liga' Ligature standard lookup 0-1" w underscore e
EndChar

StartChar: w_t
Encoding: 65545 -1 10
Width: 2048
GlyphClass: 3
Flags: W
LayerCount: 2
Fore
SplineSet
1106 2048 m 1,0,-1
 1106 1961 l 1,1,-1
 1106 1858 l 1,2,3
 1079 1900 1079 1900 1046 1942 c 128,-1,4
 1013 1984 1013 1984 994 2005 c 2,5,-1
 975 2026 l 2,6,7
 962 2039 962 2039 943 2038 c 0,8,9
 928 2038 928 2038 916.5 2028 c 128,-1,10
 905 2018 905 2018 902 2003 c 2,11,-1
 863 1806 l 1,12,-1
 784 1802 l 1,13,-1
 630 1993 l 2,14,15
 621 2005 621 2005 606.5 2008.5 c 128,-1,16
 592 2012 592 2012 578.5 2006 c 128,-1,17
 565 2000 565 2000 557.5 1986.5 c 128,-1,18
 550 1973 550 1973 553 1958 c 2,19,-1
 584 1772 l 1,20,-1
 408 1513 l 2,21,22
 402 1504 402 1504 401 1493 c 2,23,-1
 386 1340 l 1,24,25
 312 1243 312 1243 240 1134 c 0,26,27
 173 1033 173 1033 133 959 c 0,28,29
 106 908 106 908 93 874.5 c 128,-1,30
 80 841 80 841 80 808 c 0,31,32
 80 714 80 714 116 643 c 128,-1,33
 152 572 152 572 212 530 c 0,34,35
 270 489 270 489 322 501 c 0,36,37
 324 502 324 502 328 507.5 c 128,-1,38
 332 513 332 513 334 514 c 1,39,40
 334 513 334 513 333.5 512.5 c 128,-1,41
 333 512 333 512 333 512 c 1,42,43
 334 491 334 491 345 477 c 0,44,45
 355 461 355 461 375 455 c 0,46,47
 384 451 384 451 412 450 c 0,48,49
 416 450 416 450 439 448.5 c 128,-1,50
 462 447 462 447 473 447 c 128,-1,51
 484 447 484 447 503.5 448.5 c 128,-1,52
 523 450 523 450 539 454 c 0,53,54
 579 465 579 465 603 493 c 0,55,56
 630 524 630 524 632 573 c 0,57,58
 634 598 634 598 632 622.5 c 128,-1,59
 630 647 630 647 627 665 c 128,-1,60
 624 683 624 683 624 689 c 0,61,62
 624 699 624 699 627 704 c 0,63,64
 632 712 632 712 651 723 c 0,65,66
 687 743 687 743 805 771 c 0,67,68
 936 802 936 802 991 831 c 0,69,70
 1013 843 1013 843 1030 856.5 c 128,-1,71
 1047 870 1047 870 1055 878.5 c 128,-1,72
 1063 887 1063 887 1077.5 905.5 c 128,-1,73
 1092 924 1092 924 1100 933 c 1,74,-1
 1087 729 l 1,75,76
 1081 708 1081 708 1054 672 c 0,77,78
 992 588 992 588 870 515 c 0,79,80
 658 388 658 388 658 42 c 0,81,82
 659 25 659 25 672 12.5 c 128,-1,83
 685 0 685 0 702 0 c 2,84,-1
 1106 0 l 1,85,-1
 1110 0 l 1,86,-1
 1298 0 l 1,87,-1
 1968 0 l 1,88,-1
 1968 341 l 1,89,-1
 1792 516 l 1,90,-1
 1792 639 l 1,91,-1
 1586 869 l 1,92,-1
 1591 1398 l 1,93,-1
 1823 1553 l 1,94,-1
 1823 2048 l 1,95,-1
 1483 2048 l 1,96,-1
 1483 1842 l 1,97,-1
 1271 1842 l 1,98,-1
 1271 2048 l 1,99,-1
 1226 2048 l 1,100,-1
 1190 2048 l 1,101,-1
 1106 2048 l 1,0,-1
1570 1961 m 1,102,-1
 1735 1961 l 1,103,-1
 1735 1618 l 1,104,-1
 1276 1618 l 1,105,-1
 1106 1618 l 1,106,-1
 1106 1530 l 1,107,-1
 1276 1530 l 1,108,-1
 1631 1530 l 1,109,-1
 1504 1446 l 1,110,-1
 1476 1446 l 1,111,-1
 1106 1446 l 1,112,-1
 1106 1358 l 1,113,-1
 1476 1358 l 1,114,-1
 1503 1358 l 1,115,-1
 1499 897 l 1,116,-1
 1475 897 l 1,117,-1
 1110 897 l 1,118,-1
 1110 1059 l 1,119,120
 1095 1039 1095 1039 1076 1016.5 c 128,-1,121
 1057 994 1057 994 1019.5 959.5 c 128,-1,122
 982 925 982 925 950 909 c 0,123,124
 905 885 905 885 784 856 c 0,125,126
 781 855 781 855 766 851.5 c 128,-1,127
 751 848 751 848 746.5 847 c 128,-1,128
 742 846 742 846 728.5 842.5 c 128,-1,129
 715 839 715 839 709.5 837.5 c 128,-1,130
 704 836 704 836 692 833 c 128,-1,131
 680 830 680 830 674 827.5 c 128,-1,132
 668 825 668 825 657.5 821.5 c 128,-1,133
 647 818 647 818 640 815 c 128,-1,134
 633 812 633 812 624.5 808 c 128,-1,135
 616 804 616 804 608 799 c 0,136,137
 569 777 569 777 552 749 c 0,138,139
 536 723 536 723 537 687 c 0,140,141
 537 672 537 672 541.5 636.5 c 128,-1,142
 546 601 546 601 545 578 c 0,143,144
 544 558 544 558 537 550 c 0,145,146
 531 543 531 543 517 539 c 0,147,148
 500 535 500 535 429 538 c 1,149,150
 442 588 442 588 472 657 c 0,151,152
 479 674 479 674 473 690 c 128,-1,153
 467 706 467 706 451 713.5 c 128,-1,154
 435 721 435 721 418.5 716 c 128,-1,155
 402 711 402 711 393 695 c 0,156,157
 373 656 373 656 353.5 630.5 c 128,-1,158
 334 605 334 605 322.5 596.5 c 128,-1,159
 311 588 311 588 302 586 c 0,160,161
 288 583 288 583 263 602 c 0,162,163
 168 668 168 668 168 808 c 0,164,165
 168 818 168 818 180 850.5 c 128,-1,166
 192 883 192 883 211 918 c 0,167,168
 248 988 248 988 313 1086 c 0,169,170
 346 1136 346 1136 384 1189 c 128,-1,171
 422 1242 422 1242 443 1269 c 2,172,-1
 464 1297 l 2,173,174
 471 1307 471 1307 472 1320 c 2,175,-1
 487 1474 l 1,176,-1
 667 1737 l 2,177,178
 677 1751 677 1751 674 1769 c 2,179,-1
 667 1808 l 1,180,-1
 730 1730 l 2,181,182
 744 1712 744 1712 766 1713 c 2,183,-1
 901 1720 l 2,184,185
 916 1721 916 1721 927.5 1731 c 128,-1,186
 939 1741 939 1741 942 1756 c 2,187,-1
 968 1888 l 1,188,189
 973 1882 973 1882 991.5 1862.5 c 128,-1,190
 1010 1843 1010 1843 1018.5 1833 c 128,-1,191
 1027 1823 1027 1823 1041 1804.5 c 128,-1,192
 1055 1786 1055 1786 1065.5 1767 c 128,-1,193
 1076 1748 1076 1748 1085 1725 c 0,194,195
 1093 1706 1093 1706 1108 1705 c 0,196,197
 1133 1705 1133 1705 1184 1755 c 1,198,-1
 1570 1755 l 1,199,-1
 1570 1961 l 1,102,-1
711 1411 m 2,200,201
 685 1411 685 1411 643.5 1390.5 c 128,-1,202
 602 1370 602 1370 580 1342 c 0,203,204
 576 1336 576 1336 573 1322 c 128,-1,205
 570 1308 570 1308 569 1296 c 2,206,-1
 569 1285 l 2,207,208
 567 1265 567 1265 580 1263 c 0,209,210
 585 1262 585 1262 589.5 1266.5 c 128,-1,211
 594 1271 594 1271 600.5 1279.5 c 128,-1,212
 607 1288 607 1288 615 1293 c 256,213,214
 623 1298 623 1298 652.5 1297 c 128,-1,215
 682 1296 682 1296 690 1306 c 0,216,217
 701 1317 701 1317 701 1333 c 128,-1,218
 701 1349 701 1349 705 1371 c 0,219,220
 707 1377 707 1377 713 1383.5 c 128,-1,221
 719 1390 719 1390 723.5 1393 c 128,-1,222
 728 1396 728 1396 729.5 1400.5 c 128,-1,223
 731 1405 731 1405 724 1409 c 0,224,225
 721 1411 721 1411 714 1411 c 2,226,-1
 711 1411 l 2,200,201
288 840 m 0,227,228
 277 840 277 840 256.5 813.5 c 128,-1,229
 236 787 236 787 233 771 c 0,230,231
 226 730 226 730 244 711 c 0,232,233
 261 694 261 694 281 697 c 0,234,235
 291 698 291 698 302 706 c 128,-1,236
 313 714 313 714 316 722 c 0,237,238
 319 729 319 729 318.5 741.5 c 128,-1,239
 318 754 318 754 313 760 c 0,240,241
 310 763 310 763 297 763.5 c 128,-1,242
 284 764 284 764 279 772 c 0,243,244
 276 777 276 777 280.5 787.5 c 128,-1,245
 285 798 285 798 290.5 808 c 128,-1,246
 296 818 296 818 297.5 828 c 128,-1,247
 299 838 299 838 290 840 c 0,248,249
 289 841 289 841 288 840 c 0,227,228
1110 809 m 1,250,-1
 1475 809 l 1,251,-1
 1523 809 l 1,252,-1
 1677 637 l 1,253,-1
 1286 637 l 1,254,-1
 1110 637 l 1,255,-1
 1110 809 l 1,250,-1
1106 596 m 1,256,-1
 1106 549 l 1,257,-1
 1286 549 l 1,258,-1
 1704 549 l 1,259,-1
 1704 480 l 1,260,-1
 1869 316 l 1,261,-1
 1281 316 l 1,262,-1
 1106 316 l 1,263,-1
 1106 228 l 1,264,-1
 1281 228 l 1,265,-1
 1880 228 l 1,266,-1
 1880 88 l 1,267,-1
 1298 88 l 1,268,-1
 1110 88 l 1,269,-1
 1106 88 l 1,270,-1
 751 88 l 1,271,272
 751 109 751 109 752.5 129 c 128,-1,273
 754 149 754 149 759 184.5 c 128,-1,274
 764 220 764 220 775.5 252.5 c 128,-1,275
 787 285 787 285 804 320 c 128,-1,276
 821 355 821 355 850 386.5 c 128,-1,277
 879 418 879 418 915 440 c 0,278,279
 1035 512 1035 512 1106 596 c 1,280,-1
 1106 596 l 1,256,-1
EndSplineSet
Ligature2: "'liga' Ligature standard lookup 0-1" w underscore t
EndChar

StartChar: w_a
Encoding: 65546 -1 11
Width: 2048
GlyphClass: 3
Flags: W
LayerCount: 2
Fore
SplineSet
848 2026 m 0,0,1
 833 2026 833 2026 821.5 2016 c 128,-1,2
 810 2006 810 2006 808 1992 c 2,3,-1
 769 1798 l 1,4,-1
 692 1794 l 1,5,-1
 541 1982 l 2,6,7
 531 1994 531 1994 517 1997.5 c 128,-1,8
 503 2001 503 2001 489.5 1995 c 128,-1,9
 476 1989 476 1989 469 1976 c 128,-1,10
 462 1963 462 1963 465 1948 c 2,11,-1
 496 1764 l 1,12,-1
 322 1510 l 2,13,14
 316 1501 316 1501 315 1490 c 2,15,-1
 301 1339 l 1,16,17
 228 1245 228 1245 157 1138 c 0,18,19
 91 1038 91 1038 52 965 c 0,20,21
 34 932 34 932 24.5 911.5 c 128,-1,22
 15 891 15 891 7.5 865 c 128,-1,23
 0 839 0 839 0 817 c 0,24,25
 0 725 0 725 35.5 655 c 128,-1,26
 71 585 71 585 129 543 c 0,27,28
 186 503 186 503 237 515 c 0,29,30
 239 515 239 515 243 520.5 c 128,-1,31
 247 526 247 526 249 527 c 2,32,33
 249 527 249 527 249 526 c 0,34,35
 250 505 250 505 260 491 c 0,36,37
 270 476 270 476 289 469 c 0,38,39
 299 466 299 466 326 465 c 0,40,41
 329 465 329 465 352.5 463.5 c 128,-1,42
 376 462 376 462 386.5 462 c 128,-1,43
 397 462 397 462 416 463.5 c 128,-1,44
 435 465 435 465 451 469 c 0,45,46
 490 479 490 479 514 507 c 0,47,48
 540 537 540 537 543 586 c 0,49,50
 544 610 544 610 542 634 c 128,-1,51
 540 658 540 658 537.5 676 c 128,-1,52
 535 694 535 694 534 700 c 0,53,54
 534 709 534 709 537 714 c 0,55,56
 542 723 542 723 561 733 c 0,57,58
 596 753 596 753 712 780 c 0,59,60
 841 811 841 811 895 839 c 0,61,62
 917 851 917 851 931.5 861.5 c 128,-1,63
 946 872 946 872 952 879 c 128,-1,64
 958 886 958 886 968.5 900.5 c 128,-1,65
 979 915 979 915 988 926 c 1,66,-1
 980 739 l 1,67,68
 980 739 980 739 980.5 737.5 c 128,-1,69
 981 736 981 736 981 734 c 128,-1,70
 981 732 981 732 980.5 728.5 c 128,-1,71
 980 725 980 725 978.5 720.5 c 128,-1,72
 977 716 977 716 974.5 710.5 c 128,-1,73
 972 705 972 705 967.5 697.5 c 128,-1,74
 963 690 963 690 957 682 c 0,75,76
 896 600 896 600 777 529 c 0,77,78
 730 500 730 500 693 458.5 c 128,-1,79
 656 417 656 417 634.5 376 c 128,-1,80
 613 335 613 335 598 287 c 128,-1,81
 583 239 583 239 577.5 203.5 c 128,-1,82
 572 168 572 168 569.5 131 c 128,-1,83
 567 94 567 94 567.5 82 c 128,-1,84
 568 70 568 70 568 63 c 0,85,86
 569 46 569 46 581.5 34 c 128,-1,87
 594 22 594 22 611 22 c 2,88,-1
 1022 22 l 1,89,90
 1025 30 1025 30 1029.5 43 c 128,-1,91
 1034 56 1034 56 1037 64.5 c 128,-1,92
 1040 73 1040 73 1045 83.5 c 128,-1,93
 1050 94 1050 94 1056 100 c 128,-1,94
 1062 106 1062 106 1069.5 110.5 c 128,-1,95
 1077 115 1077 115 1087.5 115 c 128,-1,96
 1098 115 1098 115 1112 110 c 0,97,98
 1161 76 1161 76 1252 53 c 1,99,-1
 1253 53 l 1,100,-1
 1254 53 l 1,101,102
 1312 39 1312 39 1378.5 41 c 128,-1,103
 1445 43 1445 43 1491 51 c 128,-1,104
 1537 59 1537 59 1597 66.5 c 128,-1,105
 1657 74 1657 74 1702 73 c 0,106,107
 1721 72 1721 72 1729 69 c 0,108,109
 1730 67 1730 67 1733.5 62 c 128,-1,110
 1737 57 1737 57 1747 48 c 128,-1,111
 1757 39 1757 39 1769 34 c 2,112,-1
 1777 31 l 1,113,-1
 1786 31 l 2,114,115
 1806 31 1806 31 1881.5 32 c 128,-1,116
 1957 33 1957 33 2005 33 c 2,117,-1
 2048 33 l 1,118,-1
 2048 76 l 2,119,120
 2048 137 2048 137 2018 192 c 0,121,122
 1983 258 1983 258 1938 290 c 0,123,124
 1869 340 1869 340 1750 343 c 0,125,126
 1705 345 1705 345 1583 331 c 128,-1,127
 1461 317 1461 317 1401 318 c 0,128,129
 1307 320 1307 320 1261 347 c 0,130,131
 1254 351 1254 351 1248.5 359 c 128,-1,132
 1243 367 1243 367 1241 372.5 c 128,-1,133
 1239 378 1239 378 1235.5 390.5 c 128,-1,134
 1232 403 1232 403 1231 407 c 1,135,136
 1348 428 1348 428 1398 492 c 2,137,-1
 1408 504 l 1,138,-1
 1408 784 l 1,139,140
 1430 798 1430 798 1452 815.5 c 128,-1,141
 1474 833 1474 833 1502 862.5 c 128,-1,142
 1530 892 1530 892 1550.5 934.5 c 128,-1,143
 1571 977 1571 977 1577 1025 c 0,144,145
 1588 1111 1588 1111 1566.5 1189 c 128,-1,146
 1545 1267 1545 1267 1484 1345 c 0,147,148
 1430 1416 1430 1416 1336.5 1500 c 128,-1,149
 1243 1584 1243 1584 1092 1703 c 1,150,151
 1132 1724 1132 1724 1156.5 1764 c 128,-1,152
 1181 1804 1181 1804 1181 1851 c 0,153,154
 1181 1919 1181 1919 1130 1968.5 c 128,-1,155
 1079 2018 1079 2018 1009 2018 c 2,156,-1
 1008 2018 l 1,157,-1
 1008 1932 l 1,158,-1
 1009 1932 l 2,159,160
 1044 1932 1044 1932 1069.5 1908 c 128,-1,161
 1095 1884 1095 1884 1095 1851 c 256,162,163
 1095 1818 1095 1818 1070.5 1794.5 c 128,-1,164
 1046 1771 1046 1771 1013 1769 c 1,165,-1
 1013 1842 l 1,166,167
 986 1884 986 1884 952.5 1927.5 c 128,-1,168
 919 1971 919 1971 899 1993 c 2,169,-1
 880 2014 l 2,170,171
 866 2027 866 2027 848 2026 c 0,0,1
873 1878 m 1,172,173
 878 1873 878 1873 896 1854 c 128,-1,174
 914 1835 914 1835 922 1825 c 128,-1,175
 930 1815 930 1815 944 1797 c 128,-1,176
 958 1779 958 1779 968.5 1760 c 128,-1,177
 979 1741 979 1741 987 1719 c 0,178,179
 994 1704 994 1704 1008 1696 c 1,180,-1
 1008 1655 l 1,181,-1
 1008 1655 l 1,182,183
 1173 1526 1173 1526 1269.5 1441.5 c 128,-1,184
 1366 1357 1366 1357 1416 1293 c 0,185,186
 1470 1224 1470 1224 1485.5 1167 c 128,-1,187
 1501 1110 1501 1110 1491 1036 c 0,188,189
 1487 1003 1487 1003 1471.5 972.5 c 128,-1,190
 1456 942 1456 942 1439.5 922.5 c 128,-1,191
 1423 903 1423 903 1402 886 c 128,-1,192
 1381 869 1381 869 1371 863 c 128,-1,193
 1361 857 1361 857 1353 853 c 1,194,195
 1217 911 1217 911 1013 916 c 1,196,-1
 1013 1022 l 1,197,-1
 1041 1022 l 1,198,-1
 1041 1168 l 1,199,-1
 1187 1168 l 1,200,-1
 1187 1225 l 1,201,-1
 1041 1225 l 1,202,-1
 1041 1371 l 1,203,-1
 1008 1371 l 1,204,-1
 1008 1057 l 1,205,206
 927 953 927 953 855 916 c 0,207,208
 811 892 811 892 692 864 c 0,209,210
 689 863 689 863 674 859.5 c 128,-1,211
 659 856 659 856 655 855 c 128,-1,212
 651 854 651 854 637.5 851 c 128,-1,213
 624 848 624 848 618.5 846.5 c 128,-1,214
 613 845 613 845 601.5 841.5 c 128,-1,215
 590 838 590 838 583.5 835.5 c 128,-1,216
 577 833 577 833 567 829.5 c 128,-1,217
 557 826 557 826 550 823 c 128,-1,218
 543 820 543 820 535 816 c 128,-1,219
 527 812 527 812 519 808 c 0,220,221
 481 787 481 787 464 759 c 0,222,223
 448 733 448 733 448 697 c 0,224,225
 449 683 449 683 453.5 648 c 128,-1,226
 458 613 458 613 457 590 c 0,227,228
 456 571 456 571 448 563 c 0,229,230
 443 556 443 556 429 552 c 0,231,232
 413 548 413 548 343 551 c 1,233,234
 355 600 355 600 385 669 c 0,235,236
 392 685 392 685 386 701 c 128,-1,237
 380 717 380 717 364.5 724 c 128,-1,238
 349 731 349 731 332.5 726 c 128,-1,239
 316 721 316 721 308 706 c 0,240,241
 288 667 288 667 268.5 642 c 128,-1,242
 249 617 249 617 238 609 c 128,-1,243
 227 601 227 601 218 599 c 0,244,245
 204 596 204 596 179 614 c 0,246,247
 86 679 86 679 86 817 c 0,248,249
 86 826 86 826 97.5 858 c 128,-1,250
 109 890 109 890 128 925 c 0,251,252
 164 994 164 994 229 1090 c 0,253,254
 261 1139 261 1139 298 1191 c 128,-1,255
 335 1243 335 1243 356 1270 c 2,256,-1
 377 1298 l 2,257,258
 384 1307 384 1307 385 1320 c 2,259,-1
 400 1471 l 1,260,-1
 576 1730 l 2,261,262
 586 1744 586 1744 583 1762 c 2,263,-1
 577 1800 l 1,264,-1
 639 1723 l 2,265,266
 653 1706 653 1706 675 1707 c 2,267,-1
 807 1714 l 2,268,269
 822 1715 822 1715 833.5 1724.5 c 128,-1,270
 845 1734 845 1734 847 1749 c 2,271,-1
 873 1878 l 1,172,173
620 1410 m 2,272,273
 595 1410 595 1410 554 1389.5 c 128,-1,274
 513 1369 513 1369 492 1342 c 0,275,276
 487 1336 487 1336 484 1322 c 128,-1,277
 481 1308 481 1308 481 1297 c 2,278,-1
 480 1286 l 2,279,280
 479 1266 479 1266 491 1264 c 0,281,282
 496 1263 496 1263 500.5 1267.5 c 128,-1,283
 505 1272 505 1272 511.5 1280.5 c 128,-1,284
 518 1289 518 1289 525 1293 c 0,285,286
 534 1299 534 1299 563 1298 c 128,-1,287
 592 1297 592 1297 600 1307 c 0,288,289
 610 1318 610 1318 610 1333.5 c 128,-1,290
 610 1349 610 1349 614 1371 c 0,291,292
 616 1377 616 1377 622 1383 c 128,-1,293
 628 1389 628 1389 632.5 1392 c 128,-1,294
 637 1395 637 1395 638.5 1399.5 c 128,-1,295
 640 1404 640 1404 633 1408 c 0,296,297
 629 1410 629 1410 623 1410 c 2,298,-1
 620 1410 l 2,272,273
204 849 m 0,299,300
 193 848 193 848 173 822 c 128,-1,301
 153 796 153 796 150 780 c 0,302,303
 143 740 143 740 161 722 c 0,304,305
 178 704 178 704 197 707 c 0,306,307
 207 709 207 709 218 716.5 c 128,-1,308
 229 724 229 724 232 732 c 0,309,310
 235 739 235 739 234 751.5 c 128,-1,311
 233 764 233 764 228 769 c 0,312,313
 226 772 226 772 213 772.5 c 128,-1,314
 200 773 200 773 195 781 c 0,315,316
 193 786 193 786 197 796.5 c 128,-1,317
 201 807 201 807 206.5 817 c 128,-1,318
 212 827 212 827 213.5 836.5 c 128,-1,319
 215 846 215 846 207 848 c 0,320,321
 205 849 205 849 204 849 c 0,299,300
1013 830 m 1,322,323
 1211 825 1211 825 1321 781 c 1,324,-1
 1321 723 l 1,325,-1
 1284 685 l 1,326,-1
 1321 648 l 1,327,-1
 1321 560 l 1,328,329
 1158 596 1158 596 1008 598 c 1,330,-1
 1008 540 l 1,331,332
 1140 539 1140 539 1281 510 c 1,333,334
 1248 492 1248 492 1206 486 c 0,335,336
 1160 479 1160 479 1042 479 c 2,337,-1
 1027 479 l 1,338,-1
 1008 479 l 1,339,340
 1008 418 1008 418 1008 296 c 128,-1,341
 1008 174 1008 174 1008 170 c 2,342,-1
 975 109 l 1,343,-1
 659 109 l 1,344,345
 660 129 660 129 661.5 148.5 c 128,-1,346
 663 168 663 168 668 203 c 128,-1,347
 673 238 673 238 684 270 c 128,-1,348
 695 302 695 302 711.5 337 c 128,-1,349
 728 372 728 372 756.5 402.5 c 128,-1,350
 785 433 785 433 821 455 c 0,351,352
 943 528 943 528 1013 614 c 1,353,-1
 1013 677 l 1,354,-1
 1024 677 l 1,355,-1
 1024 700 l 1,356,-1
 1076 700 l 1,357,-1
 1076 744 l 1,358,-1
 1024 744 l 1,359,-1
 1024 767 l 1,360,-1
 1013 767 l 1,361,-1
 1013 830 l 1,322,323
1150 398 m 1,362,363
 1158 366 1158 366 1164.5 347 c 128,-1,364
 1171 328 1171 328 1184.5 306 c 128,-1,365
 1198 284 1198 284 1217 273 c 0,366,367
 1282 234 1282 234 1399 232 c 0,368,369
 1472 231 1472 231 1596 244.5 c 128,-1,370
 1720 258 1720 258 1747 257 c 0,371,372
 1840 254 1840 254 1888 221 c 0,373,374
 1916 200 1916 200 1942 151 c 0,375,376
 1946 145 1946 145 1948 133 c 128,-1,377
 1950 121 1950 121 1951 118 c 1,378,379
 1932 118 1932 118 1876 117.5 c 128,-1,380
 1820 117 1820 117 1800 117 c 1,381,382
 1800 118 1800 118 1792 127 c 0,383,384
 1779 143 1779 143 1757 150 c 0,385,386
 1737 157 1737 157 1706 159 c 2,387,-1
 1705 159 l 2,388,389
 1652 161 1652 161 1589 153.5 c 128,-1,390
 1526 146 1526 146 1482.5 138.5 c 128,-1,391
 1439 131 1439 131 1379 128.5 c 128,-1,392
 1319 126 1319 126 1272 137 c 0,393,394
 1222 149 1222 149 1189 164 c 128,-1,395
 1156 179 1156 179 1132 205 c 0,396,397
 1094 247 1094 247 1081 395 c 1,398,399
 1093 395 1093 395 1150 398 c 1,400,-1
 1150 398 l 1,362,363
EndSplineSet
Ligature2: "'liga' Ligature standard lookup 0-1" w underscore a
EndChar

StartChar: b_q
Encoding: 65547 -1 12
Width: 2048
GlyphClass: 3
Flags: W
LayerCount: 2
Fore
SplineSet
1024 1990 m 2,0,1
 977 1990 977 1990 943 1956.5 c 128,-1,2
 909 1923 909 1923 909 1875 c 0,3,4
 909 1839 909 1839 929.5 1810 c 128,-1,5
 950 1781 950 1781 983 1768 c 1,6,-1
 984 1764 l 1,7,-1
 866 1227 l 1,8,-1
 625 1721 l 1,9,10
 671 1756 671 1756 671 1812 c 0,11,12
 671 1859 671 1859 637 1893 c 128,-1,13
 603 1927 603 1927 555.5 1927 c 128,-1,14
 508 1927 508 1927 474 1893 c 128,-1,15
 440 1859 440 1859 440 1812 c 0,16,17
 440 1769 440 1769 468 1737 c 128,-1,18
 496 1705 496 1705 538 1698 c 1,19,-1
 571 1152 l 1,20,-1
 203 1551 l 1,21,22
 231 1584 231 1584 231 1625 c 0,23,24
 231 1672 231 1672 197 1706 c 128,-1,25
 163 1740 163 1740 115.5 1740 c 128,-1,26
 68 1740 68 1740 34 1706 c 128,-1,27
 0 1672 0 1672 0 1624.5 c 128,-1,28
 0 1577 0 1577 34 1543.5 c 128,-1,29
 68 1510 68 1510 116 1510 c 0,30,31
 118 1510 118 1510 122 1510.5 c 128,-1,32
 126 1511 126 1511 126 1511 c 1,33,-1
 430 756 l 1,34,35
 421 745 421 745 416 736 c 0,36,37
 403 715 403 715 400 692 c 0,38,39
 399 686 399 686 399 678 c 2,40,-1
 398 675 l 1,41,-1
 398 674 l 1,42,-1
 398 671 l 1,43,-1
 398 671 l 1,44,-1
 398 670 l 1,45,-1
 398 318 l 2,46,47
 398 316 398 316 398 315 c 2,48,49
 398 315 398 315 398 314 c 0,50,51
 398 308 398 308 398 308 c 1,52,-1
 398 307 l 1,53,-1
 398 306 l 2,54,55
 398 294 398 294 401 280 c 0,56,57
 401 279 401 279 400 279 c 1,58,59
 405 259 405 259 414 244 c 0,60,61
 422 230 422 230 432 218 c 0,62,63
 437 213 437 213 444 206 c 0,64,65
 450 200 450 200 456 195 c 0,66,67
 591 97 591 97 844 68 c 0,68,69
 902 62 902 62 962 60 c 0,70,71
 991 58 991 58 1023 58 c 0,72,73
 1053 58 1053 58 1083 60 c 2,74,-1
 1084 60 l 2,75,76
 1113 61 1113 61 1142 63 c 0,77,78
 1154 63 1154 63 1181 66 c 0,79,80
 1183 66 1183 66 1189.5 66.5 c 128,-1,81
 1196 67 1196 67 1200 68 c 0,82,83
 1214 69 1214 69 1240 73 c 0,84,85
 1241 73 1241 73 1246 73.5 c 128,-1,86
 1251 74 1251 74 1253 75 c 0,87,88
 1263 76 1263 76 1288 80 c 0,89,90
 1289 80 1289 80 1296 81.5 c 128,-1,91
 1303 83 1303 83 1307 83 c 0,92,93
 1317 85 1317 85 1341 91 c 0,94,95
 1342 91 1342 91 1347.5 92 c 128,-1,96
 1353 93 1353 93 1355 94 c 0,97,98
 1369 97 1369 97 1389 102 c 0,99,100
 1390 103 1390 103 1395 104 c 128,-1,101
 1400 105 1400 105 1402 106 c 0,102,103
 1413 109 1413 109 1431 115 c 0,104,105
 1489 132 1489 132 1546 164 c 2,106,107
 1546 164 1546 164 1550 166.5 c 128,-1,108
 1554 169 1554 169 1556 170 c 0,109,110
 1564 175 1564 175 1576 184 c 0,111,112
 1577 184 1577 184 1579 185.5 c 128,-1,113
 1581 187 1581 187 1583 188 c 0,114,115
 1583 189 1583 189 1583.5 189.5 c 128,-1,116
 1584 190 1584 190 1585 190 c 1,117,118
 1585 191 1585 191 1587.5 192.5 c 128,-1,119
 1590 194 1590 194 1591 195 c 0,120,121
 1613 213 1613 213 1627 235 c 0,122,123
 1632 241 1632 241 1635 248 c 0,124,125
 1647 270 1647 270 1650 293 c 0,126,127
 1650 294 1650 294 1650 294 c 1,128,-1
 1651 302 l 1,129,-1
 1651 303 l 1,130,-1
 1651 304 l 1,131,-1
 1651 306 l 1,132,-1
 1651 308 l 1,133,-1
 1651 309 l 1,134,-1
 1651 310 l 1,135,-1
 1651 662 l 2,136,137
 1651 664 1651 664 1651 665 c 128,-1,138
 1651 666 1651 666 1651 668.5 c 128,-1,139
 1651 671 1651 671 1651 672 c 2,140,-1
 1651 674 l 2,141,142
 1651 677 1651 677 1649 701 c 0,143,144
 1645 719 1645 719 1637 732 c 0,145,146
 1634 739 1634 739 1629 745 c 0,147,148
 1625 751 1625 751 1620 758 c 1,149,-1
 1923 1511 l 2,150,151
 1924 1511 1924 1511 1927.5 1510.5 c 128,-1,152
 1931 1510 1931 1510 1933 1510 c 0,153,154
 1981 1510 1981 1510 2014.5 1543.5 c 128,-1,155
 2048 1577 2048 1577 2048.5 1624.5 c 128,-1,156
 2049 1672 2049 1672 2015 1706 c 128,-1,157
 1981 1740 1981 1740 1933.5 1740 c 128,-1,158
 1886 1740 1886 1740 1852 1706 c 128,-1,159
 1818 1672 1818 1672 1818 1625 c 0,160,161
 1818 1584 1818 1584 1846 1551 c 1,162,-1
 1478 1152 l 1,163,-1
 1511 1698 l 1,164,165
 1553 1705 1553 1705 1581 1737 c 128,-1,166
 1609 1769 1609 1769 1609 1812 c 0,167,168
 1609 1859 1609 1859 1575 1893 c 128,-1,169
 1541 1927 1541 1927 1493.5 1927 c 128,-1,170
 1446 1927 1446 1927 1412 1893 c 128,-1,171
 1378 1859 1378 1859 1378 1812 c 0,172,173
 1378 1756 1378 1756 1424 1721 c 1,174,-1
 1183 1227 l 1,175,-1
 1065 1764 l 1,176,-1
 1066 1768 l 1,177,178
 1099 1781 1099 1781 1119.5 1810 c 128,-1,179
 1140 1839 1140 1839 1140 1875 c 0,180,181
 1140 1923 1140 1923 1106 1956.5 c 128,-1,182
 1072 1990 1072 1990 1025 1990 c 2,183,-1
 1024 1990 l 2,0,1
1024.5 1920 m 128,-1,185
 1043 1920 1043 1920 1056 1907 c 128,-1,186
 1069 1894 1069 1894 1069 1875 c 128,-1,187
 1069 1856 1069 1856 1056 1843.5 c 128,-1,188
 1043 1831 1043 1831 1024.5 1831 c 128,-1,189
 1006 1831 1006 1831 993 1843.5 c 128,-1,190
 980 1856 980 1856 980 1875 c 128,-1,191
 980 1894 980 1894 993 1907 c 128,-1,184
 1006 1920 1006 1920 1024.5 1920 c 128,-1,185
555.5 1856 m 128,-1,193
 574 1856 574 1856 587 1843 c 128,-1,194
 600 1830 600 1830 600 1811.5 c 128,-1,195
 600 1793 600 1793 587 1780 c 128,-1,196
 574 1767 574 1767 555.5 1767 c 128,-1,197
 537 1767 537 1767 524 1780 c 128,-1,198
 511 1793 511 1793 511 1811.5 c 128,-1,199
 511 1830 511 1830 524 1843 c 128,-1,192
 537 1856 537 1856 555.5 1856 c 128,-1,193
1493.5 1856 m 128,-1,201
 1512 1856 1512 1856 1525 1843 c 128,-1,202
 1538 1830 1538 1830 1538 1811.5 c 128,-1,203
 1538 1793 1538 1793 1525 1780 c 128,-1,204
 1512 1767 1512 1767 1493.5 1767 c 128,-1,205
 1475 1767 1475 1767 1462 1780 c 128,-1,206
 1449 1793 1449 1793 1449 1811.5 c 128,-1,207
 1449 1830 1449 1830 1462 1843 c 128,-1,200
 1475 1856 1475 1856 1493.5 1856 c 128,-1,201
115.5 1669 m 128,-1,209
 134 1669 134 1669 147 1656 c 128,-1,210
 160 1643 160 1643 160 1624.5 c 128,-1,211
 160 1606 160 1606 147 1593 c 128,-1,212
 134 1580 134 1580 115.5 1580 c 128,-1,213
 97 1580 97 1580 84 1593 c 128,-1,214
 71 1606 71 1606 71 1624.5 c 128,-1,215
 71 1643 71 1643 84 1656 c 128,-1,208
 97 1669 97 1669 115.5 1669 c 128,-1,209
1933.5 1669 m 128,-1,217
 1952 1669 1952 1669 1965 1656 c 128,-1,218
 1978 1643 1978 1643 1978 1624.5 c 128,-1,219
 1978 1606 1978 1606 1965 1593 c 128,-1,220
 1952 1580 1952 1580 1933.5 1580 c 128,-1,221
 1915 1580 1915 1580 1902 1593 c 128,-1,222
 1889 1606 1889 1606 1889 1624.5 c 128,-1,223
 1889 1643 1889 1643 1902 1656 c 128,-1,216
 1915 1669 1915 1669 1933.5 1669 c 128,-1,217
1002 957 m 128,-1,225
 1218 962 1218 962 1431 885 c 0,226,227
 1557 839 1557 839 1572 821 c 0,228,229
 1579 813 1579 813 1576 801 c 0,230,231
 1572 785 1572 785 1555.5 786.5 c 128,-1,232
 1539 788 1539 788 1490 809 c 0,233,234
 1325 880 1325 880 1154 902 c 0,235,236
 1102 909 1102 909 1015 908 c 128,-1,237
 928 907 928 907 870 898 c 0,238,239
 710 874 710 874 550 805 c 0,240,241
 511 789 511 789 498 786 c 128,-1,242
 485 783 485 783 478 790 c 256,243,244
 471 797 471 797 472.5 810 c 128,-1,245
 474 823 474 823 483 829 c 0,246,247
 494 836 494 836 565 864 c 0,248,224
 786 952 786 952 1002 957 c 128,-1,225
1030 780 m 0,249,250
 1054 779 1054 779 1079 767 c 0,251,252
 1173 719 1173 719 1187 703 c 0,253,254
 1194 695 1194 695 1185.5 686 c 128,-1,255
 1177 677 1177 677 1144 659 c 0,256,257
 1141 657 1141 657 1135 654 c 0,258,259
 1102 636 1102 636 1088.5 628.5 c 128,-1,260
 1075 621 1075 621 1055 613.5 c 128,-1,261
 1035 606 1035 606 1029 605.5 c 128,-1,262
 1023 605 1023 605 1007 608.5 c 128,-1,263
 991 612 991 612 981.5 617 c 128,-1,264
 972 622 972 622 949 634 c 0,265,266
 945 636 945 636 943 637 c 0,267,268
 889 666 889 666 873.5 676.5 c 128,-1,269
 858 687 858 687 858 695.5 c 128,-1,270
 858 704 858 704 874 714.5 c 128,-1,271
 890 725 890 725 943 754 c 0,272,273
 990 783 990 783 1030 780 c 0,249,250
1557 625 m 128,-1,275
 1564 625 1564 625 1566 613 c 128,-1,276
 1568 601 1568 601 1568 567 c 0,277,278
 1568 512 1568 512 1554 512 c 0,279,280
 1551 512 1551 512 1523.5 545 c 128,-1,281
 1496 578 1496 578 1494 583 c 0,282,283
 1493 586 1493 586 1521.5 605.5 c 128,-1,274
 1550 625 1550 625 1557 625 c 128,-1,275
480 623 m 0,284,285
 485 625 485 625 513 609.5 c 128,-1,286
 541 594 541 594 546 587 c 0,287,288
 548 584 548 584 519.5 548 c 128,-1,289
 491 512 491 512 487 512 c 0,290,291
 484 512 484 512 478 518 c 256,292,293
 472 524 472 524 472.5 572 c 128,-1,294
 473 620 473 620 480 623 c 0,284,285
1002 515 m 1,295,296
 1218 520 1218 520 1431 443 c 0,297,298
 1557 397 1557 397 1572 379 c 0,299,300
 1579 371 1579 371 1576 359 c 0,301,302
 1572 343 1572 343 1555.5 345 c 128,-1,303
 1539 347 1539 347 1490 368 c 0,304,305
 1326 438 1326 438 1155 461 c 0,306,307
 1102 468 1102 468 1015.5 466.5 c 128,-1,308
 929 465 929 465 870 456 c 0,309,310
 710 432 710 432 550 364 c 0,311,312
 511 347 511 347 498 344 c 128,-1,313
 485 341 485 341 478 348 c 0,314,315
 471 356 471 356 473 368.5 c 128,-1,316
 475 381 475 381 484 387 c 0,317,318
 495 394 495 394 566 423 c 0,319,320
 786 510 786 510 1002 515 c 1,321,-1
 1002 515 l 1,295,296
EndSplineSet
Ligature2: "'liga' Ligature standard lookup 0-1" b underscore q
EndChar

StartChar: b_k
Encoding: 65548 -1 13
Width: 2048
GlyphClass: 3
Flags: W
LayerCount: 2
Fore
SplineSet
777 2048 m 1,0,-1
 777 2004 l 1,1,-1
 777 1565 l 1,2,-1
 884 1565 l 1,3,4
 876 1559 876 1559 874 1558 c 0,5,6
 871 1555 871 1555 866 1552 c 0,7,8
 809 1508 809 1508 758 1436 c 1,9,10
 742 1449 742 1449 726 1463 c 0,11,12
 662 1514 662 1514 581.5 1541 c 128,-1,13
 501 1568 501 1568 416 1569 c 0,14,15
 330 1570 330 1570 251.5 1542 c 128,-1,16
 173 1514 173 1514 117 1457 c 0,17,18
 50 1388 50 1388 30.5 1300.5 c 128,-1,19
 11 1213 11 1213 27 1124 c 0,20,21
 40 1049 40 1049 70 986 c 128,-1,22
 100 923 100 923 134 885 c 0,23,24
 199 814 199 814 357 687 c 1,25,26
 353 671 353 671 353 659 c 2,27,-1
 353 658 l 1,28,-1
 353 657 l 2,29,30
 354 655 354 655 354 652.5 c 128,-1,31
 354 650 354 650 354 650 c 2,32,33
 354 649 354 649 353.5 648 c 128,-1,34
 353 647 353 647 353 646 c 2,35,-1
 353 270 l 1,36,-1
 353 269 l 1,37,-1
 353 269 l 1,38,-1
 353 268 l 1,39,-1
 353 265 l 1,40,-1
 353 264 l 1,41,-1
 354 261 l 2,42,43
 355 251 355 251 356 246 c 0,44,45
 360 222 360 222 373 199 c 0,46,47
 381 184 381 184 393 171 c 0,48,49
 398 165 398 165 405 158 c 0,50,51
 411 152 411 152 418 146 c 0,52,53
 472 101 472 101 566 68 c 0,54,55
 681 27 681 27 833 11 c 0,56,57
 894 4 894 4 959 2 c 0,58,59
 990 0 990 0 1024 0 c 0,60,61
 1055 0 1055 0 1088 2 c 2,62,63
 1088 2 1088 2 1089 2 c 0,64,65
 1120 3 1120 3 1151 5 c 0,66,67
 1164 6 1164 6 1193 9 c 0,68,69
 1195 9 1195 9 1202 9.5 c 128,-1,70
 1209 10 1209 10 1213 10 c 0,71,72
 1228 12 1228 12 1256 16 c 0,73,74
 1257 16 1257 16 1262 16.5 c 128,-1,75
 1267 17 1267 17 1270 18 c 0,76,77
 1281 19 1281 19 1307 24 c 0,78,79
 1309 24 1309 24 1316 25.5 c 128,-1,80
 1323 27 1323 27 1327 27 c 0,81,82
 1339 30 1339 30 1364 35 c 0,83,84
 1366 35 1366 35 1371 36.5 c 128,-1,85
 1376 38 1376 38 1379 38 c 0,86,87
 1394 42 1394 42 1416 48 c 0,88,89
 1417 48 1417 48 1422 49 c 128,-1,90
 1427 50 1427 50 1429 51 c 0,91,92
 1440 54 1440 54 1460 61 c 0,93,94
 1462 61 1462 61 1466.5 62.5 c 128,-1,95
 1471 64 1471 64 1474 65 c 2,96,97
 1474 65 1474 65 1475 65.5 c 128,-1,98
 1476 66 1476 66 1477 66 c 256,99,100
 1478 66 1478 66 1480 67 c 128,-1,101
 1482 68 1482 68 1483 68 c 256,102,103
 1484 68 1484 68 1504 76 c 0,104,105
 1518 81 1518 81 1519 82 c 0,106,107
 1529 86 1529 86 1546 94 c 0,108,109
 1557 99 1557 99 1558 100 c 0,110,111
 1568 105 1568 105 1583 114 c 2,112,113
 1583 114 1583 114 1587 116 c 128,-1,114
 1591 118 1591 118 1593 120 c 0,115,116
 1602 125 1602 125 1615 134 c 0,117,118
 1616 135 1616 135 1618.5 136.5 c 128,-1,119
 1621 138 1621 138 1622 139 c 0,120,121
 1622 140 1622 140 1623 140.5 c 128,-1,122
 1624 141 1624 141 1624 141 c 2,123,124
 1625 142 1625 142 1627.5 143.5 c 128,-1,125
 1630 145 1630 145 1631 146 c 0,126,127
 1654 166 1654 166 1670 189 c 0,128,129
 1675 196 1675 196 1679 203 c 0,130,131
 1691 227 1691 227 1694 251 c 0,132,133
 1694 252 1694 252 1694 252 c 1,134,-1
 1695 261 l 1,135,-1
 1695 262 l 1,136,-1
 1696 263 l 1,137,-1
 1696 265 l 1,138,-1
 1696 267 l 1,139,-1
 1695 268 l 1,140,-1
 1696 269 l 1,141,142
 1696 269 1696 269 1696 270 c 2,143,-1
 1696 646 l 2,144,145
 1696 647 1696 647 1695.5 648 c 128,-1,146
 1695 649 1695 649 1695 650 c 256,147,148
 1695 651 1695 651 1695 652.5 c 128,-1,149
 1695 654 1695 654 1695 655 c 2,150,-1
 1696 657 l 1,151,-1
 1696 659 l 2,152,153
 1696 672 1696 672 1692 687 c 1,154,155
 1850 814 1850 814 1915 885 c 0,156,157
 1949 923 1949 923 1978.5 986.5 c 128,-1,158
 2008 1050 2008 1050 2022 1124 c 0,159,160
 2038 1214 2038 1214 2018.5 1301 c 128,-1,161
 1999 1388 1999 1388 1931 1457 c 0,162,163
 1875 1514 1875 1514 1797 1542 c 128,-1,164
 1719 1570 1719 1570 1633 1569 c 0,165,166
 1548 1569 1548 1569 1467.5 1541.5 c 128,-1,167
 1387 1514 1387 1514 1323 1463 c 0,168,169
 1306 1449 1306 1449 1291 1436 c 1,170,171
 1240 1508 1240 1508 1183 1552 c 0,172,173
 1178 1555 1178 1555 1174 1558 c 0,174,175
 1173 1559 1173 1559 1165 1565 c 1,176,-1
 1271 1565 l 1,177,-1
 1271 2048 l 1,178,-1
 777 2048 l 1,0,-1
919 1933 m 1,179,-1
 1003 1849 l 1,180,-1
 1024 1858 l 1,181,-1
 1046 1849 l 1,182,-1
 1130 1933 l 1,183,-1
 1150 1913 l 1,184,-1
 1066 1829 l 1,185,-1
 1074 1808 l 1,186,-1
 1066 1787 l 1,187,-1
 1150 1702 l 1,188,-1
 1130 1682 l 1,189,-1
 1046 1767 l 1,190,-1
 1024 1758 l 1,191,-1
 1003 1767 l 1,192,-1
 919 1682 l 1,193,-1
 899 1702 l 1,194,-1
 983 1787 l 1,195,-1
 975 1808 l 1,196,-1
 983 1829 l 1,197,-1
 899 1913 l 1,198,-1
 919 1933 l 1,179,-1
1024.5 1526 m 128,-1,200
 1036 1526 1036 1526 1049 1523 c 0,201,202
 1051 1523 1051 1523 1054.5 1522 c 128,-1,203
 1058 1521 1058 1521 1059 1521 c 0,204,205
 1069 1518 1069 1518 1074 1516 c 0,206,207
 1076 1516 1076 1516 1086.5 1511 c 128,-1,208
 1097 1506 1097 1506 1100 1504 c 2,209,210
 1100 1504 1100 1504 1111 1498 c 0,211,212
 1122 1490 1122 1490 1129 1485 c 0,213,214
 1130 1485 1130 1485 1131.5 1483.5 c 128,-1,215
 1133 1482 1133 1482 1134 1481 c 0,216,217
 1181 1444 1181 1444 1226 1375 c 1,218,219
 1079 1225 1079 1225 1029 1062 c 0,220,221
 1028 1059 1028 1059 1026.5 1053.5 c 128,-1,222
 1025 1048 1025 1048 1024 1047 c 1,223,224
 1024 1048 1024 1048 1022.5 1053.5 c 128,-1,225
 1021 1059 1021 1059 1020 1062 c 0,226,227
 970 1225 970 1225 822 1375 c 1,228,229
 868 1444 868 1444 915 1481 c 0,230,231
 916 1482 916 1482 917.5 1483.5 c 128,-1,232
 919 1485 919 1485 920 1485 c 0,233,234
 927 1490 927 1490 938 1498 c 0,235,236
 948 1504 948 1504 949 1504 c 0,237,238
 952 1506 952 1506 963 1511 c 0,239,240
 973 1516 973 1516 975 1516 c 0,241,242
 980 1518 980 1518 990 1521 c 0,243,244
 991 1521 991 1521 994.5 1522 c 128,-1,245
 998 1523 998 1523 1000 1523 c 0,246,199
 1013 1526 1013 1526 1024.5 1526 c 128,-1,200
416 1484 m 0,247,248
 485 1483 485 1483 553 1460 c 128,-1,249
 621 1437 621 1437 672 1396 c 0,250,251
 880 1229 880 1229 939 1037 c 0,252,253
 958 975 958 975 958 922 c 1,254,255
 731 914 731 914 566 856 c 0,256,257
 472 823 472 823 418 778 c 0,258,259
 410 771 410 771 401 762 c 1,260,261
 252 883 252 883 197 943 c 0,262,263
 176 967 176 967 149 1023 c 128,-1,264
 122 1079 122 1079 111 1139 c 0,265,266
 82 1298 82 1298 179 1397 c 0,267,268
 221 1440 221 1440 283 1462.5 c 128,-1,269
 345 1485 345 1485 416 1484 c 0,247,248
1633 1484 m 0,270,271
 1704 1485 1704 1485 1766 1462.5 c 128,-1,272
 1828 1440 1828 1440 1870 1397 c 0,273,274
 1967 1298 1967 1298 1938 1139 c 0,275,276
 1927 1079 1927 1079 1900 1022.5 c 128,-1,277
 1873 966 1873 966 1852 943 c 0,278,279
 1797 883 1797 883 1648 762 c 1,280,281
 1639 771 1639 771 1631 778 c 0,282,283
 1577 823 1577 823 1483 856 c 0,284,285
 1318 914 1318 914 1091 922 c 1,286,287
 1091 975 1091 975 1110 1037 c 0,288,289
 1169 1229 1169 1229 1377 1396 c 0,290,291
 1428 1437 1428 1437 1495.5 1460 c 128,-1,292
 1563 1483 1563 1483 1633 1484 c 0,270,271
1027 1462 m 0,293,294
 986 1464 986 1464 944 1420 c 0,295,296
 941 1417 941 1417 935 1411 c 0,297,298
 914 1388 914 1388 913 1382 c 128,-1,299
 912 1376 912 1376 926 1360 c 0,300,301
 930 1355 930 1355 932 1353 c 0,302,303
 955 1325 955 1325 972 1300 c 0,304,305
 985 1281 985 1281 1003 1245 c 128,-1,306
 1021 1209 1021 1209 1021 1202 c 0,307,308
 1021 1194 1021 1194 1026 1207 c 0,309,310
 1029 1213 1029 1213 1036 1229 c 0,311,312
 1047 1256 1047 1256 1070 1291.5 c 128,-1,313
 1093 1327 1093 1327 1115 1352 c 0,314,315
 1136 1376 1136 1376 1136 1379 c 0,316,317
 1136 1385 1136 1385 1114 1409 c 128,-1,318
 1092 1433 1092 1433 1077 1443 c 0,319,320
 1051 1461 1051 1461 1027 1462 c 0,293,294
413 1410 m 0,321,322
 372 1410 372 1410 346.5 1404.5 c 128,-1,323
 321 1399 321 1399 288 1383 c 0,324,325
 259 1369 259 1369 235 1346 c 0,326,327
 197 1308 197 1308 183 1266 c 0,328,329
 151 1165 151 1165 212 1041 c 0,330,331
 230 1003 230 1003 259 971.5 c 128,-1,332
 288 940 288 940 363 877 c 2,333,-1
 407 841 l 1,334,-1
 417 851 l 1,335,336
 468 896 468 896 574.5 927 c 128,-1,337
 681 958 681 958 822 967 c 2,338,-1
 849 969 l 1,339,-1
 846 991 l 2,340,341
 841 1051 841 1051 808 1120 c 0,342,343
 756 1227 756 1227 651 1318 c 0,344,345
 613 1350 613 1350 585.5 1366.5 c 128,-1,346
 558 1383 558 1383 522 1395 c 0,347,348
 474 1411 474 1411 413 1410 c 0,321,322
1636 1410 m 0,349,350
 1575 1411 1575 1411 1526 1395 c 0,351,352
 1491 1383 1491 1383 1463.5 1366.5 c 128,-1,353
 1436 1350 1436 1350 1398 1318 c 0,354,355
 1293 1227 1293 1227 1241 1120 c 0,356,357
 1208 1051 1208 1051 1203 991 c 2,358,-1
 1200 969 l 1,359,-1
 1227 967 l 2,360,361
 1368 958 1368 958 1474.5 927 c 128,-1,362
 1581 896 1581 896 1632 851 c 1,363,-1
 1642 841 l 1,364,-1
 1685 877 l 2,365,366
 1761 940 1761 940 1790 971.5 c 128,-1,367
 1819 1003 1819 1003 1837 1041 c 0,368,369
 1898 1165 1898 1165 1865 1266 c 0,370,371
 1852 1308 1852 1308 1814 1346 c 0,372,373
 1790 1369 1790 1369 1761 1383 c 0,374,375
 1728 1399 1728 1399 1702.5 1404.5 c 128,-1,376
 1677 1410 1677 1410 1636 1410 c 0,349,350
1024 785 m 0,377,378
 1038 785 1038 785 1058 776.5 c 128,-1,379
 1078 768 1078 768 1125 742 c 0,380,381
 1191 706 1191 706 1197 700 c 0,382,383
 1207 692 1207 692 1205.5 682 c 128,-1,384
 1204 672 1204 672 1192 664 c 0,385,386
 1172 652 1172 652 1114 621 c 128,-1,387
 1056 590 1056 590 1050 589 c 0,388,389
 1040 586 1040 586 1022.5 586 c 128,-1,390
 1005 586 1005 586 996 589 c 0,391,392
 985 593 985 593 919.5 629.5 c 128,-1,393
 854 666 854 666 849 671 c 0,394,395
 843 677 843 677 843 685 c 128,-1,396
 843 693 843 693 850 699 c 0,397,398
 858 707 858 707 924.5 742.5 c 128,-1,399
 991 778 991 778 1002 781 c 0,400,401
 1015 784 1015 784 1024 785 c 0,377,378
448 612 m 0,402,403
 453 612 453 612 456 609 c 2,404,-1
 510 576 l 2,405,406
 516 573 516 573 516.5 566 c 128,-1,407
 517 559 517 559 512 554 c 2,408,-1
 458 491 l 2,409,410
 451 485 451 485 442.5 489 c 128,-1,411
 434 493 434 493 434 502 c 2,412,-1
 434 597 l 2,413,414
 434 603 434 603 438 607 c 128,-1,415
 442 611 442 611 448 612 c 0,402,403
1593 612 m 0,416,417
 1599 611 1599 611 1603 607 c 128,-1,418
 1607 603 1607 603 1607 597 c 2,419,-1
 1607 502 l 2,420,421
 1607 493 1607 493 1598.5 489 c 128,-1,422
 1590 485 1590 485 1583 491 c 2,423,-1
 1530 554 l 2,424,425
 1524 559 1524 559 1525 566 c 128,-1,426
 1526 573 1526 573 1531 576 c 2,427,-1
 1585 609 l 2,428,429
 1589 612 1589 612 1593 612 c 0,416,417
1012 495 m 1,430,431
 1309 499 1309 499 1602 358 c 0,432,433
 1617 351 1617 351 1618.5 335 c 128,-1,434
 1620 319 1620 319 1607 309 c 0,435,436
 1593 299 1593 299 1578 307 c 0,437,438
 1387 399 1387 399 1197 426.5 c 128,-1,439
 1007 454 1007 454 830 423 c 128,-1,440
 653 392 653 392 471 307 c 0,441,442
 456 300 456 300 442.5 309.5 c 128,-1,443
 429 319 429 319 430.5 335.5 c 128,-1,444
 432 352 432 352 447 358 c 0,445,446
 731 491 731 491 1012 495 c 1,447,-1
 1012 495 l 1,430,431
EndSplineSet
Ligature2: "'liga' Ligature standard lookup 0-1" b underscore k
EndChar

StartChar: b_r
Encoding: 65549 -1 14
Width: 2048
GlyphClass: 3
Flags: W
LayerCount: 2
Fore
SplineSet
863 2048 m 1,0,-1
 863 1842 l 1,1,-1
 652 1842 l 1,2,-1
 652 2048 l 1,3,-1
 311 2048 l 1,4,-1
 311 1553 l 1,5,-1
 544 1398 l 1,6,-1
 549 869 l 1,7,-1
 342 639 l 1,8,-1
 342 516 l 1,9,-1
 167 341 l 1,10,-1
 167 0 l 1,11,-1
 837 0 l 1,12,-1
 1212 0 l 1,13,-1
 1881 0 l 1,14,-1
 1881 341 l 1,15,-1
 1706 516 l 1,16,-1
 1706 639 l 1,17,-1
 1500 869 l 1,18,-1
 1504 1398 l 1,19,-1
 1737 1553 l 1,20,-1
 1737 2048 l 1,21,-1
 1397 2048 l 1,22,-1
 1397 1842 l 1,23,-1
 1185 1842 l 1,24,-1
 1185 2048 l 1,25,-1
 1139 2048 l 1,26,-1
 909 2048 l 1,27,-1
 863 2048 l 1,0,-1
393 1715 m 1,28,-1
 1655 1715 l 1,29,-1
 1655 1562 l 1,30,-1
 393 1562 l 1,31,-1
 393 1715 l 1,28,-1
589 794 m 1,32,-1
 906 794 l 1,33,-1
 1142 794 l 1,34,-1
 1459 794 l 1,35,-1
 1616 643 l 1,36,-1
 1142 643 l 1,37,-1
 906 643 l 1,38,-1
 433 643 l 1,39,-1
 589 794 l 1,32,-1
417 475 m 1,40,-1
 734 475 l 1,41,-1
 1314 475 l 1,42,-1
 1631 475 l 1,43,-1
 1788 324 l 1,44,-1
 1314 324 l 1,45,-1
 734 324 l 1,46,-1
 260 324 l 1,47,-1
 417 475 l 1,48,-1
 417 475 l 1,40,-1
EndSplineSet
Ligature2: "'liga' Ligature standard lookup 0-1" b underscore r
EndChar

StartChar: b_b
Encoding: 65550 -1 15
Width: 2048
GlyphClass: 3
Flags: W
LayerCount: 2
Fore
SplineSet
1025 2007 m 128,-1,1
 957 2007 957 2007 908 1958.5 c 128,-1,2
 859 1910 859 1910 859 1842 c 0,3,4
 859 1795 859 1795 883 1756 c 128,-1,5
 907 1717 907 1717 947 1696 c 1,6,7
 797 1578 797 1578 704.5 1495 c 128,-1,8
 612 1412 612 1412 558 1342 c 0,9,10
 498 1264 498 1264 476.5 1187 c 128,-1,11
 455 1110 455 1110 466 1024 c 0,12,13
 472 977 472 977 492 935.5 c 128,-1,14
 512 894 512 894 539.5 864.5 c 128,-1,15
 567 835 567 835 589 817.5 c 128,-1,16
 611 800 611 800 634 786 c 1,17,-1
 634 509 l 1,18,-1
 643 498 l 2,19,20
 693 434 693 434 809 413 c 1,21,22
 807 409 807 409 803.5 397 c 128,-1,23
 800 385 800 385 798 379 c 128,-1,24
 796 373 796 373 791 365.5 c 128,-1,25
 786 358 786 358 779 354 c 0,26,27
 734 327 734 327 641 326 c 0,28,29
 581 325 581 325 460 338.5 c 128,-1,30
 339 352 339 352 295 350 c 0,31,32
 178 347 178 347 109 298 c 0,33,34
 65 266 65 266 29 200 c 0,35,36
 0 146 0 146 0 86 c 2,37,-1
 0 43 l 1,38,-1
 43 43 l 2,39,40
 90 43 90 43 165 42 c 128,-1,41
 240 41 240 41 260 41 c 2,42,-1
 268 41 l 1,43,-1
 276 45 l 2,44,45
 303 56 303 56 317 79 c 1,46,47
 325 82 325 82 342 83 c 0,48,49
 386 84 386 84 445.5 76.5 c 128,-1,50
 505 69 505 69 550.5 61 c 128,-1,51
 596 53 596 53 662 51.5 c 128,-1,52
 728 50 728 50 786 63 c 1,53,-1
 787 63 l 1,54,55
 846 78 846 78 890 98 c 128,-1,56
 934 118 934 118 969 157 c 0,57,58
 1003 194 1003 194 1024 251 c 1,59,60
 1045 194 1045 194 1079 157 c 0,61,62
 1114 118 1114 118 1158 98 c 128,-1,63
 1202 78 1202 78 1261 63 c 1,64,-1
 1262 63 l 1,65,66
 1319 50 1319 50 1385.5 51.5 c 128,-1,67
 1452 53 1452 53 1497.5 61 c 128,-1,68
 1543 69 1543 69 1602.5 76.5 c 128,-1,69
 1662 84 1662 84 1706 83 c 0,70,71
 1725 82 1725 82 1732 79 c 0,72,73
 1733 77 1733 77 1736.5 72 c 128,-1,74
 1740 67 1740 67 1750 58.5 c 128,-1,75
 1760 50 1760 50 1772 45 c 2,76,-1
 1780 41 l 1,77,-1
 1789 41 l 2,78,79
 1809 41 1809 41 1883.5 42 c 128,-1,80
 1958 43 1958 43 2005 43 c 2,81,-1
 2048 43 l 1,82,-1
 2048 86 l 2,83,84
 2048 146 2048 146 2019 200 c 0,85,86
 1983 266 1983 266 1939 298 c 0,87,88
 1871 347 1871 347 1753 350 c 0,89,90
 1709 352 1709 352 1588 338.5 c 128,-1,91
 1467 325 1467 325 1408 326 c 0,92,93
 1314 327 1314 327 1269 354 c 0,94,95
 1262 358 1262 358 1257 365.5 c 128,-1,96
 1252 373 1252 373 1250 378.5 c 128,-1,97
 1248 384 1248 384 1244.5 397 c 128,-1,98
 1241 410 1241 410 1239 413 c 1,99,100
 1355 434 1355 434 1405 498 c 2,101,-1
 1414 509 l 1,102,-1
 1414 786 l 1,103,104
 1437 800 1437 800 1459 817.5 c 128,-1,105
 1481 835 1481 835 1508.5 864.5 c 128,-1,106
 1536 894 1536 894 1556 935.5 c 128,-1,107
 1576 977 1576 977 1582 1024 c 0,108,109
 1593 1110 1593 1110 1572 1187 c 128,-1,110
 1551 1264 1551 1264 1491 1342 c 0,111,112
 1437 1411 1437 1411 1344.5 1494.5 c 128,-1,113
 1252 1578 1252 1578 1102 1695 c 1,114,115
 1142 1716 1142 1716 1166.5 1755.5 c 128,-1,116
 1191 1795 1191 1795 1191 1842 c 0,117,118
 1191 1910 1191 1910 1142 1958.5 c 128,-1,0
 1093 2007 1093 2007 1025 2007 c 128,-1,1
1025 1922 m 128,-1,120
 1059 1922 1059 1922 1082 1898.5 c 128,-1,121
 1105 1875 1105 1875 1105 1841.5 c 128,-1,122
 1105 1808 1105 1808 1082 1784.5 c 128,-1,123
 1059 1761 1059 1761 1025 1761 c 128,-1,124
 991 1761 991 1761 967.5 1784.5 c 128,-1,125
 944 1808 944 1808 944 1841.5 c 128,-1,126
 944 1875 944 1875 967.5 1898.5 c 128,-1,119
 991 1922 991 1922 1025 1922 c 128,-1,120
996 1367 m 1,127,-1
 1052 1367 l 1,128,-1
 1052 1223 l 1,129,-1
 1196 1223 l 1,130,-1
 1196 1166 l 1,131,-1
 1052 1166 l 1,132,-1
 1052 1022 l 1,133,-1
 996 1022 l 1,134,-1
 996 1166 l 1,135,-1
 851 1166 l 1,136,-1
 851 1223 l 1,137,-1
 996 1223 l 1,138,-1
 996 1367 l 1,127,-1
1010 900 m 0,139,140
 1166 903 1166 903 1319 857 c 0,141,142
 1337 852 1337 852 1340 836 c 128,-1,143
 1343 820 1343 820 1331.5 808 c 128,-1,144
 1320 796 1320 796 1303 802 c 0,145,146
 1204 832 1204 832 1105 840 c 128,-1,147
 1006 848 1006 848 921 838 c 128,-1,148
 836 828 836 828 744 802 c 0,149,150
 727 797 727 797 716 809 c 128,-1,151
 705 821 705 821 708.5 836.5 c 128,-1,152
 712 852 712 852 729 857 c 0,153,154
 875 898 875 898 1010 900 c 0,139,140
1013 770 m 1,155,-1
 1035 770 l 1,156,-1
 1035 747 l 1,157,-1
 1086 747 l 1,158,-1
 1086 703 l 1,159,-1
 1035 703 l 1,160,-1
 1035 680 l 1,161,-1
 1013 680 l 1,162,-1
 1013 703 l 1,163,-1
 962 703 l 1,164,-1
 962 747 l 1,165,-1
 1013 747 l 1,166,-1
 1013 770 l 1,155,-1
709 715 m 1,167,-1
 743 683 l 1,168,-1
 709 640 l 1,169,-1
 709 715 l 1,167,-1
1341 715 m 1,170,-1
 1341 640 l 1,171,-1
 1307 683 l 1,172,-1
 1341 715 l 1,170,-1
1010 604 m 1,173,174
 1166 607 1166 607 1319 561 c 0,175,176
 1337 556 1337 556 1340 540 c 128,-1,177
 1343 524 1343 524 1331.5 512 c 128,-1,178
 1320 500 1320 500 1303 506 c 0,179,180
 1204 536 1204 536 1105 544 c 128,-1,181
 1006 552 1006 552 921 542 c 128,-1,182
 836 532 836 532 744 506 c 0,183,184
 727 501 727 501 716 513 c 128,-1,185
 705 525 705 525 708 540.5 c 128,-1,186
 711 556 711 556 729 561 c 0,187,188
 875 602 875 602 1010 604 c 1,189,-1
 1010 604 l 1,173,174
EndSplineSet
Ligature2: "'liga' Ligature standard lookup 0-1" b underscore b
EndChar

StartChar: b_n
Encoding: 65551 -1 16
Width: 2048
GlyphClass: 3
Flags: W
LayerCount: 2
Fore
SplineSet
858 2037 m 0,0,1
 842 2037 842 2037 830.5 2027 c 128,-1,2
 819 2017 819 2017 816 2002 c 2,3,-1
 778 1807 l 1,4,-1
 700 1802 l 1,5,-1
 547 1993 l 2,6,7
 531 2008 531 2008 512.5 2009 c 128,-1,8
 494 2010 494 2010 480 1994.5 c 128,-1,9
 466 1979 466 1979 470 1958 c 2,10,-1
 501 1772 l 1,11,-1
 326 1516 l 2,12,13
 319 1506 319 1506 318 1495 c 2,14,-1
 304 1343 l 1,15,16
 231 1247 231 1247 159 1139 c 0,17,18
 92 1038 92 1038 52 964 c 0,19,20
 26 914 26 914 13 880.5 c 128,-1,21
 0 847 0 847 0 814 c 0,22,23
 0 721 0 721 35.5 650.5 c 128,-1,24
 71 580 71 580 131 538 c 0,25,26
 188 497 188 497 240 509 c 0,27,28
 242 510 242 510 246 515.5 c 128,-1,29
 250 521 250 521 252 522 c 2,30,31
 252 522 252 522 251.5 521 c 128,-1,32
 251 520 251 520 251 520 c 1,33,34
 253 500 253 500 263 485 c 256,35,36
 273 470 273 470 292 463 c 0,37,38
 302 460 302 460 329 459 c 0,39,40
 333 459 333 459 356.5 457.5 c 128,-1,41
 380 456 380 456 390.5 456 c 128,-1,42
 401 456 401 456 420.5 457.5 c 128,-1,43
 440 459 440 459 456 463 c 0,44,45
 496 473 496 473 520 501 c 0,46,47
 546 532 546 532 549 581 c 0,48,49
 550 606 550 606 548 630 c 128,-1,50
 546 654 546 654 543 672 c 128,-1,51
 540 690 540 690 540 696 c 0,52,53
 540 706 540 706 543 711 c 0,54,55
 548 719 548 719 568 730 c 0,56,57
 603 750 603 750 720 778 c 0,58,59
 851 809 851 809 905 837 c 0,60,61
 927 849 927 849 944 862.5 c 128,-1,62
 961 876 961 876 969 884.5 c 128,-1,63
 977 893 977 893 991.5 911.5 c 128,-1,64
 1006 930 1006 930 1014 939 c 1,65,-1
 1001 736 l 1,66,67
 995 715 995 715 968 679 c 0,68,69
 906 596 906 596 785 523 c 0,70,71
 575 397 575 397 575 53 c 0,72,73
 576 35 576 35 588.5 23.5 c 128,-1,74
 601 12 601 12 618 12 c 2,75,-1
 2003 12 l 2,76,77
 2021 11 2021 11 2033.5 24 c 128,-1,78
 2046 37 2046 37 2046 55 c 0,79,80
 2050 192 2050 192 2047.5 344 c 128,-1,81
 2045 496 2045 496 2036.5 632 c 128,-1,82
 2028 768 2028 768 2001.5 909 c 128,-1,83
 1975 1050 1975 1050 1930 1167 c 0,84,85
 1723 1710 1723 1710 1063 1781 c 1,86,87
 1035 1838 1035 1838 991.5 1899 c 128,-1,88
 948 1960 948 1960 919 1992 c 2,89,-1
 889 2025 l 2,90,91
 876 2038 876 2038 858 2037 c 0,0,1
1159 1655 m 0,92,93
 1218 1657 1218 1657 1288.5 1634 c 128,-1,94
 1359 1611 1359 1611 1422.5 1573.5 c 128,-1,95
 1486 1536 1486 1536 1540.5 1494.5 c 128,-1,96
 1595 1453 1595 1453 1631 1414 c 0,97,98
 1715 1323 1715 1323 1768.5 1226 c 128,-1,99
 1822 1129 1822 1129 1845 1048 c 0,100,101
 1887 903 1887 903 1904 781 c 0,102,103
 1912 719 1912 719 1920 609 c 128,-1,104
 1928 499 1928 499 1930 439 c 0,105,106
 1932 363 1932 363 1932 109 c 1,107,-1
 1758 108 l 1,108,109
 1758 143 1758 143 1759.5 195 c 128,-1,110
 1761 247 1761 247 1762.5 385 c 128,-1,111
 1764 523 1764 523 1761 570 c 0,112,113
 1757 698 1757 698 1747.5 786.5 c 128,-1,114
 1738 875 1738 875 1711 973 c 0,115,116
 1704 1001 1704 1001 1692.5 1046.5 c 128,-1,117
 1681 1092 1681 1092 1676.5 1108 c 128,-1,118
 1672 1124 1672 1124 1662.5 1152 c 128,-1,119
 1653 1180 1653 1180 1642 1201.5 c 128,-1,120
 1631 1223 1631 1223 1614 1250 c 0,121,122
 1598 1276 1598 1276 1581 1307.5 c 128,-1,123
 1564 1339 1564 1339 1555 1354 c 128,-1,124
 1546 1369 1546 1369 1527.5 1391.5 c 128,-1,125
 1509 1414 1509 1414 1481 1438 c 0,126,127
 1413 1497 1413 1497 1362 1528 c 128,-1,128
 1311 1559 1311 1559 1237 1580 c 0,129,130
 1085 1624 1085 1624 1085 1640 c 0,131,132
 1084 1652 1084 1652 1159 1655 c 0,92,93
630 1414 m 0,133,134
 636 1414 636 1414 640 1412 c 0,135,136
 647 1408 647 1408 645 1403.5 c 128,-1,137
 643 1399 643 1399 639 1396 c 128,-1,138
 635 1393 635 1393 629 1386.5 c 128,-1,139
 623 1380 623 1380 621 1374 c 0,140,141
 617 1361 617 1361 617 1348 c 128,-1,142
 617 1335 617 1335 616 1327 c 128,-1,143
 615 1319 615 1319 606 1310 c 0,144,145
 596 1300 596 1300 569 1300.5 c 128,-1,146
 542 1301 542 1301 531 1296 c 0,147,148
 523 1291 523 1291 516.5 1283 c 128,-1,149
 510 1275 510 1275 505.5 1270.5 c 128,-1,150
 501 1266 501 1266 496 1267 c 128,-1,151
 491 1268 491 1268 488 1273.5 c 128,-1,152
 485 1279 485 1279 485 1284 c 2,153,-1
 485 1289 l 2,154,155
 487 1332 487 1332 497 1345 c 0,156,157
 519 1374 519 1374 562.5 1394.5 c 128,-1,158
 606 1415 606 1415 630 1414 c 0,133,134
209 846 m 1,159,160
 217 844 217 844 215.5 834 c 128,-1,161
 214 824 214 824 208.5 814.5 c 128,-1,162
 203 805 203 805 199 794 c 128,-1,163
 195 783 195 783 198 779 c 0,164,165
 202 770 202 770 215 769.5 c 128,-1,166
 228 769 228 769 231 766 c 0,167,168
 236 761 236 761 237 748.5 c 128,-1,169
 238 736 238 736 235 729 c 0,170,171
 231 721 231 721 220 713 c 128,-1,172
 209 705 209 705 199 704 c 0,173,174
 180 700 180 700 163 718 c 0,175,176
 145 737 145 737 152 777 c 0,177,178
 155 795 155 795 177 823 c 128,-1,179
 199 851 199 851 209 846 c 1,180,-1
 209 846 l 1,159,160
EndSplineSet
Ligature2: "'liga' Ligature standard lookup 0-1" b underscore n
EndChar

StartChar: b_p
Encoding: 65552 -1 17
Width: 2048
GlyphClass: 3
Flags: W
LayerCount: 2
Fore
SplineSet
1024 2048 m 1,0,1
 901 2048 901 2048 813.5 1960 c 128,-1,2
 726 1872 726 1872 726 1748 c 0,3,4
 726 1687 726 1687 750 1631 c 128,-1,5
 774 1575 774 1575 818 1533 c 1,6,7
 708 1494 708 1494 630.5 1419 c 128,-1,8
 553 1344 553 1344 524 1250 c 1,9,-1
 875 1250 l 1,10,11
 875 1121 875 1121 857.5 1020.5 c 128,-1,12
 840 920 840 920 808.5 847 c 128,-1,13
 777 774 777 774 744 717.5 c 128,-1,14
 711 661 711 661 668.5 586 c 128,-1,15
 626 511 626 511 599 440 c 1,16,17
 459 427 459 427 364 330.5 c 128,-1,18
 269 234 269 234 269 103 c 2,19,-1
 269 0 l 1,20,-1
 868 0 l 1,21,-1
 1180 0 l 1,22,-1
 1779 0 l 1,23,24
 1779 68 1779 68 1780 103 c 0,25,26
 1780 234 1780 234 1684.5 330.5 c 128,-1,27
 1589 427 1589 427 1450 440 c 1,28,29
 1422 511 1422 511 1380 586 c 128,-1,30
 1338 661 1338 661 1305 717.5 c 128,-1,31
 1272 774 1272 774 1240.5 847 c 128,-1,32
 1209 920 1209 920 1191.5 1020.5 c 128,-1,33
 1174 1121 1174 1121 1174 1250 c 1,34,-1
 1524 1250 l 1,35,36
 1496 1344 1496 1344 1418.5 1418.5 c 128,-1,37
 1341 1493 1341 1493 1231 1533 c 1,38,39
 1275 1575 1275 1575 1298.5 1631 c 128,-1,40
 1322 1687 1322 1687 1322 1748 c 0,41,42
 1322 1872 1322 1872 1235 1960 c 128,-1,43
 1148 2048 1148 2048 1024 2048 c 1,44,-1
 1024 2048 l 1,0,1
EndSplineSet
Ligature2: "'liga' Ligature standard lookup 0-1" b underscore p
EndChar

StartChar: b_e
Encoding: 65553 -1 18
Width: 2048
GlyphClass: 3
Flags: W
LayerCount: 2
Fore
SplineSet
980 2013 m 1,0,-1
 980 1939 l 1,1,2
 1000 1939 1000 1939 1013 1925.5 c 128,-1,3
 1026 1912 1026 1912 1026 1892.5 c 128,-1,4
 1026 1873 1026 1873 1013 1859.5 c 128,-1,5
 1000 1846 1000 1846 980 1846 c 1,6,-1
 980 1795 l 1,7,8
 954 1837 954 1837 922 1878.5 c 128,-1,9
 890 1920 890 1920 870 1941 c 2,10,-1
 851 1962 l 2,11,12
 838 1975 838 1975 821 1974 c 0,13,14
 806 1973 806 1973 795 1964 c 128,-1,15
 784 1955 784 1955 781 1940 c 2,16,-1
 744 1753 l 1,17,-1
 670 1749 l 1,18,-1
 523 1931 l 2,19,20
 508 1946 508 1946 490.5 1947 c 128,-1,21
 473 1948 473 1948 459.5 1933 c 128,-1,22
 446 1918 446 1918 450 1898 c 2,23,-1
 480 1721 l 1,24,-1
 312 1475 l 2,25,26
 306 1466 306 1466 305 1455 c 2,27,-1
 291 1310 l 1,28,29
 221 1218 221 1218 152 1114 c 0,30,31
 88 1018 88 1018 51 948 c 0,32,33
 25 899 25 899 12.5 867 c 128,-1,34
 0 835 0 835 0 804 c 0,35,36
 0 715 0 715 34.5 647.5 c 128,-1,37
 69 580 69 580 126 540 c 0,38,39
 181 501 181 501 230 512 c 0,40,41
 232 513 232 513 235.5 518 c 128,-1,42
 239 523 239 523 241 524 c 2,43,44
 241 524 241 524 241 523 c 0,45,46
 242 503 242 503 252 489 c 0,47,48
 262 474 262 474 280 468 c 0,49,50
 290 465 290 465 315 464 c 0,51,52
 319 464 319 464 341.5 462.5 c 128,-1,53
 364 461 364 461 374 461 c 128,-1,54
 384 461 384 461 402.5 462.5 c 128,-1,55
 421 464 421 464 436 468 c 0,56,57
 475 478 475 478 498 504 c 0,58,59
 523 534 523 534 525 581 c 0,60,61
 527 604 527 604 525 627.5 c 128,-1,62
 523 651 523 651 520 668 c 128,-1,63
 517 685 517 685 517 691 c 0,64,65
 517 700 517 700 520 705 c 0,66,67
 525 713 525 713 543 723 c 0,68,69
 577 742 577 742 689 769 c 0,70,71
 814 799 814 799 866 826 c 0,72,73
 887 837 887 837 903.5 850 c 128,-1,74
 920 863 920 863 927.5 871.5 c 128,-1,75
 935 880 935 880 949 897.5 c 128,-1,76
 963 915 963 915 970 923 c 1,77,-1
 958 729 l 1,78,79
 952 709 952 709 926 674 c 0,80,81
 867 595 867 595 752 525 c 0,82,83
 550 404 550 404 550 76 c 0,84,85
 551 59 551 59 563 47.5 c 128,-1,86
 575 36 575 36 592 36 c 2,87,-1
 1076 42 l 2,88,89
 1094 42 1094 42 1135 40 c 0,90,91
 1193 40 1193 40 1251.5 39.5 c 128,-1,92
 1310 39 1310 39 1385.5 56 c 128,-1,93
 1461 73 1461 73 1524 107 c 0,94,95
 1524 108 1524 108 1528 110 c 128,-1,96
 1532 112 1532 112 1534 113 c 0,97,98
 1543 119 1543 119 1555 128 c 0,99,100
 1556 129 1556 129 1558.5 130.5 c 128,-1,101
 1561 132 1561 132 1562 133 c 0,102,103
 1563 133 1563 133 1563.5 133.5 c 128,-1,104
 1564 134 1564 134 1565 135 c 2,105,106
 1565 135 1565 135 1567.5 136.5 c 128,-1,107
 1570 138 1570 138 1571 139 c 0,108,109
 1594 158 1594 158 1609 181 c 0,110,111
 1614 188 1614 188 1617 195 c 0,112,113
 1630 218 1630 218 1632 241 c 0,114,115
 1632 242 1632 242 1632.5 242.5 c 128,-1,116
 1633 243 1633 243 1633 243 c 1,117,-1
 1634 252 l 1,118,-1
 1634 254 l 1,119,-1
 1634 256 l 1,120,-1
 1634 257 l 1,121,-1
 1634 258 l 1,122,-1
 1634 259 l 1,123,-1
 1634 260 l 1,124,-1
 1634 627 l 1,125,-1
 1634 637 l 1,126,-1
 1634 639 l 2,127,128
 1634 642 1634 642 1631 667 c 0,129,130
 1627 686 1627 686 1620 700 c 0,131,132
 1616 707 1616 707 1611 713 c 0,133,134
 1607 720 1607 720 1601 727 c 1,135,-1
 1917 1512 l 2,136,137
 1918 1512 1918 1512 1922 1511.5 c 128,-1,138
 1926 1511 1926 1511 1928 1511 c 0,139,140
 1978 1511 1978 1511 2013 1546.5 c 128,-1,141
 2048 1582 2048 1582 2048 1631.5 c 128,-1,142
 2048 1681 2048 1681 2013 1716.5 c 128,-1,143
 1978 1752 1978 1752 1928.5 1752 c 128,-1,144
 1879 1752 1879 1752 1843.5 1716.5 c 128,-1,145
 1808 1681 1808 1681 1808 1631 c 0,146,147
 1808 1589 1808 1589 1837 1555 c 1,148,-1
 1453 1138 l 1,149,-1
 1488 1708 l 1,150,151
 1531 1715 1531 1715 1560.5 1748.5 c 128,-1,152
 1590 1782 1590 1782 1590 1826 c 0,153,154
 1590 1876 1590 1876 1554.5 1911.5 c 128,-1,155
 1519 1947 1519 1947 1469.5 1947 c 128,-1,156
 1420 1947 1420 1947 1384.5 1911.5 c 128,-1,157
 1349 1876 1349 1876 1349 1826 c 0,158,159
 1349 1768 1349 1768 1397 1731 c 1,160,-1
 1145 1216 l 1,161,-1
 1023 1777 l 1,162,-1
 1024 1781 l 1,163,164
 1058 1795 1058 1795 1079 1825 c 128,-1,165
 1100 1855 1100 1855 1100 1893 c 0,166,167
 1100 1942 1100 1942 1065 1977.5 c 128,-1,168
 1030 2013 1030 2013 980 2013 c 1,0,-1
1469.5 1873 m 128,-1,170
 1489 1873 1489 1873 1502.5 1859.5 c 128,-1,171
 1516 1846 1516 1846 1516 1826.5 c 128,-1,172
 1516 1807 1516 1807 1502.5 1793.5 c 128,-1,173
 1489 1780 1489 1780 1469.5 1780 c 128,-1,174
 1450 1780 1450 1780 1436.5 1793.5 c 128,-1,175
 1423 1807 1423 1807 1423 1826.5 c 128,-1,176
 1423 1846 1423 1846 1436.5 1859.5 c 128,-1,169
 1450 1873 1450 1873 1469.5 1873 c 128,-1,170
1928.5 1678 m 128,-1,178
 1948 1678 1948 1678 1961.5 1664.5 c 128,-1,179
 1975 1651 1975 1651 1975 1631.5 c 128,-1,180
 1975 1612 1975 1612 1961.5 1598.5 c 128,-1,181
 1948 1585 1948 1585 1928.5 1585 c 128,-1,182
 1909 1585 1909 1585 1895.5 1598.5 c 128,-1,183
 1882 1612 1882 1612 1882 1631.5 c 128,-1,184
 1882 1651 1882 1651 1895.5 1664.5 c 128,-1,177
 1909 1678 1909 1678 1928.5 1678 c 128,-1,178
600 1378 m 0,185,186
 602 1378 602 1378 603 1378 c 0,187,188
 609 1378 609 1378 612 1375 c 0,189,190
 619 1372 619 1372 617.5 1367.5 c 128,-1,191
 616 1363 616 1363 612 1360 c 128,-1,192
 608 1357 608 1357 602 1351.5 c 128,-1,193
 596 1346 596 1346 595 1340 c 0,194,195
 590 1327 590 1327 590.5 1314.5 c 128,-1,196
 591 1302 591 1302 590 1294 c 128,-1,197
 589 1286 589 1286 581 1278 c 0,198,199
 571 1268 571 1268 545 1269 c 128,-1,200
 519 1270 519 1270 509 1265 c 0,201,202
 501 1260 501 1260 495 1252.5 c 128,-1,203
 489 1245 489 1245 484.5 1240.5 c 128,-1,204
 480 1236 480 1236 475 1237 c 128,-1,205
 470 1238 470 1238 467.5 1243 c 128,-1,206
 465 1248 465 1248 465 1253 c 2,207,-1
 465 1258 l 2,208,209
 466 1299 466 1299 476 1312 c 0,210,211
 497 1338 497 1338 536.5 1357.5 c 128,-1,212
 576 1377 576 1377 600 1378 c 0,185,186
987 935 m 1,213,214
 1197 935 1197 935 1404 860 c 0,215,216
 1536 812 1536 812 1552 792 c 0,217,218
 1558 784 1558 784 1555 772 c 0,219,220
 1551 755 1551 755 1534 757 c 128,-1,221
 1517 759 1517 759 1465 781 c 0,222,223
 1294 854 1294 854 1116 878 c 0,224,225
 1067 884 1067 884 987 884 c 1,226,-1
 987 935 l 1,213,214
198 835 m 0,227,228
 199 835 199 835 200 834 c 0,229,230
 208 832 208 832 206.5 823 c 128,-1,231
 205 814 205 814 200 804.5 c 128,-1,232
 195 795 195 795 191 784.5 c 128,-1,233
 187 774 187 774 190 770 c 0,234,235
 194 762 194 762 206.5 761.5 c 128,-1,236
 219 761 219 761 221 758 c 0,237,238
 226 753 226 753 227 741 c 128,-1,239
 228 729 228 729 225 722 c 256,240,241
 222 715 222 715 211 707.5 c 128,-1,242
 200 700 200 700 191 698 c 0,243,244
 172 695 172 695 156 712 c 0,245,246
 139 730 139 730 146 768 c 0,247,248
 149 784 149 784 168 809 c 128,-1,249
 187 834 187 834 198 835 c 0,227,228
988 750 m 1,250,251
 1012 748 1012 748 1037 736 c 0,252,253
 1075 717 1075 717 1109.5 696.5 c 128,-1,254
 1144 676 1144 676 1149 670 c 0,255,256
 1157 661 1157 661 1148 651.5 c 128,-1,257
 1139 642 1139 642 1104 623 c 0,258,259
 1065 602 1065 602 1051 594.5 c 128,-1,260
 1037 587 1037 587 1019 579 c 128,-1,261
 1001 571 1001 571 990 569 c 1,262,-1
 988 750 l 1,250,251
1535.5 588 m 128,-1,264
 1543 588 1543 588 1545.5 576 c 128,-1,265
 1548 564 1548 564 1548 527 c 0,266,267
 1548 470 1548 470 1532 470 c 0,268,269
 1529 470 1529 470 1500.5 504.5 c 128,-1,270
 1472 539 1472 539 1470 544 c 0,271,272
 1469 548 1469 548 1498.5 568 c 128,-1,263
 1528 588 1528 588 1535.5 588 c 128,-1,264
990 474 m 1,273,274
 1199 473 1199 473 1404 399 c 0,275,276
 1536 351 1536 351 1552 331 c 0,277,278
 1558 323 1558 323 1555 311 c 0,279,280
 1551 294 1551 294 1534 296 c 128,-1,281
 1517 298 1517 298 1466 320 c 0,282,283
 1294 393 1294 393 1116 417 c 0,284,285
 1073 422 1073 422 991 423 c 1,286,-1
 990 474 l 1,287,-1
 990 474 l 1,273,274
EndSplineSet
Ligature2: "'liga' Ligature standard lookup 0-1" b underscore e
EndChar

StartChar: b_t
Encoding: 65554 -1 19
Width: 2048
GlyphClass: 3
Flags: W
LayerCount: 2
Fore
SplineSet
1105 2048 m 1,0,-1
 1105 1866 l 1,1,2
 1079 1906 1079 1906 1046.5 1946 c 128,-1,3
 1014 1986 1014 1986 995 2006 c 2,4,-1
 975 2025 l 2,5,6
 962 2038 962 2038 944 2038 c 2,7,-1
 943 2038 l 2,8,9
 928 2037 928 2037 916.5 2027 c 128,-1,10
 905 2017 905 2017 902 2002 c 2,11,-1
 863 1805 l 1,12,-1
 785 1801 l 1,13,-1
 631 1993 l 2,14,15
 615 2009 615 2009 596.5 2009.5 c 128,-1,16
 578 2010 578 2010 564 1994.5 c 128,-1,17
 550 1979 550 1979 553 1958 c 2,18,-1
 585 1771 l 1,19,-1
 408 1513 l 2,20,21
 402 1504 402 1504 401 1492 c 2,22,-1
 387 1339 l 1,23,24
 313 1243 313 1243 241 1134 c 0,25,26
 173 1033 173 1033 134 958 c 0,27,28
 107 907 107 907 94 873.5 c 128,-1,29
 81 840 81 840 81 807 c 0,30,31
 81 714 81 714 117 643 c 128,-1,32
 153 572 153 572 213 529 c 0,33,34
 270 489 270 489 322 501 c 0,35,36
 324 501 324 501 328 506.5 c 128,-1,37
 332 512 332 512 334 513 c 2,38,39
 334 513 334 513 334 512 c 0,40,41
 335 491 335 491 345 476 c 0,42,43
 356 461 356 461 375 454 c 0,44,45
 385 451 385 451 412 450 c 0,46,47
 416 450 416 450 439.5 448.5 c 128,-1,48
 463 447 463 447 474 447 c 128,-1,49
 485 447 485 447 504 448.5 c 128,-1,50
 523 450 523 450 539 454 c 0,51,52
 580 464 580 464 604 492 c 0,53,54
 630 524 630 524 633 573 c 0,55,56
 634 598 634 598 632 622 c 128,-1,57
 630 646 630 646 627.5 664.5 c 128,-1,58
 625 683 625 683 624 688 c 0,59,60
 624 698 624 698 627 703 c 0,61,62
 632 712 632 712 652 723 c 0,63,64
 687 743 687 743 805 771 c 0,65,66
 937 802 937 802 991 830 c 0,67,68
 1009 840 1009 840 1023 849 c 128,-1,69
 1037 858 1037 858 1049 869.5 c 128,-1,70
 1061 881 1061 881 1067.5 888 c 128,-1,71
 1074 895 1074 895 1086.5 910.5 c 128,-1,72
 1099 926 1099 926 1105 933 c 1,73,-1
 1105 931 l 1,74,-1
 1092 729 l 2,75,76
 1089 718 1089 718 1054 671 c 0,77,78
 992 588 992 588 871 515 c 0,79,80
 659 387 659 387 659 42 c 0,81,82
 660 24 660 24 672.5 12 c 128,-1,83
 685 0 685 0 703 0 c 2,84,-1
 1105 0 l 1,85,-1
 1116 0 l 1,86,-1
 1298 0 l 1,87,-1
 1967 0 l 1,88,-1
 1967 341 l 1,89,-1
 1792 516 l 1,90,-1
 1792 638 l 1,91,-1
 1586 869 l 1,92,-1
 1590 1398 l 1,93,-1
 1823 1553 l 1,94,-1
 1823 2048 l 1,95,-1
 1482 2048 l 1,96,-1
 1482 1842 l 1,97,-1
 1271 1842 l 1,98,-1
 1271 2048 l 1,99,-1
 1225 2048 l 1,100,-1
 1105 2048 l 1,0,-1
1116 1714 m 1,101,-1
 1741 1714 l 1,102,-1
 1741 1561 l 1,103,-1
 1116 1561 l 1,104,-1
 1116 1714 l 1,101,-1
712 1411 m 0,105,106
 713 1411 713 1411 715 1411 c 0,107,108
 721 1411 721 1411 724 1408 c 0,109,110
 731 1405 731 1405 729.5 1400 c 128,-1,111
 728 1395 728 1395 724 1392 c 128,-1,112
 720 1389 720 1389 714 1383 c 128,-1,113
 708 1377 708 1377 706 1371 c 0,114,115
 701 1357 701 1357 701.5 1344 c 128,-1,116
 702 1331 702 1331 700.5 1323 c 128,-1,117
 699 1315 699 1315 691 1306 c 0,118,119
 681 1295 681 1295 653.5 1296 c 128,-1,120
 626 1297 626 1297 615 1292 c 0,121,122
 607 1287 607 1287 600.5 1279 c 128,-1,123
 594 1271 594 1271 589.5 1266.5 c 128,-1,124
 585 1262 585 1262 579.5 1263 c 128,-1,125
 574 1264 574 1264 571.5 1269 c 128,-1,126
 569 1274 569 1274 569 1280 c 2,127,-1
 569 1285 l 2,128,129
 570 1328 570 1328 581 1342 c 0,130,131
 603 1369 603 1369 644.5 1389.5 c 128,-1,132
 686 1410 686 1410 712 1411 c 0,105,106
288 840 m 0,133,134
 290 840 290 840 291 839 c 0,135,136
 299 837 299 837 297.5 827.5 c 128,-1,137
 296 818 296 818 290.5 808 c 128,-1,138
 285 798 285 798 281 787 c 128,-1,139
 277 776 277 776 280 771 c 0,140,141
 285 763 285 763 298 762.5 c 128,-1,142
 311 762 311 762 313 759 c 0,143,144
 318 754 318 754 319 741 c 128,-1,145
 320 728 320 728 317 722 c 0,146,147
 314 714 314 714 302.5 706 c 128,-1,148
 291 698 291 698 281 696 c 0,149,150
 262 693 262 693 245 711 c 0,151,152
 226 730 226 730 234 770 c 0,153,154
 237 786 237 786 257 812.5 c 128,-1,155
 277 839 277 839 288 840 c 0,133,134
1116 793 m 1,156,-1
 1228 793 l 1,157,-1
 1545 793 l 1,158,-1
 1702 642 l 1,159,-1
 1228 642 l 1,160,-1
 1116 642 l 1,161,-1
 1116 793 l 1,156,-1
1116 475 m 1,162,-1
 1400 475 l 1,163,-1
 1717 475 l 1,164,-1
 1874 323 l 1,165,-1
 1400 323 l 1,166,-1
 1116 323 l 1,167,-1
 1116 475 l 1,168,-1
 1116 475 l 1,162,-1
EndSplineSet
Ligature2: "'liga' Ligature standard lookup 0-1" b underscore t
EndChar

StartChar: b_a
Encoding: 65555 -1 20
Width: 2048
GlyphClass: 3
Flags: W
LayerCount: 2
Fore
SplineSet
848 2026 m 0,0,1
 833 2026 833 2026 821.5 2016 c 128,-1,2
 810 2006 810 2006 808 1992 c 2,3,-1
 769 1798 l 1,4,-1
 692 1794 l 1,5,-1
 541 1982 l 2,6,7
 525 1998 525 1998 507 1998.5 c 128,-1,8
 489 1999 489 1999 475 1984 c 128,-1,9
 461 1969 461 1969 465 1948 c 2,10,-1
 496 1764 l 1,11,-1
 322 1510 l 2,12,13
 316 1501 316 1501 315 1490 c 2,14,-1
 301 1339 l 1,15,16
 228 1245 228 1245 157 1138 c 0,17,18
 91 1038 91 1038 52 965 c 0,19,20
 34 932 34 932 24.5 911.5 c 128,-1,21
 15 891 15 891 7.5 865 c 128,-1,22
 0 839 0 839 0 817 c 0,23,24
 0 725 0 725 35.5 655 c 128,-1,25
 71 585 71 585 129 543 c 0,26,27
 186 503 186 503 237 515 c 0,28,29
 239 515 239 515 243 520.5 c 128,-1,30
 247 526 247 526 249 527 c 2,31,32
 249 527 249 527 249 526 c 0,33,34
 250 505 250 505 260 491 c 0,35,36
 270 476 270 476 289 469 c 0,37,38
 299 466 299 466 326 465 c 0,39,40
 330 465 330 465 353 463.5 c 128,-1,41
 376 462 376 462 386.5 462 c 128,-1,42
 397 462 397 462 416 463.5 c 128,-1,43
 435 465 435 465 451 469 c 0,44,45
 490 479 490 479 514 507 c 0,46,47
 540 537 540 537 543 586 c 0,48,49
 544 610 544 610 542 634 c 128,-1,50
 540 658 540 658 537.5 676 c 128,-1,51
 535 694 535 694 534 700 c 0,52,53
 534 709 534 709 537 714 c 0,54,55
 542 723 542 723 561 733 c 0,56,57
 596 753 596 753 712 780 c 0,58,59
 841 811 841 811 895 839 c 0,60,61
 917 851 917 851 934 864 c 128,-1,62
 951 877 951 877 959 886 c 128,-1,63
 967 895 967 895 981 913 c 128,-1,64
 995 931 995 931 1003 940 c 1,65,-1
 990 739 l 1,66,67
 984 718 984 718 957 682 c 0,68,69
 896 600 896 600 777 529 c 0,70,71
 568 404 568 404 568 63 c 0,72,73
 569 46 569 46 581.5 34 c 128,-1,74
 594 22 594 22 611 22 c 2,75,-1
 1022 22 l 1,76,-1
 1022 219 l 1,77,78
 1041 177 1041 177 1068 147 c 0,79,80
 1104 108 1104 108 1148.5 88 c 128,-1,81
 1193 68 1193 68 1252 53 c 1,82,-1
 1253 53 l 1,83,-1
 1254 53 l 1,84,85
 1312 39 1312 39 1378.5 41 c 128,-1,86
 1445 43 1445 43 1491 51 c 128,-1,87
 1537 59 1537 59 1597 66.5 c 128,-1,88
 1657 74 1657 74 1702 73 c 0,89,90
 1721 72 1721 72 1729 69 c 0,91,92
 1730 67 1730 67 1733.5 62 c 128,-1,93
 1737 57 1737 57 1747 48 c 128,-1,94
 1757 39 1757 39 1769 34 c 2,95,-1
 1777 31 l 1,96,-1
 1786 31 l 2,97,98
 1806 31 1806 31 1881.5 32 c 128,-1,99
 1957 33 1957 33 2005 33 c 2,100,-1
 2048 33 l 1,101,-1
 2048 76 l 2,102,103
 2048 137 2048 137 2018 192 c 0,104,105
 1983 258 1983 258 1938 290 c 0,106,107
 1869 340 1869 340 1750 343 c 0,108,109
 1705 345 1705 345 1583 331 c 128,-1,110
 1461 317 1461 317 1401 318 c 0,111,112
 1307 320 1307 320 1261 347 c 0,113,114
 1254 351 1254 351 1248.5 359 c 128,-1,115
 1243 367 1243 367 1241 372.5 c 128,-1,116
 1239 378 1239 378 1235.5 390.5 c 128,-1,117
 1232 403 1232 403 1231 407 c 1,118,119
 1348 428 1348 428 1398 492 c 2,120,-1
 1408 504 l 1,121,-1
 1408 784 l 1,122,123
 1430 798 1430 798 1452 815.5 c 128,-1,124
 1474 833 1474 833 1502 862.5 c 128,-1,125
 1530 892 1530 892 1550.5 934.5 c 128,-1,126
 1571 977 1571 977 1577 1025 c 0,127,128
 1588 1111 1588 1111 1566.5 1189 c 128,-1,129
 1545 1267 1545 1267 1484 1345 c 0,130,131
 1430 1416 1430 1416 1336.5 1500 c 128,-1,132
 1243 1584 1243 1584 1092 1703 c 1,133,134
 1132 1724 1132 1724 1157 1764 c 128,-1,135
 1182 1804 1182 1804 1182 1851 c 0,136,137
 1182 1919 1182 1919 1130.5 1968.5 c 128,-1,138
 1079 2018 1079 2018 1009 2018 c 2,139,140
 1009 2018 1009 2018 1008.5 2018 c 128,-1,141
 1008 2018 1008 2018 1008 2018 c 1,142,-1
 1008 1932 l 1,143,144
 1008 1932 1008 1932 1009 1932 c 0,145,146
 1044 1932 1044 1932 1069.5 1908 c 128,-1,147
 1095 1884 1095 1884 1095 1851 c 0,148,149
 1095 1821 1095 1821 1074 1798 c 128,-1,150
 1053 1775 1053 1775 1022 1770 c 1,151,-1
 1022 1842 l 1,152,153
 995 1884 995 1884 959.5 1927.5 c 128,-1,154
 924 1971 924 1971 902 1993 c 2,155,-1
 880 2014 l 2,156,157
 866 2027 866 2027 848 2026 c 0,0,1
620 1410 m 0,158,159
 621 1410 621 1410 623 1410 c 0,160,161
 629 1410 629 1410 633 1408 c 0,162,163
 640 1404 640 1404 638.5 1399.5 c 128,-1,164
 637 1395 637 1395 632.5 1392 c 128,-1,165
 628 1389 628 1389 622 1383 c 128,-1,166
 616 1377 616 1377 614 1371 c 0,167,168
 610 1357 610 1357 610.5 1344.5 c 128,-1,169
 611 1332 611 1332 609.5 1323.5 c 128,-1,170
 608 1315 608 1315 600 1307 c 0,171,172
 590 1297 590 1297 563 1297.5 c 128,-1,173
 536 1298 536 1298 525 1293 c 0,174,175
 518 1289 518 1289 511.5 1280.5 c 128,-1,176
 505 1272 505 1272 500.5 1267.5 c 128,-1,177
 496 1263 496 1263 490.5 1264 c 128,-1,178
 485 1265 485 1265 482.5 1270.5 c 128,-1,179
 480 1276 480 1276 480 1281 c 2,180,-1
 480 1286 l 2,181,182
 481 1329 481 1329 492 1342 c 0,183,184
 513 1369 513 1369 554 1389.5 c 128,-1,185
 595 1410 595 1410 620 1410 c 0,158,159
1022 1371 m 1,186,-1
 1041 1371 l 1,187,-1
 1041 1225 l 1,188,-1
 1187 1225 l 1,189,-1
 1187 1168 l 1,190,-1
 1041 1168 l 1,191,-1
 1041 1022 l 1,192,-1
 1022 1022 l 1,193,-1
 1022 1371 l 1,186,-1
1022 899 m 1,194,195
 1170 898 1170 898 1311 855 c 0,196,197
 1329 850 1329 850 1332 834 c 128,-1,198
 1335 818 1335 818 1323.5 806 c 128,-1,199
 1312 794 1312 794 1295 800 c 0,200,201
 1161 841 1161 841 1022 842 c 1,202,-1
 1022 899 l 1,194,195
204 849 m 0,203,204
 205 849 205 849 207 848 c 0,205,206
 215 846 215 846 213.5 836.5 c 128,-1,207
 212 827 212 827 206.5 817 c 128,-1,208
 201 807 201 807 197 796.5 c 128,-1,209
 193 786 193 786 195 781 c 0,210,211
 200 773 200 773 213 772.5 c 128,-1,212
 226 772 226 772 228 769 c 0,213,214
 233 764 233 764 234 751.5 c 128,-1,215
 235 739 235 739 232 732 c 0,216,217
 229 724 229 724 218 716.5 c 128,-1,218
 207 709 207 709 197 707 c 0,219,220
 178 704 178 704 161 722 c 0,221,222
 143 740 143 740 150 780 c 0,223,224
 153 796 153 796 173 822 c 128,-1,225
 193 848 193 848 204 849 c 0,203,204
1022 767 m 1,226,-1
 1024 767 l 1,227,-1
 1024 744 l 1,228,-1
 1076 744 l 1,229,-1
 1076 700 l 1,230,-1
 1024 700 l 1,231,-1
 1024 677 l 1,232,-1
 1022 677 l 1,233,-1
 1022 767 l 1,226,-1
1333 712 m 1,234,-1
 1333 636 l 1,235,-1
 1299 679 l 1,236,-1
 1333 712 l 1,234,-1
1022 600 m 1,237,238
 1168 599 1168 599 1311 556 c 0,239,240
 1329 551 1329 551 1332 534.5 c 128,-1,241
 1335 518 1335 518 1323.5 506.5 c 128,-1,242
 1312 495 1312 495 1295 501 c 0,243,244
 1159 542 1159 542 1022 543 c 1,245,-1
 1022 600 l 1,246,-1
 1022 600 l 1,237,238
EndSplineSet
Ligature2: "'liga' Ligature standard lookup 0-1" b underscore a
EndChar

StartChar: n_q
Encoding: 65556 -1 21
Width: 2048
GlyphClass: 3
Flags: W
LayerCount: 2
Fore
SplineSet
1025 1990 m 1,0,-1
 1024 1990 l 2,1,2
 977 1990 977 1990 943 1956 c 128,-1,3
 909 1922 909 1922 909 1875 c 0,4,5
 909 1839 909 1839 929.5 1810 c 128,-1,6
 950 1781 950 1781 983 1768 c 1,7,-1
 984 1764 l 1,8,-1
 866 1226 l 1,9,-1
 625 1720 l 1,10,11
 671 1755 671 1755 671 1811 c 0,12,13
 671 1859 671 1859 637 1892.5 c 128,-1,14
 603 1926 603 1926 555.5 1926 c 128,-1,15
 508 1926 508 1926 474 1892.5 c 128,-1,16
 440 1859 440 1859 440 1811 c 0,17,18
 440 1769 440 1769 468 1736.5 c 128,-1,19
 496 1704 496 1704 538 1698 c 1,20,-1
 571 1152 l 1,21,-1
 203 1551 l 1,22,23
 231 1584 231 1584 231 1624 c 0,24,25
 231 1672 231 1672 197 1706 c 128,-1,26
 163 1740 163 1740 115.5 1740 c 128,-1,27
 68 1740 68 1740 34 1706 c 128,-1,28
 0 1672 0 1672 0 1624.5 c 128,-1,29
 0 1577 0 1577 34 1543 c 128,-1,30
 68 1509 68 1509 116 1509 c 0,31,32
 118 1509 118 1509 122 1509.5 c 128,-1,33
 126 1510 126 1510 126 1510 c 1,34,-1
 430 756 l 1,35,36
 421 745 421 745 416 736 c 0,37,38
 403 714 403 714 400 692 c 0,39,40
 399 686 399 686 399 678 c 2,41,-1
 398 675 l 1,42,-1
 398 674 l 1,43,-1
 398 673 l 1,44,-1
 398 671 l 1,45,-1
 398 670 l 1,46,-1
 398 670 l 1,47,-1
 398 669 l 1,48,-1
 398 318 l 2,49,50
 398 316 398 316 398 315 c 256,51,52
 398 314 398 314 398 313.5 c 128,-1,53
 398 313 398 313 398 311 c 256,54,55
 398 309 398 309 398 307 c 2,56,-1
 398 306 l 1,57,-1
 398 305 l 2,58,59
 398 293 398 293 401 279 c 1,60,61
 401 279 401 279 400 278 c 0,62,63
 405 259 405 259 414 243 c 0,64,65
 422 230 422 230 432 217 c 0,66,67
 437 212 437 212 444 205 c 0,68,69
 450 199 450 199 456 194 c 0,70,71
 591 96 591 96 844 67 c 0,72,73
 901 61 901 61 962 59 c 0,74,75
 991 58 991 58 1023 58 c 2,76,-1
 1027 58 l 2,77,78
 1054 58 1054 58 1083 59 c 2,79,80
 1083 59 1083 59 1084 59 c 0,81,82
 1174 63 1174 63 1253 74 c 0,83,84
 1310 83 1310 83 1355 93 c 0,85,86
 1446 115 1446 115 1511 146 c 0,87,88
 1522 151 1522 151 1523 151 c 0,89,90
 1596 189 1596 189 1627 235 c 0,91,92
 1632 241 1632 241 1635 248 c 0,93,94
 1642 261 1642 261 1649 285 c 0,95,96
 1651 293 1651 293 1651 367 c 2,97,-1
 1651 662 l 1,98,99
 1651 662 1651 662 1651 666.5 c 128,-1,100
 1651 671 1651 671 1651 672 c 2,101,-1
 1651 674 l 2,102,103
 1651 676 1651 676 1649 701 c 0,104,105
 1644 718 1644 718 1637 731 c 0,106,107
 1634 738 1634 738 1629 745 c 0,108,109
 1625 751 1625 751 1620 757 c 1,110,-1
 1923 1510 l 1,111,112
 1923 1510 1923 1510 1927 1509.5 c 128,-1,113
 1931 1509 1931 1509 1933 1509 c 0,114,115
 1981 1509 1981 1509 2014.5 1543 c 128,-1,116
 2048 1577 2048 1577 2048 1624.5 c 128,-1,117
 2048 1672 2048 1672 2014.5 1706 c 128,-1,118
 1981 1740 1981 1740 1933.5 1740 c 128,-1,119
 1886 1740 1886 1740 1852 1706 c 128,-1,120
 1818 1672 1818 1672 1818 1624 c 0,121,122
 1818 1584 1818 1584 1846 1551 c 1,123,-1
 1478 1152 l 1,124,-1
 1511 1698 l 1,125,126
 1553 1704 1553 1704 1581 1736.5 c 128,-1,127
 1609 1769 1609 1769 1609 1811 c 0,128,129
 1609 1859 1609 1859 1575 1892.5 c 128,-1,130
 1541 1926 1541 1926 1493.5 1926 c 128,-1,131
 1446 1926 1446 1926 1412 1892.5 c 128,-1,132
 1378 1859 1378 1859 1378 1811 c 0,133,134
 1378 1755 1378 1755 1424 1720 c 1,135,-1
 1183 1226 l 1,136,-1
 1065 1764 l 1,137,-1
 1066 1768 l 1,138,139
 1099 1781 1099 1781 1119.5 1810 c 128,-1,140
 1140 1839 1140 1839 1140 1875 c 0,141,142
 1140 1921 1140 1921 1107 1955 c 128,-1,143
 1074 1989 1074 1989 1027 1990 c 2,144,145
 1027 1990 1027 1990 1026 1990 c 128,-1,146
 1025 1990 1025 1990 1025 1990 c 1,0,-1
1024 1919 m 1,147,-1
 1024 1919 l 1,148,149
 1026 1919 1026 1919 1027 1919 c 1,150,-1
 1027 1919 l 1,151,152
 1045 1918 1045 1918 1057 1905.5 c 128,-1,153
 1069 1893 1069 1893 1069 1875 c 128,-1,154
 1069 1857 1069 1857 1057 1844.5 c 128,-1,155
 1045 1832 1045 1832 1027 1830 c 1,156,-1
 1027 1831 l 2,157,158
 1026 1830 1026 1830 1024 1830 c 0,159,160
 1006 1830 1006 1830 993 1843 c 128,-1,161
 980 1856 980 1856 980 1874.5 c 128,-1,162
 980 1893 980 1893 993 1906 c 128,-1,163
 1006 1919 1006 1919 1024 1919 c 1,147,-1
555.5 1856 m 128,-1,165
 574 1856 574 1856 587 1843 c 128,-1,166
 600 1830 600 1830 600 1811.5 c 128,-1,167
 600 1793 600 1793 587 1780 c 128,-1,168
 574 1767 574 1767 555.5 1767 c 128,-1,169
 537 1767 537 1767 524 1780 c 128,-1,170
 511 1793 511 1793 511 1811.5 c 128,-1,171
 511 1830 511 1830 524 1843 c 128,-1,164
 537 1856 537 1856 555.5 1856 c 128,-1,165
1493.5 1856 m 128,-1,173
 1512 1856 1512 1856 1525 1843 c 128,-1,174
 1538 1830 1538 1830 1538 1811.5 c 128,-1,175
 1538 1793 1538 1793 1525 1780 c 128,-1,176
 1512 1767 1512 1767 1493.5 1767 c 128,-1,177
 1475 1767 1475 1767 1462 1780 c 128,-1,178
 1449 1793 1449 1793 1449 1811.5 c 128,-1,179
 1449 1830 1449 1830 1462 1843 c 128,-1,172
 1475 1856 1475 1856 1493.5 1856 c 128,-1,173
115.5 1669 m 128,-1,181
 134 1669 134 1669 147 1656 c 128,-1,182
 160 1643 160 1643 160 1624.5 c 128,-1,183
 160 1606 160 1606 147 1593 c 128,-1,184
 134 1580 134 1580 115.5 1580 c 128,-1,185
 97 1580 97 1580 84 1593 c 128,-1,186
 71 1606 71 1606 71 1624.5 c 128,-1,187
 71 1643 71 1643 84 1656 c 128,-1,180
 97 1669 97 1669 115.5 1669 c 128,-1,181
1933.5 1669 m 128,-1,189
 1952 1669 1952 1669 1965 1656 c 128,-1,190
 1978 1643 1978 1643 1978 1624.5 c 128,-1,191
 1978 1606 1978 1606 1965 1593 c 128,-1,192
 1952 1580 1952 1580 1933.5 1580 c 128,-1,193
 1915 1580 1915 1580 1902 1593 c 128,-1,194
 1889 1606 1889 1606 1889 1624.5 c 128,-1,195
 1889 1643 1889 1643 1902 1656 c 128,-1,188
 1915 1669 1915 1669 1933.5 1669 c 128,-1,189
1027 1563 m 1,196,-1
 1153 985 l 1,197,-1
 1421 1532 l 1,198,-1
 1385 933 l 1,199,-1
 1775 1356 l 1,200,-1
 1555 810 l 1,201,202
 1512 837 1512 837 1452 858 c 0,203,204
 1357 889 1357 889 1243 904.5 c 128,-1,205
 1129 920 1129 920 1025 921 c 2,206,207
 1025 921 1025 921 1024 921 c 2,208,-1
 1024 908 l 1,209,210
 932 907 932 907 870 898 c 0,211,212
 710 874 710 874 550 805 c 0,213,214
 511 788 511 788 498 785.5 c 128,-1,215
 485 783 485 783 478 790 c 256,216,217
 471 797 471 797 472.5 810 c 128,-1,218
 474 823 474 823 483 829 c 0,219,220
 494 836 494 836 565 864 c 0,221,222
 786 952 786 952 1002 957 c 0,223,224
 1014 957 1014 957 1027 957 c 1,225,-1
 1027 1563 l 1,196,-1
1027 842 m 1,226,227
 1262 841 1262 841 1426 783 c 0,228,229
 1500 757 1500 757 1539 724 c 0,230,231
 1571 698 1571 698 1571 674 c 0,232,233
 1571 670 1571 670 1571 662 c 128,-1,234
 1571 654 1571 654 1571 651 c 2,235,-1
 1503 614 l 2,236,237
 1493 608 1493 608 1491 601.5 c 128,-1,238
 1489 595 1489 595 1492 588.5 c 128,-1,239
 1495 582 1495 582 1503 572 c 2,240,-1
 1571 489 l 1,241,-1
 1571 431 l 1,242,243
 1524 465 1524 465 1452 490 c 0,244,245
 1275 553 1275 553 1027 553 c 1,246,-1
 1027 601 l 1,247,248
 1048 601 1048 601 1062 609 c 2,249,-1
 1179 674 l 2,250,251
 1195 682 1195 682 1195 694.5 c 128,-1,252
 1195 707 1195 707 1179 716 c 2,253,-1
 1062 780 l 2,254,255
 1048 788 1048 788 1027 789 c 1,256,-1
 1027 842 l 1,226,227
1022 780 m 0,257,258
 1023 780 1023 780 1024 780 c 2,259,-1
 1024 606 l 1,260,261
 1014 605 1014 605 1000.5 609.5 c 128,-1,262
 987 614 987 614 978 618.5 c 128,-1,263
 969 623 969 623 943 637 c 0,264,265
 889 665 889 665 873.5 675.5 c 128,-1,266
 858 686 858 686 858 695 c 128,-1,267
 858 704 858 704 874 714.5 c 128,-1,268
 890 725 890 725 943 753 c 1,269,270
 985 780 985 780 1022 780 c 0,257,258
480 623 m 1,271,272
 487 623 487 623 514.5 608 c 128,-1,273
 542 593 542 593 546 586 c 0,274,275
 548 583 548 583 519.5 547.5 c 128,-1,276
 491 512 491 512 487 512 c 0,277,278
 484 512 484 512 478 517 c 0,279,280
 472 524 472 524 472.5 572 c 128,-1,281
 473 620 473 620 480 623 c 1,282,-1
 480 623 l 1,271,272
1024 515 m 1,283,-1
 1024 474 l 1,284,285
 1260 473 1260 473 1426 415 c 0,286,287
 1500 389 1500 389 1539 356 c 0,288,289
 1571 330 1571 330 1569 305 c 0,290,291
 1568 284 1568 284 1549 265 c 0,292,293
 1502 227 1502 227 1447 205 c 0,294,295
 1266 139 1266 139 1027 138 c 1,296,-1
 1027 466 l 1,297,298
 933 465 933 465 870 456 c 0,299,300
 710 432 710 432 550 363 c 0,301,302
 511 347 511 347 498 344 c 128,-1,303
 485 341 485 341 478 348 c 256,304,305
 471 355 471 355 473 368 c 128,-1,306
 475 381 475 381 484 387 c 0,307,308
 495 394 495 394 566 422 c 0,309,310
 786 510 786 510 1002 515 c 0,311,312
 1012 515 1012 515 1024 515 c 1,313,-1
 1024 515 l 1,283,-1
EndSplineSet
Ligature2: "'liga' Ligature standard lookup 0-1" n underscore q
EndChar

StartChar: n_k
Encoding: 65557 -1 22
Width: 2048
GlyphClass: 3
Flags: W
LayerCount: 2
Fore
SplineSet
777 2048 m 1,0,-1
 777 2004 l 1,1,-1
 777 1564 l 1,2,-1
 884 1564 l 1,3,4
 876 1559 876 1559 874 1557 c 0,5,6
 871 1555 871 1555 866 1551 c 0,7,8
 809 1507 809 1507 758 1435 c 1,9,10
 742 1449 742 1449 726 1462 c 0,11,12
 662 1513 662 1513 581.5 1540.5 c 128,-1,13
 501 1568 501 1568 416 1569 c 0,14,15
 330 1570 330 1570 252 1542 c 128,-1,16
 174 1514 174 1514 117 1456 c 0,17,18
 50 1387 50 1387 30.5 1300 c 128,-1,19
 11 1213 11 1213 27 1124 c 0,20,21
 40 1049 40 1049 70 985.5 c 128,-1,22
 100 922 100 922 134 885 c 0,23,24
 199 813 199 813 357 686 c 1,25,26
 353 671 353 671 353 658 c 2,27,-1
 353 657 l 1,28,-1
 354 656 l 2,29,30
 354 655 354 655 354 652.5 c 128,-1,31
 354 650 354 650 354 650 c 2,32,33
 354 649 354 649 353.5 648 c 128,-1,34
 353 647 353 647 353 645 c 2,35,-1
 353 269 l 1,36,-1
 353 268 l 1,37,-1
 353 267 l 1,38,-1
 353 265 l 1,39,-1
 353 264 l 1,40,-1
 353 263 l 1,41,-1
 354 260 l 2,42,43
 355 251 355 251 356 245 c 0,44,45
 360 221 360 221 373 198 c 0,46,47
 381 184 381 184 393 170 c 0,48,49
 398 164 398 164 405 158 c 0,50,51
 411 151 411 151 418 146 c 0,52,53
 472 101 472 101 566 68 c 0,54,55
 681 27 681 27 833 10 c 0,56,57
 863 7 863 7 894.5 4.5 c 128,-1,58
 926 2 926 2 959 1 c 2,59,-1
 1024 0 l 1,60,-1
 1022 0 l 2,61,62
 1024 0 1024 0 1024 0 c 2,63,64
 1056 0 1056 0 1088 1 c 2,65,-1
 1089 1 l 2,66,67
 1120 2 1120 2 1151 4 c 0,68,69
 1164 5 1164 5 1193 8 c 0,70,71
 1251 13 1251 13 1345 32 c 0,72,73
 1496 63 1496 63 1583 113 c 0,74,75
 1643 149 1643 149 1670 189 c 0,76,77
 1690 220 1690 220 1693 243 c 0,78,79
 1695 259 1695 259 1695 265 c 0,80,81
 1695 275 1695 275 1695 370 c 128,-1,82
 1695 465 1695 465 1695.5 555.5 c 128,-1,83
 1696 646 1696 646 1696 645 c 1,84,85
 1696 646 1696 646 1695.5 647.5 c 128,-1,86
 1695 649 1695 649 1695 650 c 2,87,88
 1695 650 1695 650 1695 651.5 c 128,-1,89
 1695 653 1695 653 1695 654 c 2,90,-1
 1695 656 l 1,91,-1
 1695 658 l 2,92,93
 1695 671 1695 671 1692 686 c 1,94,95
 1850 813 1850 813 1915 885 c 0,96,97
 1948 922 1948 922 1978 985.5 c 128,-1,98
 2008 1049 2008 1049 2022 1124 c 0,99,100
 2038 1213 2038 1213 2018.5 1300 c 128,-1,101
 1999 1387 1999 1387 1931 1456 c 0,102,103
 1875 1514 1875 1514 1797 1542 c 128,-1,104
 1719 1570 1719 1570 1633 1569 c 0,105,106
 1548 1568 1548 1568 1467.5 1540.5 c 128,-1,107
 1387 1513 1387 1513 1323 1462 c 0,108,109
 1306 1449 1306 1449 1291 1435 c 1,110,111
 1240 1507 1240 1507 1183 1551 c 0,112,113
 1178 1555 1178 1555 1174 1557 c 0,114,115
 1172 1559 1172 1559 1165 1564 c 1,116,-1
 1271 1564 l 1,117,-1
 1271 2048 l 1,118,-1
 1024 2048 l 1,119,-1
 777 2048 l 1,0,-1
1024 1959 m 1,120,-1
 1120 1959 l 1,121,-1
 1024 1866 l 1,122,-1
 1024 1959 l 1,120,-1
919 1933 m 1,123,-1
 1004 1849 l 1,124,-1
 1024 1857 l 1,125,-1
 1024 1758 l 1,126,-1
 1003 1766 l 1,127,-1
 919 1682 l 1,128,-1
 899 1702 l 1,129,-1
 983 1786 l 1,130,-1
 975 1807 l 1,131,-1
 983 1829 l 1,132,-1
 899 1913 l 1,133,-1
 919 1933 l 1,123,-1
1182 1901 m 1,134,-1
 1182 1711 l 1,135,-1
 1085 1806 l 1,136,-1
 1182 1901 l 1,134,-1
1024 1746 m 1,137,-1
 1120 1653 l 1,138,-1
 1024 1653 l 1,139,-1
 1024 1746 l 1,137,-1
1024 1525 m 0,140,141
 1054 1525 1054 1525 1086 1511 c 0,142,143
 1157 1479 1157 1479 1227 1374 c 1,144,145
 1079 1225 1079 1225 1029 1062 c 0,146,147
 1028 1059 1028 1059 1026.5 1053.5 c 128,-1,148
 1025 1048 1025 1048 1024 1046 c 1,149,150
 1024 1048 1024 1048 1022.5 1053.5 c 128,-1,151
 1021 1059 1021 1059 1020 1062 c 0,152,153
 970 1225 970 1225 822 1374 c 1,154,155
 868 1444 868 1444 915 1481 c 0,156,157
 916 1482 916 1482 917.5 1483 c 128,-1,158
 919 1484 919 1484 920 1485 c 0,159,160
 927 1490 927 1490 938 1497 c 0,161,162
 948 1504 948 1504 949 1504 c 0,163,164
 952 1506 952 1506 962.5 1510.5 c 128,-1,165
 973 1515 973 1515 975 1516 c 0,166,167
 980 1518 980 1518 990 1520 c 0,168,169
 991 1521 991 1521 994.5 1522 c 128,-1,170
 998 1523 998 1523 1000 1523 c 0,171,172
 1013 1525 1013 1525 1024 1525 c 0,140,141
407 1484 m 0,173,174
 411 1484 411 1484 416 1484 c 0,175,176
 485 1483 485 1483 553 1460 c 128,-1,177
 621 1437 621 1437 672 1396 c 0,178,179
 880 1229 880 1229 939 1037 c 0,180,181
 958 975 958 975 958 922 c 1,182,183
 731 914 731 914 566 855 c 0,184,185
 472 822 472 822 418 777 c 0,186,187
 410 770 410 770 401 761 c 1,188,189
 252 882 252 882 197 942 c 0,190,191
 176 966 176 966 149 1022.5 c 128,-1,192
 122 1079 122 1079 111 1139 c 0,193,194
 82 1298 82 1298 179 1397 c 0,195,196
 219 1439 219 1439 279 1461 c 128,-1,197
 339 1483 339 1483 407 1484 c 0,173,174
1642 1484 m 0,198,199
 1710 1483 1710 1483 1770 1461 c 128,-1,200
 1830 1439 1830 1439 1870 1397 c 0,201,202
 1967 1298 1967 1298 1938 1139 c 0,203,204
 1927 1079 1927 1079 1900 1022.5 c 128,-1,205
 1873 966 1873 966 1852 942 c 0,206,207
 1797 882 1797 882 1648 761 c 1,208,209
 1639 771 1639 771 1631 777 c 0,210,211
 1577 822 1577 822 1483 855 c 0,212,213
 1318 914 1318 914 1091 922 c 1,214,215
 1091 975 1091 975 1110 1037 c 0,216,217
 1169 1229 1169 1229 1377 1396 c 0,218,219
 1428 1437 1428 1437 1495.5 1460 c 128,-1,220
 1563 1483 1563 1483 1633 1484 c 0,221,222
 1638 1484 1638 1484 1642 1484 c 0,198,199
1022 1462 m 2,223,224
 983 1461 983 1461 944 1420 c 0,225,226
 941 1416 941 1416 935 1410 c 0,227,228
 914 1388 914 1388 913 1381.5 c 128,-1,229
 912 1375 912 1375 926 1359 c 0,230,231
 930 1355 930 1355 932 1352 c 0,232,233
 955 1325 955 1325 972 1300 c 0,234,235
 985 1281 985 1281 1003 1245 c 128,-1,236
 1021 1209 1021 1209 1021 1202 c 256,237,238
 1021 1195 1021 1195 1024 1202 c 2,239,-1
 1024 1462 l 2,240,241
 1022 1462 1022 1462 1022 1462 c 2,223,224
413 1410 m 0,242,243
 372 1410 372 1410 346.5 1404.5 c 128,-1,244
 321 1399 321 1399 288 1383 c 0,245,246
 259 1369 259 1369 235 1346 c 0,247,248
 197 1308 197 1308 183 1265 c 0,249,250
 151 1165 151 1165 212 1040 c 0,251,252
 230 1002 230 1002 259 971 c 128,-1,253
 288 940 288 940 363 877 c 2,254,-1
 407 841 l 1,255,-1
 417 850 l 2,256,257
 468 896 468 896 574.5 926.5 c 128,-1,258
 681 957 681 957 822 967 c 1,259,-1
 849 968 l 1,260,-1
 846 990 l 2,261,262
 841 1051 841 1051 808 1119 c 0,263,264
 756 1227 756 1227 651 1317 c 0,265,266
 613 1350 613 1350 585.5 1366.5 c 128,-1,267
 558 1383 558 1383 523 1394 c 0,268,269
 474 1410 474 1410 413 1410 c 0,242,243
1024 838 m 1,270,271
 1277 838 1277 838 1455 775 c 0,272,273
 1534 747 1534 747 1576 712 c 0,274,275
 1609 684 1609 684 1610 659 c 2,276,-1
 1610 658 l 1,277,-1
 1608 647 l 1,278,-1
 1610 640 l 1,279,-1
 1610 634 l 1,280,-1
 1537 594 l 2,281,282
 1527 588 1527 588 1524.5 581 c 128,-1,283
 1522 574 1522 574 1525.5 567 c 128,-1,284
 1529 560 1529 560 1537 549 c 2,285,-1
 1610 460 l 1,286,-1
 1610 399 l 1,287,288
 1559 435 1559 435 1483 462 c 0,289,290
 1292 530 1292 530 1024 530 c 1,291,-1
 1024 585 l 1,292,293
 1049 585 1049 585 1065 594 c 2,294,-1
 1191 663 l 2,295,296
 1208 672 1208 672 1208 685.5 c 128,-1,297
 1208 699 1208 699 1191 708 c 2,298,-1
 1065 777 l 2,299,300
 1049 786 1049 786 1024 786 c 1,301,-1
 1024 838 l 1,270,271
1024 784 m 1,302,303
 1024 784 1024 784 1024 784 c 1,304,-1
 1024 586 l 1,305,306
 1005 586 1005 586 996 589 c 0,307,308
 986 593 986 593 920 629 c 128,-1,309
 854 665 854 665 849 670 c 0,310,311
 843 676 843 676 843 684.5 c 128,-1,312
 843 693 843 693 850 699 c 0,313,314
 858 706 858 706 924.5 742 c 128,-1,315
 991 778 991 778 1002 781 c 0,316,317
 1015 784 1015 784 1024 784 c 1,302,303
448 611 m 1,318,-1
 448 611 l 1,319,320
 453 611 453 611 456 609 c 2,321,-1
 510 576 l 2,322,323
 516 572 516 572 516.5 565 c 128,-1,324
 517 558 517 558 512 553 c 2,325,-1
 458 491 l 2,326,327
 451 485 451 485 442.5 488.5 c 128,-1,328
 434 492 434 492 434 501 c 2,329,-1
 434 597 l 2,330,331
 434 603 434 603 438 607 c 128,-1,332
 442 611 442 611 448 611 c 1,318,-1
1024 495 m 1,333,-1
 1024 444 l 1,334,335
 1277 444 1277 444 1455 382 c 0,336,337
 1534 353 1534 353 1576 319 c 0,338,339
 1610 290 1610 290 1608 264 c 0,340,341
 1600 223 1600 223 1545 190 c 0,342,343
 1528 180 1528 180 1510 171.5 c 128,-1,344
 1492 163 1492 163 1471.5 155 c 128,-1,345
 1451 147 1451 147 1441 143.5 c 128,-1,346
 1431 140 1431 140 1408 132.5 c 128,-1,347
 1385 125 1385 125 1383 125 c 0,348,349
 1330 107 1330 107 1227.5 96.5 c 128,-1,350
 1125 86 1125 86 1024 85 c 1,351,-1
 1024 439 l 1,352,353
 753 438 753 438 471 306 c 0,354,355
 456 300 456 300 442.5 309.5 c 128,-1,356
 429 319 429 319 431 335 c 0,357,358
 432 351 432 351 447 358 c 0,359,360
 731 491 731 491 1012 495 c 0,361,362
 1016 495 1016 495 1024 495 c 1,363,-1
 1024 495 l 1,333,-1
EndSplineSet
Ligature2: "'liga' Ligature standard lookup 0-1" n underscore k
EndChar

StartChar: n_r
Encoding: 65558 -1 23
Width: 2048
GlyphClass: 3
Flags: W
LayerCount: 2
Fore
SplineSet
863 2048 m 1,0,-1
 863 1842 l 1,1,-1
 652 1842 l 1,2,-1
 652 2048 l 1,3,-1
 311 2048 l 1,4,-1
 311 1553 l 1,5,-1
 447 1463 l 1,6,-1
 544 1398 l 1,7,-1
 546 1158 l 1,8,-1
 549 869 l 1,9,-1
 445 754 l 1,10,-1
 342 639 l 1,11,-1
 342 516 l 1,12,-1
 248 422 l 1,13,-1
 167 341 l 1,14,-1
 167 0 l 1,15,-1
 837 0 l 1,16,-1
 1017 0 l 1,17,-1
 1212 0 l 1,18,-1
 1881 0 l 1,19,-1
 1881 341 l 1,20,-1
 1706 516 l 1,21,-1
 1706 639 l 1,22,-1
 1500 869 l 1,23,-1
 1504 1398 l 1,24,-1
 1737 1553 l 1,25,-1
 1737 2048 l 1,26,-1
 1396 2048 l 1,27,-1
 1396 1842 l 1,28,-1
 1185 1842 l 1,29,-1
 1185 2048 l 1,30,-1
 1139 2048 l 1,31,-1
 1017 2048 l 1,32,-1
 909 2048 l 1,33,-1
 863 2048 l 1,0,-1
1017 1961 m 1,34,-1
 1097 1961 l 1,35,-1
 1097 1755 l 1,36,-1
 1484 1755 l 1,37,-1
 1484 1961 l 1,38,-1
 1649 1961 l 1,39,-1
 1649 1618 l 1,40,-1
 1189 1618 l 1,41,-1
 859 1618 l 1,42,-1
 399 1618 l 1,43,-1
 399 1715 l 1,44,-1
 1017 1715 l 1,45,-1
 1017 1961 l 1,34,-1
1017 1530 m 1,46,-1
 1189 1530 l 1,47,-1
 1545 1530 l 1,48,-1
 1418 1446 l 1,49,-1
 1390 1446 l 1,50,-1
 1017 1446 l 1,51,-1
 1017 1530 l 1,46,-1
1017 1358 m 1,52,-1
 1390 1358 l 1,53,-1
 1416 1358 l 1,54,-1
 1412 897 l 1,55,-1
 1389 897 l 1,56,-1
 1017 897 l 1,57,-1
 1017 1358 l 1,52,-1
1017 809 m 1,58,-1
 1389 809 l 1,59,-1
 1436 809 l 1,60,-1
 1590 637 l 1,61,-1
 1200 637 l 1,62,-1
 1017 637 l 1,63,-1
 1017 643 l 1,64,-1
 907 643 l 1,65,-1
 463 643 l 1,66,-1
 598 794 l 1,67,-1
 907 794 l 1,68,-1
 1017 794 l 1,69,-1
 1017 809 l 1,58,-1
1017 549 m 1,70,-1
 1200 549 l 1,71,-1
 1618 549 l 1,72,-1
 1618 480 l 1,73,-1
 1783 316 l 1,74,-1
 1194 316 l 1,75,-1
 1017 316 l 1,76,-1
 1017 324 l 1,77,-1
 734 324 l 1,78,-1
 273 324 l 1,79,-1
 425 475 l 1,80,-1
 734 475 l 1,81,-1
 1017 475 l 1,82,-1
 1017 549 l 1,70,-1
1017 228 m 1,83,-1
 1194 228 l 1,84,-1
 1794 228 l 1,85,-1
 1794 88 l 1,86,-1
 1212 88 l 1,87,-1
 1017 88 l 1,88,-1
 1017 228 l 1,89,-1
 1017 228 l 1,83,-1
EndSplineSet
Ligature2: "'liga' Ligature standard lookup 0-1" n underscore r
EndChar

StartChar: n_b
Encoding: 65559 -1 24
Width: 2048
GlyphClass: 3
Flags: W
LayerCount: 2
Fore
SplineSet
1025 2007 m 2,0,1
 1025 2007 1025 2007 1024 2007 c 0,2,3
 956 2007 956 2007 907.5 1958.5 c 128,-1,4
 859 1910 859 1910 859 1842 c 0,5,6
 859 1795 859 1795 883 1756 c 128,-1,7
 907 1717 907 1717 947 1696 c 1,8,9
 797 1578 797 1578 704.5 1495 c 128,-1,10
 612 1412 612 1412 558 1342 c 0,11,12
 498 1264 498 1264 476.5 1187 c 128,-1,13
 455 1110 455 1110 466 1024 c 0,14,15
 472 977 472 977 492 935.5 c 128,-1,16
 512 894 512 894 539.5 864.5 c 128,-1,17
 567 835 567 835 589 817.5 c 128,-1,18
 611 800 611 800 634 786 c 1,19,-1
 634 509 l 1,20,-1
 643 498 l 2,21,22
 693 434 693 434 809 413 c 1,23,24
 807 409 807 409 803.5 397 c 128,-1,25
 800 385 800 385 798 379 c 128,-1,26
 796 373 796 373 791 365.5 c 128,-1,27
 786 358 786 358 779 354 c 0,28,29
 734 327 734 327 641 326 c 0,30,31
 581 325 581 325 460 338.5 c 128,-1,32
 339 352 339 352 295 350 c 0,33,34
 178 347 178 347 109 298 c 0,35,36
 65 266 65 266 29 201 c 0,37,38
 0 146 0 146 0 86 c 2,39,-1
 0 43 l 1,40,-1
 43 43 l 2,41,42
 90 43 90 43 165 42 c 128,-1,43
 240 41 240 41 260 41 c 2,44,-1
 268 41 l 1,45,-1
 276 45 l 2,46,47
 303 56 303 56 317 79 c 1,48,49
 325 82 325 82 342 83 c 0,50,51
 386 84 386 84 445.5 76.5 c 128,-1,52
 505 69 505 69 550.5 61 c 128,-1,53
 596 53 596 53 662 51.5 c 128,-1,54
 728 50 728 50 786 63 c 1,55,-1
 787 63 l 1,56,-1
 787 64 l 1,57,58
 846 78 846 78 890 98 c 128,-1,59
 934 118 934 118 969 157 c 0,60,61
 1003 194 1003 194 1024 251 c 1,62,-1
 1024 251 l 1,63,64
 1045 194 1045 194 1079 157 c 0,65,66
 1114 118 1114 118 1158 98 c 128,-1,67
 1202 78 1202 78 1261 63 c 1,68,-1
 1262 63 l 1,69,70
 1319 50 1319 50 1385.5 51.5 c 128,-1,71
 1452 53 1452 53 1497.5 61 c 128,-1,72
 1543 69 1543 69 1602.5 76.5 c 128,-1,73
 1662 84 1662 84 1706 83 c 0,74,75
 1725 82 1725 82 1732 79 c 0,76,77
 1733 77 1733 77 1736.5 72 c 128,-1,78
 1740 67 1740 67 1750 58.5 c 128,-1,79
 1760 50 1760 50 1772 45 c 2,80,-1
 1780 41 l 1,81,-1
 1789 41 l 2,82,83
 1809 41 1809 41 1883.5 42 c 128,-1,84
 1958 43 1958 43 2005 43 c 2,85,-1
 2048 43 l 1,86,-1
 2048 86 l 2,87,88
 2048 146 2048 146 2019 200 c 0,89,90
 1983 266 1983 266 1939 298 c 0,91,92
 1871 347 1871 347 1753 350 c 0,93,94
 1709 352 1709 352 1588 338.5 c 128,-1,95
 1467 325 1467 325 1408 326 c 0,96,97
 1314 327 1314 327 1269 354 c 0,98,99
 1262 358 1262 358 1257 365.5 c 128,-1,100
 1252 373 1252 373 1250 378.5 c 128,-1,101
 1248 384 1248 384 1244.5 397 c 128,-1,102
 1241 410 1241 410 1239 413 c 1,103,104
 1355 434 1355 434 1405 498 c 2,105,-1
 1414 509 l 1,106,-1
 1414 786 l 1,107,108
 1437 800 1437 800 1459 817.5 c 128,-1,109
 1481 835 1481 835 1508.5 864.5 c 128,-1,110
 1536 894 1536 894 1556 935.5 c 128,-1,111
 1576 977 1576 977 1582 1024 c 0,112,113
 1593 1110 1593 1110 1572 1187 c 128,-1,114
 1551 1264 1551 1264 1491 1342 c 0,115,116
 1437 1411 1437 1411 1344.5 1494.5 c 128,-1,117
 1252 1578 1252 1578 1102 1695 c 1,118,119
 1142 1716 1142 1716 1166.5 1755.5 c 128,-1,120
 1191 1795 1191 1795 1191 1842 c 0,121,122
 1191 1910 1191 1910 1142 1958.5 c 128,-1,123
 1093 2007 1093 2007 1025 2007 c 2,0,1
1025 1922 m 2,124,125
 1059 1922 1059 1922 1082 1898.5 c 128,-1,126
 1105 1875 1105 1875 1105 1841.5 c 128,-1,127
 1105 1808 1105 1808 1082 1784.5 c 128,-1,128
 1059 1761 1059 1761 1025 1761 c 2,129,130
 1025 1761 1025 1761 1024 1761 c 0,131,132
 991 1761 991 1761 967.5 1784.5 c 128,-1,133
 944 1808 944 1808 944 1841.5 c 128,-1,134
 944 1875 944 1875 967.5 1898.5 c 128,-1,135
 991 1922 991 1922 1024 1922 c 0,136,137
 1025 1922 1025 1922 1025 1922 c 2,124,125
1024 1648 m 1,138,139
 1181 1526 1181 1526 1277 1440.5 c 128,-1,140
 1373 1355 1373 1355 1423 1290 c 0,141,142
 1476 1221 1476 1221 1491.5 1165 c 128,-1,143
 1507 1109 1507 1109 1497 1035 c 0,144,145
 1493 1003 1493 1003 1478 972.5 c 128,-1,146
 1463 942 1463 942 1446.5 923 c 128,-1,147
 1430 904 1430 904 1409 887.5 c 128,-1,148
 1388 871 1388 871 1378 865 c 128,-1,149
 1368 859 1368 859 1360 855 c 1,150,151
 1224 913 1224 913 1024 917 c 1,152,-1
 1024 1022 l 1,153,-1
 996 1022 l 1,154,-1
 996 1166 l 1,155,-1
 851 1166 l 1,156,-1
 851 1223 l 1,157,-1
 996 1223 l 1,158,-1
 996 1367 l 1,159,-1
 1024 1367 l 1,160,-1
 1024 1648 l 1,161,-1
 1024 1648 l 1,138,139
1024 1367 m 1,162,-1
 1024 1022 l 1,163,-1
 1052 1022 l 1,164,-1
 1052 1166 l 1,165,-1
 1196 1166 l 1,166,-1
 1196 1223 l 1,167,-1
 1052 1223 l 1,168,-1
 1052 1367 l 1,169,-1
 1024 1367 l 1,162,-1
1024 900 m 1,170,-1
 1024 844 l 1,171,172
 891 843 891 843 744 802 c 0,173,174
 727 797 727 797 716 809 c 128,-1,175
 705 821 705 821 708.5 836.5 c 128,-1,176
 712 852 712 852 729 857 c 0,177,178
 875 898 875 898 1010 900 c 0,179,180
 1014 900 1014 900 1024 900 c 1,170,-1
1024 832 m 1,181,182
 1218 828 1218 828 1329 784 c 1,183,-1
 1329 726 l 1,184,-1
 1292 689 l 1,185,-1
 1329 651 l 1,186,-1
 1329 565 l 1,187,188
 1167 600 1167 600 1024 602 c 1,189,-1
 1024 548 l 1,190,191
 891 547 891 547 744 506 c 0,192,193
 727 501 727 501 716 513 c 128,-1,194
 705 525 705 525 708 540.5 c 128,-1,195
 711 556 711 556 729 561 c 0,196,197
 875 602 875 602 1010 604 c 0,198,199
 1014 604 1014 604 1024 604 c 1,200,-1
 1024 681 l 1,201,-1
 1013 681 l 1,202,-1
 1013 703 l 1,203,-1
 962 703 l 1,204,-1
 962 747 l 1,205,-1
 1013 747 l 1,206,-1
 1013 770 l 1,207,-1
 1024 770 l 1,208,-1
 1024 832 l 1,181,182
1024 770 m 1,209,-1
 1024 681 l 1,210,-1
 1035 681 l 1,211,-1
 1035 703 l 1,212,-1
 1086 703 l 1,213,-1
 1086 747 l 1,214,-1
 1035 747 l 1,215,-1
 1035 770 l 1,216,-1
 1024 770 l 1,209,-1
709 715 m 1,217,-1
 743 683 l 1,218,-1
 709 640 l 1,219,-1
 709 715 l 1,217,-1
1024 545 m 1,220,221
 1149 544 1149 544 1289 516 c 1,222,223
 1257 498 1257 498 1215 491 c 0,224,225
 1169 485 1169 485 1052 485 c 2,226,-1
 1038 485 l 1,227,-1
 1024 485 l 1,228,-1
 1024 545 l 1,220,221
1160 405 m 1,229,230
 1168 373 1168 373 1174 354 c 128,-1,231
 1180 335 1180 335 1193.5 313.5 c 128,-1,232
 1207 292 1207 292 1226 281 c 0,233,234
 1290 242 1290 242 1406 241 c 0,235,236
 1478 239 1478 239 1600.5 252.5 c 128,-1,237
 1723 266 1723 266 1750 265 c 0,238,239
 1842 262 1842 262 1889 229 c 0,240,241
 1917 209 1917 209 1944 160 c 0,242,243
 1947 154 1947 154 1949 142.5 c 128,-1,244
 1951 131 1951 131 1952 128 c 1,245,246
 1933 128 1933 128 1878 127 c 128,-1,247
 1823 126 1823 126 1803 126 c 0,248,249
 1802 127 1802 127 1795 136 c 0,250,251
 1781 152 1781 152 1760 160 c 0,252,253
 1741 166 1741 166 1710 168 c 2,254,-1
 1709 168 l 2,255,256
 1656 170 1656 170 1594 163 c 128,-1,257
 1532 156 1532 156 1489 148 c 128,-1,258
 1446 140 1446 140 1386.5 137.5 c 128,-1,259
 1327 135 1327 135 1280 146 c 0,260,261
 1231 159 1231 159 1198 173.5 c 128,-1,262
 1165 188 1165 188 1142 214 c 0,263,264
 1104 255 1104 255 1092 402 c 1,265,266
 1104 402 1104 402 1160 405 c 1,267,-1
 1160 405 l 1,229,230
EndSplineSet
Ligature2: "'liga' Ligature standard lookup 0-1" n underscore b
EndChar

StartChar: n_n
Encoding: 65560 -1 25
Width: 2048
GlyphClass: 3
Flags: W
LayerCount: 2
Fore
SplineSet
858 2037 m 0,0,1
 842 2037 842 2037 830.5 2027 c 128,-1,2
 819 2017 819 2017 816 2002 c 2,3,-1
 778 1807 l 1,4,-1
 700 1802 l 1,5,-1
 547 1993 l 2,6,7
 531 2008 531 2008 512.5 2009 c 128,-1,8
 494 2010 494 2010 480 1994.5 c 128,-1,9
 466 1979 466 1979 470 1958 c 2,10,-1
 501 1772 l 1,11,-1
 326 1516 l 2,12,13
 319 1506 319 1506 318 1495 c 2,14,-1
 304 1343 l 1,15,16
 231 1247 231 1247 159 1139 c 0,17,18
 92 1038 92 1038 52 964 c 0,19,20
 26 914 26 914 13 880.5 c 128,-1,21
 0 847 0 847 0 814 c 0,22,23
 0 721 0 721 35.5 650.5 c 128,-1,24
 71 580 71 580 131 538 c 0,25,26
 188 498 188 498 240 509 c 0,27,28
 242 510 242 510 246 515.5 c 128,-1,29
 250 521 250 521 252 522 c 2,30,31
 252 522 252 522 251.5 521 c 128,-1,32
 251 520 251 520 251 520 c 1,33,34
 253 500 253 500 263 485 c 256,35,36
 273 470 273 470 292 463 c 0,37,38
 302 460 302 460 329 459 c 0,39,40
 333 459 333 459 356.5 457.5 c 128,-1,41
 380 456 380 456 390.5 456 c 128,-1,42
 401 456 401 456 420.5 457.5 c 128,-1,43
 440 459 440 459 456 463 c 0,44,45
 496 473 496 473 520 501 c 0,46,47
 546 532 546 532 549 581 c 0,48,49
 550 606 550 606 548 630 c 128,-1,50
 546 654 546 654 543 672 c 128,-1,51
 540 690 540 690 540 696 c 0,52,53
 540 706 540 706 543 711 c 0,54,55
 548 719 548 719 568 730 c 0,56,57
 603 750 603 750 720 778 c 0,58,59
 851 809 851 809 905 837 c 0,60,61
 927 849 927 849 944 862.5 c 128,-1,62
 961 876 961 876 969 884.5 c 128,-1,63
 977 893 977 893 991.5 911.5 c 128,-1,64
 1006 930 1006 930 1014 939 c 1,65,-1
 1001 736 l 1,66,67
 995 715 995 715 968 679 c 0,68,69
 906 596 906 596 785 523 c 0,70,71
 575 397 575 397 575 53 c 0,72,73
 575 35 575 35 588 23.5 c 128,-1,74
 601 12 601 12 618 12 c 2,75,-1
 1089 12 l 1,76,-1
 2003 12 l 2,77,78
 2021 11 2021 11 2033.5 24 c 128,-1,79
 2046 37 2046 37 2046 55 c 0,80,81
 2050 192 2050 192 2047.5 344 c 128,-1,82
 2045 496 2045 496 2036.5 632 c 128,-1,83
 2028 768 2028 768 2001.5 909 c 128,-1,84
 1975 1050 1975 1050 1930 1167 c 0,85,86
 1727 1699 1727 1699 1089 1778 c 0,87,88
 1075 1780 1075 1780 1063 1781 c 1,89,90
 1035 1838 1035 1838 991.5 1899 c 128,-1,91
 948 1960 948 1960 919 1992 c 2,92,-1
 889 2025 l 2,93,94
 876 2038 876 2038 858 2037 c 0,0,1
1089 1693 m 1,95,96
 1218 1677 1218 1677 1325.5 1641.5 c 128,-1,97
 1433 1606 1433 1606 1513.5 1557 c 128,-1,98
 1594 1508 1594 1508 1659 1441.5 c 128,-1,99
 1724 1375 1724 1375 1769 1300.5 c 128,-1,100
 1814 1226 1814 1226 1849 1135 c 0,101,102
 1889 1031 1889 1031 1913.5 902 c 128,-1,103
 1938 773 1938 773 1946.5 645.5 c 128,-1,104
 1955 518 1955 518 1958.5 375 c 128,-1,105
 1962 232 1962 232 1958 99 c 1,106,-1
 1089 99 l 1,107,-1
 1089 747 l 1,108,-1
 1108 1042 l 2,109,110
 1109 1067 1109 1067 1089 1081 c 1,111,-1
 1089 1634 l 1,112,113
 1081 1640 1081 1640 1089 1645 c 1,114,-1
 1089 1693 l 1,95,96
627 1414 m 0,115,116
 629 1414 629 1414 630 1414 c 0,117,118
 636 1414 636 1414 640 1412 c 0,119,120
 647 1408 647 1408 645 1403.5 c 128,-1,121
 643 1399 643 1399 639 1396 c 128,-1,122
 635 1393 635 1393 629 1386.5 c 128,-1,123
 623 1380 623 1380 621 1374 c 0,124,125
 617 1361 617 1361 617 1348 c 128,-1,126
 617 1335 617 1335 616 1327 c 128,-1,127
 615 1319 615 1319 606 1310 c 0,128,129
 596 1300 596 1300 569 1300.5 c 128,-1,130
 542 1301 542 1301 531 1296 c 0,131,132
 523 1291 523 1291 516.5 1283 c 128,-1,133
 510 1275 510 1275 505.5 1270.5 c 128,-1,134
 501 1266 501 1266 496 1267 c 128,-1,135
 491 1268 491 1268 488 1273.5 c 128,-1,136
 485 1279 485 1279 485 1284 c 2,137,-1
 485 1289 l 2,138,139
 487 1332 487 1332 497 1345 c 0,140,141
 519 1373 519 1373 560 1393.5 c 128,-1,142
 601 1414 601 1414 627 1414 c 0,115,116
206 847 m 1,143,144
 208 847 208 847 209 846 c 0,145,146
 217 844 217 844 215.5 834 c 128,-1,147
 214 824 214 824 208.5 814.5 c 128,-1,148
 203 805 203 805 199 794 c 128,-1,149
 195 783 195 783 198 779 c 0,150,151
 202 770 202 770 215 769.5 c 128,-1,152
 228 769 228 769 231 766 c 0,153,154
 236 761 236 761 237 748.5 c 128,-1,155
 238 736 238 736 235 729 c 0,156,157
 231 721 231 721 220 713 c 128,-1,158
 209 705 209 705 199 704 c 0,159,160
 180 700 180 700 163 718 c 0,161,162
 144 737 144 737 152 777 c 0,163,164
 155 793 155 793 175 819.5 c 128,-1,165
 195 846 195 846 206 847 c 1,166,-1
 206 847 l 1,143,144
EndSplineSet
Ligature2: "'liga' Ligature standard lookup 0-1" n underscore n
EndChar

StartChar: n_p
Encoding: 65561 -1 26
Width: 2048
GlyphClass: 3
Flags: W
LayerCount: 2
Fore
SplineSet
1024 2048 m 128,-1,1
 936 2048 936 2048 861.5 2003.5 c 128,-1,2
 787 1959 787 1959 744 1883 c 128,-1,3
 701 1807 701 1807 701 1718 c 0,4,5
 701 1670 701 1670 721.5 1625.5 c 128,-1,6
 742 1581 742 1581 779 1530 c 1,7,8
 679 1485 679 1485 609 1414 c 128,-1,9
 539 1343 539 1343 512 1253 c 2,10,-1
 495 1197 l 1,11,-1
 837 1197 l 1,12,13
 829 963 829 963 753 809 c 0,14,15
 742 786 742 786 681.5 678 c 128,-1,16
 621 570 621 570 590 494 c 1,17,18
 453 470 453 470 361 372.5 c 128,-1,19
 269 275 269 275 269 142 c 2,20,-1
 269 43 l 1,21,-1
 269 0 l 1,22,-1
 877 0 l 1,23,-1
 1171 0 l 1,24,-1
 1779 0 l 1,25,-1
 1779 43 l 2,26,27
 1779 108 1779 108 1779 142 c 0,28,29
 1779 275 1779 275 1687 372.5 c 128,-1,30
 1595 470 1595 470 1458 494 c 1,31,32
 1427 570 1427 570 1366.5 678 c 128,-1,33
 1306 786 1306 786 1295 809 c 0,34,35
 1219 963 1219 963 1212 1197 c 1,36,-1
 1553 1197 l 1,37,-1
 1536 1253 l 2,38,39
 1509 1343 1509 1343 1439 1414 c 128,-1,40
 1369 1485 1369 1485 1270 1530 c 1,41,42
 1306 1581 1306 1581 1326.5 1625.5 c 128,-1,43
 1347 1670 1347 1670 1347 1718 c 0,44,45
 1347 1807 1347 1807 1304 1883 c 128,-1,46
 1261 1959 1261 1959 1186.5 2003.5 c 128,-1,0
 1112 2048 1112 2048 1024 2048 c 128,-1,1
1024 1962 m 1,47,48
 1123 1962 1123 1962 1193 1890.5 c 128,-1,49
 1263 1819 1263 1819 1263 1718 c 0,50,51
 1263 1614 1263 1614 1190 1542 c 2,52,-1
 1141 1494 l 1,53,-1
 1205 1471 l 2,54,55
 1347 1419 1347 1419 1421 1283 c 1,56,-1
 1123 1283 l 1,57,-1
 1024 1283 l 1,58,-1
 1024 1962 l 1,47,48
1024 1197 m 1,59,-1
 1124 1197 l 1,60,61
 1130 951 1130 951 1219 771 c 0,62,63
 1234 740 1234 740 1295.5 632 c 128,-1,64
 1357 524 1357 524 1386 449 c 2,65,-1
 1395 424 l 1,66,-1
 1421 422 l 2,67,68
 1538 411 1538 411 1616 330.5 c 128,-1,69
 1694 250 1694 250 1694 142 c 2,70,-1
 1694 86 l 1,71,-1
 1171 86 l 1,72,-1
 1024 86 l 1,73,-1
 1024 1197 l 1,74,-1
 1024 1197 l 1,59,-1
EndSplineSet
Ligature2: "'liga' Ligature standard lookup 0-1" n underscore p
EndChar

StartChar: n_e
Encoding: 65562 -1 27
Width: 2048
GlyphClass: 3
Flags: W
LayerCount: 2
Fore
SplineSet
980 2013 m 1,0,-1
 980 2013 l 1,1,-1
 980 1939 l 2,2,3
 981 1939 981 1939 982 1939 c 1,4,-1
 982 1939 l 1,5,6
 1001 1938 1001 1938 1013.5 1924.5 c 128,-1,7
 1026 1911 1026 1911 1026 1892.5 c 128,-1,8
 1026 1874 1026 1874 1013.5 1861 c 128,-1,9
 1001 1848 1001 1848 983 1846 c 0,10,11
 981 1846 981 1846 980 1846 c 2,12,-1
 980 1796 l 1,13,14
 954 1835 954 1835 922 1876.5 c 128,-1,15
 890 1918 890 1918 870 1940 c 2,16,-1
 851 1962 l 2,17,18
 838 1975 838 1975 820 1974 c 0,19,20
 806 1973 806 1973 795 1964 c 128,-1,21
 784 1955 784 1955 781 1940 c 2,22,-1
 744 1753 l 1,23,-1
 669 1749 l 1,24,-1
 523 1931 l 2,25,26
 508 1946 508 1946 490.5 1947 c 128,-1,27
 473 1948 473 1948 459.5 1933 c 128,-1,28
 446 1918 446 1918 449 1898 c 2,29,-1
 479 1721 l 1,30,-1
 311 1475 l 2,31,32
 305 1466 305 1466 304 1455 c 2,33,-1
 291 1310 l 1,34,35
 221 1218 221 1218 152 1114 c 0,36,37
 88 1018 88 1018 50 948 c 0,38,39
 24 899 24 899 12 867 c 128,-1,40
 0 835 0 835 0 804 c 0,41,42
 0 715 0 715 34 647.5 c 128,-1,43
 68 580 68 580 125 540 c 0,44,45
 180 501 180 501 229 512 c 0,46,47
 232 513 232 513 235.5 518 c 128,-1,48
 239 523 239 523 241 524 c 2,49,50
 241 524 241 524 241 523 c 0,51,52
 242 503 242 503 251 489 c 0,53,54
 262 474 262 474 280 468 c 0,55,56
 289 465 289 465 315 464 c 0,57,58
 319 464 319 464 341 462.5 c 128,-1,59
 363 461 363 461 373.5 461 c 128,-1,60
 384 461 384 461 402.5 462.5 c 128,-1,61
 421 464 421 464 436 468 c 0,62,63
 474 477 474 477 497 504 c 0,64,65
 522 534 522 534 525 581 c 0,66,67
 526 604 526 604 524 627.5 c 128,-1,68
 522 651 522 651 519.5 668 c 128,-1,69
 517 685 517 685 517 691 c 0,70,71
 517 700 517 700 519 705 c 0,72,73
 524 713 524 713 543 723 c 0,74,75
 576 742 576 742 689 769 c 0,76,77
 814 799 814 799 866 826 c 0,78,79
 887 837 887 837 903 850 c 128,-1,80
 919 863 919 863 927 871.5 c 128,-1,81
 935 880 935 880 948.5 897.5 c 128,-1,82
 962 915 962 915 970 923 c 1,83,-1
 957 729 l 2,84,85
 952 709 952 709 926 674 c 0,86,87
 867 595 867 595 751 525 c 0,88,89
 706 498 706 498 670 458 c 128,-1,90
 634 418 634 418 613.5 378 c 128,-1,91
 593 338 593 338 578.5 291.5 c 128,-1,92
 564 245 564 245 558.5 210.5 c 128,-1,93
 553 176 553 176 551 141 c 128,-1,94
 549 106 549 106 549 94 c 128,-1,95
 549 82 549 82 550 76 c 0,96,97
 551 59 551 59 563 47.5 c 128,-1,98
 575 36 575 36 591 36 c 2,99,-1
 1110 36 l 2,100,101
 1158 36 1158 36 1203 38.5 c 128,-1,102
 1248 41 1248 41 1312 49.5 c 128,-1,103
 1376 58 1376 58 1428 73 c 128,-1,104
 1480 88 1480 88 1530 116 c 128,-1,105
 1580 144 1580 144 1609 181 c 0,106,107
 1613 188 1613 188 1617 195 c 0,108,109
 1624 208 1624 208 1631 234 c 0,110,111
 1633 242 1633 242 1634 320 c 2,112,-1
 1634 627 l 1,113,114
 1634 627 1634 627 1633.5 632 c 128,-1,115
 1633 637 1633 637 1633 638 c 2,116,-1
 1633 639 l 2,117,118
 1634 642 1634 642 1631 668 c 0,119,120
 1626 686 1626 686 1619 700 c 0,121,122
 1615 707 1615 707 1611 713.5 c 128,-1,123
 1607 720 1607 720 1601 727 c 1,124,-1
 1917 1512 l 1,125,126
 1917 1512 1917 1512 1921.5 1511.5 c 128,-1,127
 1926 1511 1926 1511 1928 1511 c 0,128,129
 1977 1511 1977 1511 2012.5 1546.5 c 128,-1,130
 2048 1582 2048 1582 2048 1631.5 c 128,-1,131
 2048 1681 2048 1681 2012.5 1716.5 c 128,-1,132
 1977 1752 1977 1752 1927.5 1752 c 128,-1,133
 1878 1752 1878 1752 1843 1716.5 c 128,-1,134
 1808 1681 1808 1681 1808 1631 c 0,135,136
 1808 1589 1808 1589 1836 1555 c 1,137,-1
 1453 1139 l 1,138,-1
 1487 1708 l 1,139,140
 1531 1715 1531 1715 1560 1748.5 c 128,-1,141
 1589 1782 1589 1782 1589 1826 c 0,142,143
 1589 1876 1589 1876 1553.5 1911.5 c 128,-1,144
 1518 1947 1518 1947 1469 1947 c 128,-1,145
 1420 1947 1420 1947 1384.5 1911.5 c 128,-1,146
 1349 1876 1349 1876 1349 1826 c 0,147,148
 1349 1768 1349 1768 1397 1732 c 1,149,-1
 1144 1216 l 1,150,-1
 1022 1777 l 1,151,-1
 1023 1781 l 1,152,153
 1057 1795 1057 1795 1078.5 1825 c 128,-1,154
 1100 1855 1100 1855 1100 1893 c 0,155,156
 1100 1941 1100 1941 1065.5 1976.5 c 128,-1,157
 1031 2012 1031 2012 983 2013 c 0,158,159
 982 2013 982 2013 981 2013 c 128,-1,160
 980 2013 980 2013 980 2013 c 1,0,-1
1468.5 1873 m 128,-1,162
 1488 1873 1488 1873 1501.5 1859.5 c 128,-1,163
 1515 1846 1515 1846 1515 1826.5 c 128,-1,164
 1515 1807 1515 1807 1501.5 1793.5 c 128,-1,165
 1488 1780 1488 1780 1468.5 1780 c 128,-1,166
 1449 1780 1449 1780 1436 1793.5 c 128,-1,167
 1423 1807 1423 1807 1423 1826.5 c 128,-1,168
 1423 1846 1423 1846 1436 1859.5 c 128,-1,161
 1449 1873 1449 1873 1468.5 1873 c 128,-1,162
1927.5 1678 m 128,-1,170
 1947 1678 1947 1678 1960.5 1664.5 c 128,-1,171
 1974 1651 1974 1651 1974 1631.5 c 128,-1,172
 1974 1612 1974 1612 1960.5 1598.5 c 128,-1,173
 1947 1585 1947 1585 1927.5 1585 c 128,-1,174
 1908 1585 1908 1585 1894.5 1598.5 c 128,-1,175
 1881 1612 1881 1612 1881 1631.5 c 128,-1,176
 1881 1651 1881 1651 1894.5 1664.5 c 128,-1,169
 1908 1678 1908 1678 1927.5 1678 c 128,-1,170
1393 1536 m 1,177,-1
 1355 910 l 1,178,-1
 1762 1352 l 1,179,-1
 1533 782 l 1,180,181
 1488 810 1488 810 1426 832 c 0,182,183
 1239 893 1239 893 997 897 c 1,184,-1
 991 1527 l 1,185,-1
 1114 965 l 1,186,-1
 1393 1536 l 1,177,-1
600 1378 m 1,187,-1
 600 1378 l 1,188,-1
 603 1378 l 2,189,190
 609 1377 609 1377 612 1375 c 0,191,192
 619 1372 619 1372 617.5 1367.5 c 128,-1,193
 616 1363 616 1363 611.5 1360 c 128,-1,194
 607 1357 607 1357 601.5 1351.5 c 128,-1,195
 596 1346 596 1346 594 1340 c 0,196,197
 590 1327 590 1327 590 1314.5 c 128,-1,198
 590 1302 590 1302 589 1294 c 128,-1,199
 588 1286 588 1286 580 1278 c 0,200,201
 570 1268 570 1268 544 1269 c 128,-1,202
 518 1270 518 1270 508 1265 c 0,203,204
 501 1260 501 1260 494.5 1252.5 c 128,-1,205
 488 1245 488 1245 484 1240.5 c 128,-1,206
 480 1236 480 1236 474.5 1237 c 128,-1,207
 469 1238 469 1238 466.5 1243 c 128,-1,208
 464 1248 464 1248 464 1253 c 2,209,-1
 464 1258 l 2,210,211
 465 1299 465 1299 476 1312 c 0,212,213
 496 1338 496 1338 535.5 1357.5 c 128,-1,214
 575 1377 575 1377 600 1378 c 1,187,-1
197 835 m 0,215,216
 198 835 198 835 200 834 c 0,217,218
 208 832 208 832 206.5 823 c 128,-1,219
 205 814 205 814 199.5 804.5 c 128,-1,220
 194 795 194 795 190 784.5 c 128,-1,221
 186 774 186 774 189 770 c 0,222,223
 194 762 194 762 206 761.5 c 128,-1,224
 218 761 218 761 221 758 c 0,225,226
 225 753 225 753 226 741 c 128,-1,227
 227 729 227 729 224 722 c 256,228,229
 221 715 221 715 210.5 707.5 c 128,-1,230
 200 700 200 700 191 698 c 0,231,232
 172 695 172 695 155 712 c 0,233,234
 138 730 138 730 145 768 c 0,235,236
 148 784 148 784 167.5 809 c 128,-1,237
 187 834 187 834 197 835 c 0,215,216
997 814 m 1,238,239
 1233 812 1233 812 1398 753 c 0,240,241
 1476 726 1476 726 1517 692 c 0,242,243
 1549 665 1549 665 1550 640 c 0,244,245
 1550 635 1550 635 1550 627 c 128,-1,246
 1550 619 1550 619 1550 616 c 2,247,-1
 1479 577 l 2,248,249
 1469 571 1469 571 1466.5 564 c 128,-1,250
 1464 557 1464 557 1467 550.5 c 128,-1,251
 1470 544 1470 544 1479 533 c 2,252,-1
 1550 446 l 1,253,-1
 1550 387 l 1,254,255
 1500 422 1500 422 1426 448 c 0,256,257
 1248 511 1248 511 1000 514 c 1,258,-1
 999 565 l 1,259,260
 1010 568 1010 568 1018 572 c 2,261,-1
 1141 639 l 2,262,263
 1157 648 1157 648 1157 661 c 128,-1,264
 1157 674 1157 674 1141 683 c 2,265,-1
 1018 751 l 2,266,267
 1010 755 1010 755 998 758 c 1,268,-1
 997 814 l 1,238,239
1001 431 m 1,269,270
 1234 428 1234 428 1398 370 c 0,271,272
 1476 342 1476 342 1517 308 c 0,273,274
 1550 281 1550 281 1548 255 c 0,275,276
 1546 232 1546 232 1527 213 c 0,277,278
 1478 173 1478 173 1420 150 c 0,279,280
 1381 136 1381 136 1340 127 c 128,-1,281
 1299 118 1299 118 1251 114.5 c 128,-1,282
 1203 111 1203 111 1172.5 110 c 128,-1,283
 1142 109 1142 109 1083.5 109 c 128,-1,284
 1025 109 1025 109 1003 108 c 1,285,-1
 1001 431 l 1,286,-1
 1001 431 l 1,269,270
EndSplineSet
Ligature2: "'liga' Ligature standard lookup 0-1" n underscore e
EndChar

StartChar: n_t
Encoding: 65563 -1 28
Width: 2048
GlyphClass: 3
Flags: W
LayerCount: 2
Fore
SplineSet
1106 2048 m 1,0,-1
 1106 1961 l 1,1,-1
 1106 1877 l 1,2,3
 1080 1916 1080 1916 1047 1954.5 c 128,-1,4
 1014 1993 1014 1993 995 2012 c 2,5,-1
 975 2031 l 2,6,7
 962 2044 962 2044 944 2043 c 2,8,-1
 943 2043 l 2,9,10
 928 2043 928 2043 916.5 2033 c 128,-1,11
 905 2023 905 2023 902 2008 c 2,12,-1
 863 1811 l 1,13,-1
 785 1807 l 1,14,-1
 631 1998 l 2,15,16
 615 2014 615 2014 596.5 2015 c 128,-1,17
 578 2016 578 2016 564 2000.5 c 128,-1,18
 550 1985 550 1985 553 1964 c 2,19,-1
 585 1777 l 1,20,-1
 408 1519 l 2,21,22
 402 1509 402 1509 401 1498 c 2,23,-1
 387 1345 l 1,24,25
 313 1249 313 1249 241 1140 c 0,26,27
 173 1038 173 1038 134 964 c 0,28,29
 107 913 107 913 94 879.5 c 128,-1,30
 81 846 81 846 81 813 c 0,31,32
 81 719 81 719 117 648 c 128,-1,33
 153 577 153 577 213 535 c 0,34,35
 270 494 270 494 322 506 c 0,36,37
 324 507 324 507 328 512.5 c 128,-1,38
 332 518 332 518 334 519 c 2,39,40
 334 519 334 519 334 518 c 128,-1,41
 334 517 334 517 334 517 c 2,42,43
 335 497 335 497 345 482 c 0,44,45
 356 466 356 466 375 460 c 0,46,47
 385 457 385 457 412 455 c 0,48,49
 416 455 416 455 439.5 454 c 128,-1,50
 463 453 463 453 474 452.5 c 128,-1,51
 485 452 485 452 504 453.5 c 128,-1,52
 523 455 523 455 539 460 c 0,53,54
 580 470 580 470 604 498 c 0,55,56
 630 529 630 529 633 578 c 0,57,58
 634 603 634 603 632 627.5 c 128,-1,59
 630 652 630 652 627.5 670 c 128,-1,60
 625 688 625 688 624 694 c 0,61,62
 624 704 624 704 627 709 c 0,63,64
 632 718 632 718 652 728 c 0,65,66
 687 748 687 748 805 776 c 0,67,68
 937 807 937 807 991 836 c 0,69,70
 1013 848 1013 848 1030.5 861.5 c 128,-1,71
 1048 875 1048 875 1056 884 c 128,-1,72
 1064 893 1064 893 1078.5 911 c 128,-1,73
 1093 929 1093 929 1101 939 c 1,74,-1
 1087 734 l 2,75,76
 1082 713 1082 713 1054 677 c 0,77,78
 992 593 992 593 871 520 c 0,79,80
 659 393 659 393 659 47 c 0,81,82
 660 18 660 18 687 8 c 0,83,84
 695 6 695 6 703 6 c 2,85,-1
 1106 6 l 1,86,-1
 1106 0 l 1,87,-1
 1298 0 l 1,88,-1
 1968 0 l 1,89,-1
 1968 341 l 1,90,-1
 1793 516 l 1,91,-1
 1793 639 l 1,92,-1
 1586 869 l 1,93,-1
 1591 1398 l 1,94,-1
 1824 1553 l 1,95,-1
 1824 2048 l 1,96,-1
 1483 2048 l 1,97,-1
 1483 1842 l 1,98,-1
 1272 1842 l 1,99,-1
 1272 2048 l 1,100,-1
 1226 2048 l 1,101,-1
 1203 2048 l 1,102,-1
 1106 2048 l 1,0,-1
1571 1961 m 1,103,-1
 1736 1961 l 1,104,-1
 1736 1618 l 1,105,-1
 1276 1618 l 1,106,-1
 1121 1618 l 1,107,-1
 1121 1755 l 1,108,-1
 1203 1755 l 1,109,-1
 1571 1755 l 1,110,-1
 1571 1961 l 1,103,-1
1121 1530 m 1,111,-1
 1276 1530 l 1,112,-1
 1632 1530 l 1,113,-1
 1504 1446 l 1,114,-1
 1476 1446 l 1,115,-1
 1121 1446 l 1,116,-1
 1121 1530 l 1,111,-1
712 1417 m 1,117,-1
 712 1417 l 1,118,-1
 715 1417 l 2,119,120
 721 1416 721 1416 724 1414 c 0,121,122
 731 1410 731 1410 729.5 1405.5 c 128,-1,123
 728 1401 728 1401 724 1398 c 128,-1,124
 720 1395 720 1395 714 1389 c 128,-1,125
 708 1383 708 1383 706 1376 c 0,126,127
 701 1363 701 1363 701.5 1350 c 128,-1,128
 702 1337 702 1337 700.5 1328.5 c 128,-1,129
 699 1320 699 1320 691 1312 c 0,130,131
 681 1301 681 1301 653.5 1302 c 128,-1,132
 626 1303 626 1303 615 1298 c 0,133,134
 607 1293 607 1293 600.5 1285 c 128,-1,135
 594 1277 594 1277 589.5 1272 c 128,-1,136
 585 1267 585 1267 579.5 1268 c 128,-1,137
 574 1269 574 1269 571.5 1274.5 c 128,-1,138
 569 1280 569 1280 569 1285 c 2,139,-1
 569 1290 l 2,140,141
 570 1334 570 1334 581 1347 c 0,142,143
 603 1375 603 1375 644.5 1395.5 c 128,-1,144
 686 1416 686 1416 712 1417 c 1,117,-1
1121 1358 m 1,145,-1
 1476 1358 l 1,146,-1
 1503 1358 l 1,147,-1
 1499 897 l 1,148,-1
 1475 897 l 1,149,-1
 1121 897 l 1,150,-1
 1121 1358 l 1,145,-1
288 846 m 0,151,152
 290 846 290 846 291 845 c 0,153,154
 299 843 299 843 297.5 833 c 128,-1,155
 296 823 296 823 290.5 813.5 c 128,-1,156
 285 804 285 804 281 793 c 128,-1,157
 277 782 277 782 280 777 c 0,158,159
 285 769 285 769 298 768.5 c 128,-1,160
 311 768 311 768 313 765 c 0,161,162
 318 760 318 760 319 747 c 128,-1,163
 320 734 320 734 317 727 c 0,164,165
 314 719 314 719 302.5 711.5 c 128,-1,166
 291 704 291 704 281 702 c 0,167,168
 262 699 262 699 244 717 c 256,169,170
 226 735 226 735 234 776 c 0,171,172
 237 792 237 792 257 818.5 c 128,-1,173
 277 845 277 845 288 846 c 0,151,152
1121 809 m 1,174,-1
 1475 809 l 1,175,-1
 1523 809 l 1,176,-1
 1677 637 l 1,177,-1
 1287 637 l 1,178,-1
 1121 637 l 1,179,-1
 1121 809 l 1,174,-1
1121 549 m 1,180,-1
 1287 549 l 1,181,-1
 1705 549 l 1,182,-1
 1705 480 l 1,183,-1
 1870 316 l 1,184,-1
 1281 316 l 1,185,-1
 1121 316 l 1,186,-1
 1121 549 l 1,180,-1
1121 228 m 1,187,-1
 1281 228 l 1,188,-1
 1881 228 l 1,189,-1
 1881 88 l 1,190,-1
 1298 88 l 1,191,-1
 1121 88 l 1,192,-1
 1121 228 l 1,193,-1
 1121 228 l 1,187,-1
EndSplineSet
Ligature2: "'liga' Ligature standard lookup 0-1" n underscore t
EndChar

StartChar: n_a
Encoding: 65564 -1 29
Width: 2048
GlyphClass: 3
Flags: W
LayerCount: 2
Fore
SplineSet
848 2026 m 0,0,1
 833 2026 833 2026 821.5 2016 c 128,-1,2
 810 2006 810 2006 808 1992 c 2,3,-1
 769 1798 l 1,4,-1
 692 1794 l 1,5,-1
 541 1982 l 2,6,7
 525 1998 525 1998 507 1998.5 c 128,-1,8
 489 1999 489 1999 475 1984 c 128,-1,9
 461 1969 461 1969 465 1948 c 2,10,-1
 496 1764 l 1,11,-1
 322 1510 l 2,12,13
 316 1501 316 1501 315 1490 c 2,14,-1
 301 1339 l 1,15,16
 228 1245 228 1245 157 1138 c 0,17,18
 91 1038 91 1038 52 965 c 0,19,20
 34 932 34 932 24.5 911.5 c 128,-1,21
 15 891 15 891 7.5 865 c 128,-1,22
 0 839 0 839 0 817 c 0,23,24
 0 725 0 725 35.5 655 c 128,-1,25
 71 585 71 585 129 543 c 0,26,27
 186 503 186 503 237 515 c 0,28,29
 239 515 239 515 243 520.5 c 128,-1,30
 247 526 247 526 249 527 c 2,31,32
 249 527 249 527 249 526 c 0,33,34
 250 505 250 505 260 491 c 0,35,36
 270 476 270 476 289 469 c 0,37,38
 299 466 299 466 326 465 c 0,39,40
 330 465 330 465 353 463.5 c 128,-1,41
 376 462 376 462 386.5 462 c 128,-1,42
 397 462 397 462 416 463.5 c 128,-1,43
 435 465 435 465 451 469 c 0,44,45
 490 479 490 479 514 507 c 0,46,47
 540 537 540 537 543 586 c 0,48,49
 544 610 544 610 542 634 c 128,-1,50
 540 658 540 658 537.5 676 c 128,-1,51
 535 694 535 694 534 700 c 0,52,53
 534 709 534 709 537 714 c 0,54,55
 542 723 542 723 561 733 c 0,56,57
 596 753 596 753 712 780 c 0,58,59
 841 811 841 811 895 839 c 0,60,61
 917 851 917 851 934 864 c 128,-1,62
 951 877 951 877 959 886 c 128,-1,63
 967 895 967 895 981 913 c 128,-1,64
 995 931 995 931 1003 940 c 1,65,-1
 990 739 l 1,66,67
 984 718 984 718 957 682 c 0,68,69
 896 600 896 600 777 529 c 0,70,71
 730 500 730 500 693 458.5 c 128,-1,72
 656 417 656 417 634.5 376 c 128,-1,73
 613 335 613 335 598 287 c 128,-1,74
 583 239 583 239 577.5 203.5 c 128,-1,75
 572 168 572 168 569.5 131 c 128,-1,76
 567 94 567 94 567.5 82 c 128,-1,77
 568 70 568 70 568 63 c 0,78,79
 569 46 569 46 581.5 34.5 c 128,-1,80
 594 23 594 23 611 22 c 2,81,-1
 1022 22 l 1,82,-1
 1022 219 l 1,83,84
 1041 177 1041 177 1068 147 c 0,85,86
 1104 108 1104 108 1148.5 88 c 128,-1,87
 1193 68 1193 68 1252 53 c 1,88,-1
 1253 53 l 1,89,-1
 1254 53 l 1,90,91
 1312 39 1312 39 1378.5 41 c 128,-1,92
 1445 43 1445 43 1491 51 c 128,-1,93
 1537 59 1537 59 1597 66.5 c 128,-1,94
 1657 74 1657 74 1702 73 c 0,95,96
 1721 72 1721 72 1729 69 c 0,97,98
 1730 67 1730 67 1733.5 62 c 128,-1,99
 1737 57 1737 57 1747 48 c 128,-1,100
 1757 39 1757 39 1769 34 c 2,101,-1
 1777 31 l 1,102,-1
 1786 31 l 2,103,104
 1806 31 1806 31 1881.5 32 c 128,-1,105
 1957 33 1957 33 2005 33 c 2,106,-1
 2048 33 l 1,107,-1
 2048 76 l 2,108,109
 2048 137 2048 137 2018 192 c 0,110,111
 1983 258 1983 258 1938 290 c 0,112,113
 1869 340 1869 340 1750 343 c 0,114,115
 1705 345 1705 345 1583 331 c 128,-1,116
 1461 317 1461 317 1401 318 c 0,117,118
 1307 320 1307 320 1261 347 c 0,119,120
 1254 351 1254 351 1248.5 359 c 128,-1,121
 1243 367 1243 367 1241 372.5 c 128,-1,122
 1239 378 1239 378 1235.5 390.5 c 128,-1,123
 1232 403 1232 403 1231 407 c 1,124,125
 1348 428 1348 428 1398 492 c 2,126,-1
 1408 504 l 1,127,-1
 1408 784 l 1,128,129
 1430 798 1430 798 1452 815.5 c 128,-1,130
 1474 833 1474 833 1502 862.5 c 128,-1,131
 1530 892 1530 892 1550.5 934.5 c 128,-1,132
 1571 977 1571 977 1577 1025 c 0,133,134
 1588 1111 1588 1111 1566.5 1189 c 128,-1,135
 1545 1267 1545 1267 1484 1345 c 0,136,137
 1430 1416 1430 1416 1336.5 1500 c 128,-1,138
 1243 1584 1243 1584 1092 1703 c 1,139,140
 1132 1724 1132 1724 1157 1764 c 128,-1,141
 1182 1804 1182 1804 1182 1851 c 0,142,143
 1182 1920 1182 1920 1132.5 1969 c 128,-1,144
 1083 2018 1083 2018 1014 2018 c 2,145,-1
 1013 2018 l 1,146,-1
 1013 1932 l 1,147,-1
 1014 1932 l 2,148,149
 1048 1932 1048 1932 1071.5 1908.5 c 128,-1,150
 1095 1885 1095 1885 1095 1851 c 0,151,152
 1095 1819 1095 1819 1074 1796 c 128,-1,153
 1053 1773 1053 1773 1022 1770 c 1,154,-1
 1022 1842 l 1,155,156
 995 1884 995 1884 959.5 1927.5 c 128,-1,157
 924 1971 924 1971 902 1993 c 2,158,-1
 880 2014 l 2,159,160
 866 2027 866 2027 848 2026 c 0,0,1
1022 1648 m 1,161,162
 1177 1527 1177 1527 1271.5 1442.5 c 128,-1,163
 1366 1358 1366 1358 1416 1293 c 0,164,165
 1470 1224 1470 1224 1485.5 1167 c 128,-1,166
 1501 1110 1501 1110 1491 1036 c 0,167,168
 1487 1003 1487 1003 1471.5 972.5 c 128,-1,169
 1456 942 1456 942 1439.5 922.5 c 128,-1,170
 1423 903 1423 903 1402 886 c 128,-1,171
 1381 869 1381 869 1371 863 c 128,-1,172
 1361 857 1361 857 1353 853 c 1,173,174
 1219 911 1219 911 1022 916 c 1,175,-1
 1022 1022 l 1,176,-1
 1041 1022 l 1,177,-1
 1041 1168 l 1,178,-1
 1187 1168 l 1,179,-1
 1187 1225 l 1,180,-1
 1041 1225 l 1,181,-1
 1041 1371 l 1,182,-1
 1022 1371 l 1,183,-1
 1022 1648 l 1,161,162
620 1410 m 0,184,185
 621 1410 621 1410 623 1410 c 0,186,187
 629 1410 629 1410 633 1408 c 0,188,189
 640 1404 640 1404 638.5 1399.5 c 128,-1,190
 637 1395 637 1395 632.5 1392 c 128,-1,191
 628 1389 628 1389 622 1383 c 128,-1,192
 616 1377 616 1377 614 1371 c 0,193,194
 610 1357 610 1357 610.5 1344.5 c 128,-1,195
 611 1332 611 1332 609.5 1323.5 c 128,-1,196
 608 1315 608 1315 600 1307 c 0,197,198
 590 1297 590 1297 563 1297.5 c 128,-1,199
 536 1298 536 1298 525 1293 c 0,200,201
 518 1289 518 1289 511.5 1280.5 c 128,-1,202
 505 1272 505 1272 500.5 1267.5 c 128,-1,203
 496 1263 496 1263 490.5 1264 c 128,-1,204
 485 1265 485 1265 482.5 1270.5 c 128,-1,205
 480 1276 480 1276 480 1281 c 2,206,-1
 480 1286 l 2,207,208
 481 1329 481 1329 492 1342 c 0,209,210
 513 1369 513 1369 554 1389.5 c 128,-1,211
 595 1410 595 1410 620 1410 c 0,184,185
204 849 m 0,212,213
 205 849 205 849 206 848 c 0,214,215
 215 846 215 846 213.5 836.5 c 128,-1,216
 212 827 212 827 206.5 817 c 128,-1,217
 201 807 201 807 197 796.5 c 128,-1,218
 193 786 193 786 195 781 c 0,219,220
 200 773 200 773 213 772.5 c 128,-1,221
 226 772 226 772 228 769 c 0,222,223
 233 764 233 764 234 751.5 c 128,-1,224
 235 739 235 739 232 732 c 0,225,226
 229 724 229 724 218 716.5 c 128,-1,227
 207 709 207 709 197 707 c 0,228,229
 178 704 178 704 161 722 c 0,230,231
 143 740 143 740 150 780 c 0,232,233
 153 796 153 796 173 822 c 128,-1,234
 193 848 193 848 204 849 c 0,212,213
1022 830 m 1,235,236
 1212 825 1212 825 1321 781 c 1,237,-1
 1321 723 l 1,238,-1
 1284 685 l 1,239,-1
 1321 648 l 1,240,-1
 1321 560 l 1,241,242
 1163 595 1163 595 1022 597 c 1,243,-1
 1022 677 l 1,244,-1
 1024 677 l 1,245,-1
 1024 700 l 1,246,-1
 1076 700 l 1,247,-1
 1076 744 l 1,248,-1
 1024 744 l 1,249,-1
 1024 767 l 1,250,-1
 1022 767 l 1,251,-1
 1022 830 l 1,235,236
1022 540 m 1,252,253
 1145 538 1145 538 1281 510 c 1,254,255
 1248 492 1248 492 1206 486 c 0,256,257
 1160 479 1160 479 1042 479 c 2,258,-1
 1027 479 l 1,259,-1
 1022 479 l 1,260,-1
 1022 540 l 1,252,253
1150 398 m 1,261,262
 1158 366 1158 366 1164.5 347 c 128,-1,263
 1171 328 1171 328 1184.5 306 c 128,-1,264
 1198 284 1198 284 1217 273 c 0,265,266
 1282 234 1282 234 1399 232 c 0,267,268
 1472 231 1472 231 1596 244.5 c 128,-1,269
 1720 258 1720 258 1747 257 c 0,270,271
 1840 254 1840 254 1888 221 c 0,272,273
 1916 200 1916 200 1942 151 c 0,274,275
 1946 145 1946 145 1948 133 c 128,-1,276
 1950 121 1950 121 1951 118 c 1,277,278
 1931 118 1931 118 1875.5 117.5 c 128,-1,279
 1820 117 1820 117 1800 117 c 1,280,281
 1800 118 1800 118 1792 127 c 0,282,283
 1779 143 1779 143 1757 150 c 0,284,285
 1737 157 1737 157 1706 159 c 2,286,-1
 1705 159 l 2,287,288
 1652 161 1652 161 1589 153.5 c 128,-1,289
 1526 146 1526 146 1482.5 138.5 c 128,-1,290
 1439 131 1439 131 1379 128.5 c 128,-1,291
 1319 126 1319 126 1272 137 c 0,292,293
 1222 149 1222 149 1189 164 c 128,-1,294
 1156 179 1156 179 1132 205 c 0,295,296
 1094 247 1094 247 1081 396 c 1,297,298
 1093 395 1093 395 1150 398 c 1,299,-1
 1150 398 l 1,261,262
EndSplineSet
Ligature2: "'liga' Ligature standard lookup 0-1" n underscore a
EndChar

StartChar: __q
Encoding: 65565 -1 30
Width: 2048
GlyphClass: 3
Flags: W
LayerCount: 2
Fore
SplineSet
1024 1990 m 1,0,1
 977 1990 977 1990 943 1956.5 c 128,-1,2
 909 1923 909 1923 909 1875 c 0,3,4
 909 1839 909 1839 929.5 1810 c 128,-1,5
 950 1781 950 1781 983 1768 c 1,6,-1
 984 1764 l 1,7,-1
 866 1227 l 1,8,-1
 625 1721 l 1,9,10
 671 1756 671 1756 671 1812 c 0,11,12
 671 1859 671 1859 637 1893 c 128,-1,13
 603 1927 603 1927 555.5 1927 c 128,-1,14
 508 1927 508 1927 474 1893 c 128,-1,15
 440 1859 440 1859 440 1812 c 0,16,17
 440 1769 440 1769 468 1737 c 128,-1,18
 496 1705 496 1705 538 1698 c 1,19,-1
 571 1152 l 1,20,-1
 203 1551 l 1,21,22
 231 1584 231 1584 231 1625 c 0,23,24
 231 1672 231 1672 197 1706 c 128,-1,25
 163 1740 163 1740 115.5 1740 c 128,-1,26
 68 1740 68 1740 34 1706 c 128,-1,27
 0 1672 0 1672 0.5 1624.5 c 128,-1,28
 1 1577 1 1577 34.5 1543.5 c 128,-1,29
 68 1510 68 1510 116 1510 c 0,30,31
 118 1510 118 1510 122 1510.5 c 128,-1,32
 126 1511 126 1511 126 1511 c 1,33,-1
 430 756 l 1,34,35
 421 745 421 745 416 736 c 0,36,37
 403 715 403 715 400 692 c 0,38,39
 399 686 399 686 399 678 c 2,40,-1
 398 675 l 1,41,-1
 398 674 l 1,42,-1
 398 671 l 1,43,-1
 398 671 l 1,44,-1
 398 670 l 1,45,-1
 398 318 l 2,46,47
 398 290 398 290 400 279 c 0,48,49
 405 259 405 259 414 244 c 0,50,51
 422 230 422 230 433 218 c 0,52,53
 437 212 437 212 444 206 c 0,54,55
 450 200 450 200 456 195 c 0,56,57
 506 153 506 153 595 122 c 0,58,59
 702 84 702 84 844 68 c 0,60,61
 938 59 938 59 1023 58 c 0,62,63
 1053 58 1053 58 1083 60 c 2,64,-1
 1084 60 l 2,65,66
 1174 63 1174 63 1253 75 c 0,67,68
 1310 83 1310 83 1355 94 c 0,69,70
 1446 115 1446 115 1511 146 c 0,71,72
 1522 151 1522 151 1523 152 c 0,73,74
 1596 189 1596 189 1627 235 c 0,75,76
 1632 241 1632 241 1635 248 c 0,77,78
 1642 261 1642 261 1649 285 c 0,79,80
 1651 293 1651 293 1651 368 c 2,81,-1
 1651 662 l 1,82,83
 1651 662 1651 662 1651 667 c 128,-1,84
 1651 672 1651 672 1651 672 c 1,85,-1
 1651 674 l 2,86,87
 1651 677 1651 677 1649 701 c 0,88,89
 1644 719 1644 719 1637 732 c 0,90,91
 1634 739 1634 739 1629 745 c 0,92,93
 1625 751 1625 751 1620 758 c 1,94,-1
 1923 1511 l 1,95,96
 1923 1511 1923 1511 1927 1510.5 c 128,-1,97
 1931 1510 1931 1510 1933 1510 c 0,98,99
 1981 1510 1981 1510 2014.5 1543.5 c 128,-1,100
 2048 1577 2048 1577 2048.5 1624.5 c 128,-1,101
 2049 1672 2049 1672 2015 1706 c 128,-1,102
 1981 1740 1981 1740 1933.5 1740 c 128,-1,103
 1886 1740 1886 1740 1852 1706 c 128,-1,104
 1818 1672 1818 1672 1818 1625 c 0,105,106
 1818 1584 1818 1584 1846 1551 c 1,107,-1
 1478 1152 l 1,108,-1
 1511 1698 l 1,109,110
 1553 1705 1553 1705 1581 1737 c 128,-1,111
 1609 1769 1609 1769 1609 1812 c 0,112,113
 1609 1859 1609 1859 1575 1893 c 128,-1,114
 1541 1927 1541 1927 1493.5 1927 c 128,-1,115
 1446 1927 1446 1927 1412 1893 c 128,-1,116
 1378 1859 1378 1859 1378 1812 c 0,117,118
 1378 1756 1378 1756 1424 1721 c 1,119,-1
 1183 1227 l 1,120,-1
 1066 1764 l 1,121,-1
 1066 1768 l 1,122,123
 1099 1781 1099 1781 1119.5 1810 c 128,-1,124
 1140 1839 1140 1839 1140 1875 c 0,125,126
 1140 1923 1140 1923 1106 1956.5 c 128,-1,127
 1072 1990 1072 1990 1025 1990 c 2,128,-1
 1024 1990 l 1,129,-1
 1024 1990 l 1,0,1
EndSplineSet
Ligature2: "'liga' Ligature standard lookup 0-1" underscore underscore q
EndChar

StartChar: __k
Encoding: 65566 -1 31
Width: 2048
GlyphClass: 3
Flags: W
LayerCount: 2
Fore
SplineSet
777 2048 m 1,0,-1
 777 1564 l 1,1,-1
 884 1564 l 1,2,3
 876 1559 876 1559 874 1557 c 0,4,5
 871 1555 871 1555 866 1551 c 0,6,7
 809 1507 809 1507 758 1435 c 1,8,9
 742 1449 742 1449 726 1462 c 0,10,11
 662 1513 662 1513 581.5 1540.5 c 128,-1,12
 501 1568 501 1568 416 1569 c 0,13,14
 330 1570 330 1570 251.5 1542 c 128,-1,15
 173 1514 173 1514 117 1456 c 0,16,17
 50 1387 50 1387 30.5 1300 c 128,-1,18
 11 1213 11 1213 27 1124 c 0,19,20
 40 1049 40 1049 70 985.5 c 128,-1,21
 100 922 100 922 134 885 c 0,22,23
 199 813 199 813 357 686 c 1,24,25
 353 671 353 671 353 658 c 2,26,-1
 353 657 l 1,27,-1
 353 656 l 2,28,29
 354 655 354 655 354 652.5 c 128,-1,30
 354 650 354 650 354 650 c 2,31,32
 354 649 354 649 353.5 648 c 128,-1,33
 353 647 353 647 353 645 c 2,34,-1
 353 269 l 1,35,-1
 353 268 l 1,36,-1
 353 268 l 1,37,-1
 353 265 l 1,38,-1
 353 264 l 1,39,-1
 353 263 l 1,40,-1
 354 260 l 2,41,42
 355 251 355 251 356 245 c 0,43,44
 359 221 359 221 373 198 c 0,45,46
 381 184 381 184 393 170 c 0,47,48
 398 164 398 164 405 158 c 0,49,50
 411 151 411 151 418 146 c 0,51,52
 472 101 472 101 566 68 c 0,53,54
 681 27 681 27 833 10 c 0,55,56
 863 7 863 7 894.5 4.5 c 128,-1,57
 926 2 926 2 959 1 c 256,58,59
 992 0 992 0 1024 0 c 256,60,61
 1056 0 1056 0 1088 1 c 2,62,63
 1088 1 1088 1 1089 1 c 0,64,65
 1120 2 1120 2 1151 4 c 0,66,67
 1164 5 1164 5 1193 8 c 0,68,69
 1252 13 1252 13 1345 32 c 0,70,71
 1496 63 1496 63 1583 113 c 0,72,73
 1643 150 1643 150 1670 189 c 0,74,75
 1690 220 1690 220 1693 243 c 0,76,77
 1695 259 1695 259 1695 265 c 0,78,79
 1695 288 1695 288 1695 645 c 0,80,81
 1695 646 1695 646 1695 647.5 c 128,-1,82
 1695 649 1695 649 1695 649.5 c 128,-1,83
 1695 650 1695 650 1695 651.5 c 128,-1,84
 1695 653 1695 653 1695 654 c 2,85,-1
 1695 656 l 1,86,-1
 1695 658 l 2,87,88
 1695 671 1695 671 1692 686 c 1,89,90
 1850 813 1850 813 1915 885 c 0,91,92
 1948 922 1948 922 1978 985.5 c 128,-1,93
 2008 1049 2008 1049 2022 1124 c 0,94,95
 2038 1213 2038 1213 2018 1300 c 128,-1,96
 1998 1387 1998 1387 1931 1456 c 0,97,98
 1875 1514 1875 1514 1797 1542 c 128,-1,99
 1719 1570 1719 1570 1632 1569 c 0,100,101
 1548 1568 1548 1568 1467.5 1540.5 c 128,-1,102
 1387 1513 1387 1513 1323 1462 c 0,103,104
 1307 1449 1307 1449 1291 1435 c 1,105,106
 1240 1507 1240 1507 1183 1551 c 0,107,108
 1178 1555 1178 1555 1174 1557 c 0,109,110
 1172 1559 1172 1559 1165 1564 c 1,111,-1
 1271 1564 l 1,112,-1
 1271 2048 l 1,113,-1
 777 2048 l 1,114,-1
 777 2048 l 1,0,-1
EndSplineSet
Ligature2: "'liga' Ligature standard lookup 0-1" underscore underscore k
EndChar

StartChar: __r
Encoding: 65567 -1 32
Width: 2048
GlyphClass: 3
Flags: W
LayerCount: 2
Fore
SplineSet
863 2048 m 1,0,-1
 863 1842 l 1,1,-1
 652 1842 l 1,2,-1
 652 2048 l 1,3,-1
 311 2048 l 1,4,-1
 311 1553 l 1,5,-1
 544 1398 l 1,6,-1
 549 869 l 1,7,-1
 342 639 l 1,8,-1
 342 516 l 1,9,-1
 167 341 l 1,10,-1
 167 0 l 1,11,-1
 837 0 l 1,12,-1
 1212 0 l 1,13,-1
 1881 0 l 1,14,-1
 1881 341 l 1,15,-1
 1706 516 l 1,16,-1
 1706 639 l 1,17,-1
 1500 869 l 1,18,-1
 1504 1398 l 1,19,-1
 1737 1553 l 1,20,-1
 1737 2048 l 1,21,-1
 1396 2048 l 1,22,-1
 1396 1842 l 1,23,-1
 1185 1842 l 1,24,-1
 1185 2048 l 1,25,-1
 1139 2048 l 1,26,-1
 909 2048 l 1,27,-1
 863 2048 l 1,28,-1
 863 2048 l 1,0,-1
EndSplineSet
Ligature2: "'liga' Ligature standard lookup 0-1" underscore underscore r
EndChar

StartChar: __b
Encoding: 65568 -1 33
Width: 2048
GlyphClass: 3
Flags: W
LayerCount: 2
Fore
SplineSet
1025 2007 m 1,0,1
 957 2007 957 2007 908 1958.5 c 128,-1,2
 859 1910 859 1910 859 1842 c 0,3,4
 859 1795 859 1795 883 1756 c 128,-1,5
 907 1717 907 1717 947 1696 c 1,6,7
 797 1578 797 1578 704.5 1495 c 128,-1,8
 612 1412 612 1412 558 1342 c 0,9,10
 498 1264 498 1264 476.5 1187 c 128,-1,11
 455 1110 455 1110 466 1024 c 0,12,13
 472 977 472 977 492 935.5 c 128,-1,14
 512 894 512 894 539.5 864.5 c 128,-1,15
 567 835 567 835 589 817.5 c 128,-1,16
 611 800 611 800 634 786 c 1,17,-1
 634 509 l 1,18,-1
 643 498 l 2,19,20
 693 434 693 434 809 413 c 1,21,22
 807 409 807 409 803.5 397 c 128,-1,23
 800 385 800 385 798 379 c 128,-1,24
 796 373 796 373 791 365.5 c 128,-1,25
 786 358 786 358 779 354 c 0,26,27
 734 327 734 327 641 326 c 0,28,29
 581 325 581 325 460 338.5 c 128,-1,30
 339 352 339 352 295 350 c 0,31,32
 178 347 178 347 109 298 c 0,33,34
 65 266 65 266 29 200 c 0,35,36
 0 146 0 146 0 86 c 2,37,-1
 0 43 l 1,38,-1
 43 43 l 2,39,40
 90 43 90 43 165 42 c 128,-1,41
 240 41 240 41 260 41 c 2,42,-1
 268 41 l 1,43,-1
 276 45 l 2,44,45
 303 56 303 56 317 79 c 1,46,47
 325 82 325 82 342 83 c 0,48,49
 386 84 386 84 445.5 76.5 c 128,-1,50
 505 69 505 69 550.5 61 c 128,-1,51
 596 53 596 53 662 51.5 c 128,-1,52
 728 50 728 50 786 63 c 1,53,-1
 787 63 l 1,54,55
 846 78 846 78 890 98 c 128,-1,56
 934 118 934 118 969 157 c 0,57,58
 1003 194 1003 194 1024 251 c 1,59,60
 1045 194 1045 194 1079 157 c 0,61,62
 1114 118 1114 118 1158 98 c 128,-1,63
 1202 78 1202 78 1261 63 c 1,64,-1
 1262 63 l 1,65,66
 1319 50 1319 50 1385.5 51.5 c 128,-1,67
 1452 53 1452 53 1497.5 61 c 128,-1,68
 1543 69 1543 69 1602.5 76.5 c 128,-1,69
 1662 84 1662 84 1706 83 c 0,70,71
 1725 82 1725 82 1732 79 c 0,72,73
 1733 77 1733 77 1736.5 72 c 128,-1,74
 1740 67 1740 67 1750 58.5 c 128,-1,75
 1760 50 1760 50 1772 45 c 2,76,-1
 1780 41 l 1,77,-1
 1789 41 l 2,78,79
 1809 41 1809 41 1883.5 42 c 128,-1,80
 1958 43 1958 43 2005 43 c 2,81,-1
 2048 43 l 1,82,-1
 2048 86 l 2,83,84
 2048 146 2048 146 2019 200 c 0,85,86
 1983 266 1983 266 1939 298 c 0,87,88
 1871 347 1871 347 1753 350 c 0,89,90
 1709 352 1709 352 1588 338.5 c 128,-1,91
 1467 325 1467 325 1408 326 c 0,92,93
 1314 327 1314 327 1269 354 c 0,94,95
 1262 358 1262 358 1257 365.5 c 128,-1,96
 1252 373 1252 373 1250 378.5 c 128,-1,97
 1248 384 1248 384 1244.5 396.5 c 128,-1,98
 1241 409 1241 409 1239 413 c 1,99,100
 1355 434 1355 434 1405 498 c 2,101,-1
 1414 509 l 1,102,-1
 1414 786 l 1,103,104
 1437 800 1437 800 1459 817.5 c 128,-1,105
 1481 835 1481 835 1508.5 864.5 c 128,-1,106
 1536 894 1536 894 1556 935.5 c 128,-1,107
 1576 977 1576 977 1582 1024 c 0,108,109
 1593 1110 1593 1110 1572 1187 c 128,-1,110
 1551 1264 1551 1264 1491 1342 c 0,111,112
 1437 1411 1437 1411 1344.5 1494.5 c 128,-1,113
 1252 1578 1252 1578 1102 1695 c 1,114,115
 1142 1716 1142 1716 1166.5 1755.5 c 128,-1,116
 1191 1795 1191 1795 1191 1842 c 0,117,118
 1191 1910 1191 1910 1142 1958.5 c 128,-1,119
 1093 2007 1093 2007 1025 2007 c 1,120,-1
 1025 2007 l 1,0,1
EndSplineSet
Ligature2: "'liga' Ligature standard lookup 0-1" underscore underscore b
EndChar

StartChar: __n
Encoding: 65569 -1 34
Width: 2048
GlyphClass: 3
Flags: W
LayerCount: 2
Fore
SplineSet
858 2037 m 1,0,1
 842 2037 842 2037 830.5 2027 c 128,-1,2
 819 2017 819 2017 816 2002 c 2,3,-1
 778 1807 l 1,4,-1
 700 1802 l 1,5,-1
 547 1993 l 2,6,7
 531 2008 531 2008 512.5 2009 c 128,-1,8
 494 2010 494 2010 480 1994.5 c 128,-1,9
 466 1979 466 1979 470 1958 c 2,10,-1
 501 1772 l 1,11,-1
 326 1516 l 2,12,13
 319 1506 319 1506 318 1495 c 2,14,-1
 304 1343 l 1,15,16
 230 1246 230 1246 159 1139 c 0,17,18
 92 1038 92 1038 52 964 c 0,19,20
 35 931 35 931 25 910.5 c 128,-1,21
 15 890 15 890 7.5 863.5 c 128,-1,22
 0 837 0 837 0 814 c 0,23,24
 0 721 0 721 35.5 650.5 c 128,-1,25
 71 580 71 580 131 538 c 0,26,27
 188 497 188 497 240 509 c 0,28,29
 242 510 242 510 246 515.5 c 128,-1,30
 250 521 250 521 252 522 c 2,31,32
 252 522 252 522 251.5 521 c 128,-1,33
 251 520 251 520 251 520 c 1,34,35
 252 500 252 500 263 485 c 0,36,37
 273 470 273 470 292 463 c 0,38,39
 302 460 302 460 329 459 c 0,40,41
 333 459 333 459 356.5 457.5 c 128,-1,42
 380 456 380 456 390.5 456 c 128,-1,43
 401 456 401 456 420.5 457.5 c 128,-1,44
 440 459 440 459 456 463 c 0,45,46
 496 473 496 473 520 501 c 0,47,48
 546 532 546 532 549 581 c 0,49,50
 550 606 550 606 548 630 c 128,-1,51
 546 654 546 654 543 672 c 128,-1,52
 540 690 540 690 540 696 c 0,53,54
 540 706 540 706 543 711 c 0,55,56
 548 719 548 719 568 730 c 0,57,58
 603 750 603 750 720 778 c 0,59,60
 851 809 851 809 905 837 c 0,61,62
 927 849 927 849 944 862.5 c 128,-1,63
 961 876 961 876 969 884.5 c 128,-1,64
 977 893 977 893 991.5 911.5 c 128,-1,65
 1006 930 1006 930 1014 939 c 1,66,-1
 1001 736 l 1,67,68
 995 715 995 715 968 679 c 0,69,70
 906 596 906 596 785 523 c 0,71,72
 575 397 575 397 575 53 c 0,73,74
 575 35 575 35 588 23.5 c 128,-1,75
 601 12 601 12 618 12 c 2,76,-1
 2003 12 l 2,77,78
 2021 11 2021 11 2033.5 24 c 128,-1,79
 2046 37 2046 37 2046 55 c 0,80,81
 2050 192 2050 192 2047.5 344 c 128,-1,82
 2045 496 2045 496 2036.5 632 c 128,-1,83
 2028 768 2028 768 2001.5 909 c 128,-1,84
 1975 1050 1975 1050 1930 1167 c 0,85,86
 1723 1710 1723 1710 1063 1781 c 1,87,88
 1035 1838 1035 1838 991.5 1899 c 128,-1,89
 948 1960 948 1960 919 1992 c 2,90,-1
 889 2025 l 2,91,92
 876 2038 876 2038 858 2037 c 1,93,-1
 858 2037 l 1,0,1
EndSplineSet
Ligature2: "'liga' Ligature standard lookup 0-1" underscore underscore n
EndChar

StartChar: exclam
Encoding: 33 33 36
Width: 594
Flags: W
LayerCount: 2
Fore
SplineSet
463 516 m 1,0,-1
 133 516 l 1,1,-1
 82 1462 l 1,2,-1
 514 1462 l 1,3,-1
 463 516 l 1,0,-1
86 166 m 0,4,5
 86 257 86 257 140 307.5 c 128,-1,6
 194 358 194 358 297 358 c 0,7,8
 399 358 399 358 451.5 307.5 c 128,-1,9
 504 257 504 257 504 166 c 0,10,11
 504 76 504 76 449.5 25.5 c 128,-1,12
 395 -25 395 -25 297 -25 c 0,13,14
 198 -25 198 -25 142 25.5 c 128,-1,15
 86 76 86 76 86 166 c 0,4,5
EndSplineSet
EndChar

StartChar: quotedbl
Encoding: 34 34 37
Width: 1073
Flags: W
LayerCount: 2
Fore
SplineSet
477 1462 m 1,0,-1
 436 934 l 1,1,-1
 162 934 l 1,2,-1
 121 1462 l 1,3,-1
 477 1462 l 1,0,-1
952 1462 m 1,4,-1
 911 934 l 1,5,-1
 637 934 l 1,6,-1
 596 1462 l 1,7,-1
 952 1462 l 1,4,-1
EndSplineSet
EndChar

StartChar: numbersign
Encoding: 35 35 38
Width: 1356
Flags: W
LayerCount: 2
Fore
SplineSet
1042 813 m 1,0,-1
 1012 645 l 1,1,-1
 1255 645 l 1,2,-1
 1255 391 l 1,3,-1
 965 391 l 1,4,-1
 891 0 l 1,5,-1
 623 0 l 1,6,-1
 696 391 l 1,7,-1
 528 391 l 1,8,-1
 457 0 l 1,9,-1
 190 0 l 1,10,-1
 262 391 l 1,11,-1
 37 391 l 1,12,-1
 37 645 l 1,13,-1
 311 645 l 1,14,-1
 342 813 l 1,15,-1
 104 813 l 1,16,-1
 104 1073 l 1,17,-1
 391 1073 l 1,18,-1
 463 1462 l 1,19,-1
 731 1462 l 1,20,-1
 657 1073 l 1,21,-1
 823 1073 l 1,22,-1
 895 1462 l 1,23,-1
 1163 1462 l 1,24,-1
 1090 1073 l 1,25,-1
 1319 1073 l 1,26,-1
 1319 813 l 1,27,-1
 1042 813 l 1,0,-1
578 645 m 1,28,-1
 743 645 l 1,29,-1
 774 813 l 1,30,-1
 608 813 l 1,31,-1
 578 645 l 1,28,-1
EndSplineSet
EndChar

StartChar: dollar
Encoding: 36 36 39
Width: 1200
Flags: W
LayerCount: 2
Fore
SplineSet
504 68 m 1,0,1
 285 78 285 78 82 166 c 1,2,-1
 82 498 l 1,3,4
 198 439 198 439 334 399.5 c 128,-1,5
 470 360 470 360 573 360 c 0,6,7
 658 360 658 360 697.5 380.5 c 128,-1,8
 737 401 737 401 737 449 c 0,9,10
 737 482 737 482 708.5 505 c 128,-1,11
 680 528 680 528 613.5 557 c 128,-1,12
 547 586 547 586 434 627 c 0,13,14
 307 674 307 674 229 732.5 c 128,-1,15
 151 791 151 791 115.5 863.5 c 128,-1,16
 80 936 80 936 80 1044 c 0,17,18
 80 1209 80 1209 186 1302 c 128,-1,19
 292 1395 292 1395 504 1417 c 1,20,-1
 504 1554 l 1,21,-1
 711 1554 l 1,22,-1
 711 1419 l 1,23,24
 910 1408 910 1408 1112 1321 c 1,25,-1
 993 1036 l 1,26,27
 784 1130 784 1130 616 1130 c 0,28,29
 536 1130 536 1130 503.5 1110.5 c 128,-1,30
 471 1091 471 1091 471 1053 c 0,31,32
 471 1020 471 1020 494.5 998.5 c 128,-1,33
 518 977 518 977 576 950.5 c 128,-1,34
 634 924 634 924 737 889 c 0,35,36
 946 815 946 815 1037 720.5 c 128,-1,37
 1128 626 1128 626 1128 477 c 0,38,39
 1128 309 1128 309 1021.5 204 c 128,-1,40
 915 99 915 99 711 74 c 1,41,-1
 711 -119 l 1,42,-1
 504 -119 l 1,43,-1
 504 68 l 1,0,1
613 1462 m 1024,44,-1
EndSplineSet
EndChar

StartChar: percent
Encoding: 37 37 40
Width: 1942
Flags: W
LayerCount: 2
Fore
SplineSet
338 1022 m 0,0,1
 338 907 338 907 357 856 c 128,-1,2
 376 805 376 805 414 805 c 256,3,4
 452 805 452 805 470.5 855 c 128,-1,5
 489 905 489 905 489 1022 c 0,6,7
 489 1137 489 1137 470.5 1188 c 128,-1,8
 452 1239 452 1239 414 1239 c 0,9,10
 375 1239 375 1239 356.5 1187 c 128,-1,11
 338 1135 338 1135 338 1022 c 0,0,1
791 1026 m 0,12,13
 791 806 791 806 692 685.5 c 128,-1,14
 593 565 593 565 410 565 c 0,15,16
 238 565 238 565 137.5 689.5 c 128,-1,17
 37 814 37 814 37 1026 c 0,18,19
 37 1246 37 1246 135 1364.5 c 128,-1,20
 233 1483 233 1483 410 1483 c 0,21,22
 585 1483 585 1483 688 1360 c 128,-1,23
 791 1237 791 1237 791 1026 c 0,12,13
1520 1462 m 1,24,-1
 709 0 l 1,25,-1
 412 0 l 1,26,-1
 1223 1462 l 1,27,-1
 1520 1462 l 1,24,-1
1450 440 m 0,28,29
 1450 325 1450 325 1469 274 c 128,-1,30
 1488 223 1488 223 1526 223 c 0,31,32
 1569 223 1569 223 1585.5 281.5 c 128,-1,33
 1602 340 1602 340 1602 440 c 256,34,35
 1602 540 1602 540 1585.5 598.5 c 128,-1,36
 1569 657 1569 657 1526 657 c 0,37,38
 1487 657 1487 657 1468.5 605 c 128,-1,39
 1450 553 1450 553 1450 440 c 0,28,29
1903 444 m 0,40,41
 1903 225 1903 225 1803.5 104.5 c 128,-1,42
 1704 -16 1704 -16 1522 -16 c 0,43,44
 1350 -16 1350 -16 1249.5 108.5 c 128,-1,45
 1149 233 1149 233 1149 444 c 0,46,47
 1149 664 1149 664 1247 782.5 c 128,-1,48
 1345 901 1345 901 1522 901 c 0,49,50
 1697 901 1697 901 1800 778 c 128,-1,51
 1903 655 1903 655 1903 444 c 0,40,41
EndSplineSet
EndChar

StartChar: ampersand
Encoding: 38 38 41
Width: 1636
Flags: W
LayerCount: 2
Fore
SplineSet
1141 0 m 1,0,-1
 1042 102 l 1,1,2
 952 45 952 45 894.5 23.5 c 128,-1,3
 837 2 837 2 765.5 -9 c 128,-1,4
 694 -20 694 -20 602 -20 c 0,5,6
 444 -20 444 -20 322.5 34 c 128,-1,7
 201 88 201 88 136.5 185 c 128,-1,8
 72 282 72 282 72 406 c 0,9,10
 72 668 72 668 344 807 c 1,11,12
 282 877 282 877 247.5 955.5 c 128,-1,13
 213 1034 213 1034 213 1133 c 0,14,15
 213 1293 213 1293 336.5 1387 c 128,-1,16
 460 1481 460 1481 676 1481 c 0,17,18
 887 1481 887 1481 1004.5 1387.5 c 128,-1,19
 1122 1294 1122 1294 1122 1133 c 0,20,21
 1122 1022 1122 1022 1058.5 927.5 c 128,-1,22
 995 833 995 833 858 750 c 1,23,-1
 1057 561 l 1,24,25
 1132 676 1132 676 1161 821 c 1,26,-1
 1567 821 l 1,27,28
 1537 683 1537 683 1472.5 544.5 c 128,-1,29
 1408 406 1408 406 1327 307 c 1,30,-1
 1647 0 l 1,31,-1
 1141 0 l 1,0,-1
475 434 m 0,32,33
 475 371 475 371 520 331 c 128,-1,34
 565 291 565 291 639 291 c 0,35,36
 696 291 696 291 739 306 c 128,-1,37
 782 321 782 321 805 340 c 1,38,-1
 557 592 l 1,39,40
 475 531 475 531 475 434 c 0,32,33
770 1133 m 0,41,42
 770 1182 770 1182 741.5 1203.5 c 128,-1,43
 713 1225 713 1225 670 1225 c 0,44,45
 628 1225 628 1225 596.5 1200 c 128,-1,46
 565 1175 565 1175 565 1120 c 0,47,48
 565 1045 565 1045 653 965 c 1,49,50
 710 997 710 997 740 1041.5 c 128,-1,51
 770 1086 770 1086 770 1133 c 0,41,42
EndSplineSet
EndChar

StartChar: quotesingle
Encoding: 39 39 42
Width: 598
Flags: W
LayerCount: 2
Fore
SplineSet
477 1462 m 1,0,-1
 436 934 l 1,1,-1
 162 934 l 1,2,-1
 121 1462 l 1,3,-1
 477 1462 l 1,0,-1
EndSplineSet
EndChar

StartChar: parenleft
Encoding: 40 40 43
Width: 735
Flags: W
LayerCount: 2
Fore
SplineSet
74 582 m 0,0,1
 74 872 74 872 145 1105 c 128,-1,2
 216 1338 216 1338 354 1503 c 1,3,-1
 680 1503 l 1,4,5
 554 1328 554 1328 486 1091 c 128,-1,6
 418 854 418 854 418 584 c 0,7,8
 418 323 418 323 484 88.5 c 128,-1,9
 550 -146 550 -146 678 -324 c 1,10,-1
 354 -324 l 1,11,12
 217 -166 217 -166 145.5 64 c 128,-1,13
 74 294 74 294 74 582 c 0,0,1
493 1485 m 1024,14,-1
EndSplineSet
EndChar

StartChar: parenright
Encoding: 41 41 44
Width: 735
Flags: W
LayerCount: 2
Fore
SplineSet
662 582 m 256,0,1
 662 299 662 299 590.5 67.5 c 128,-1,2
 519 -164 519 -164 381 -324 c 1,3,-1
 57 -324 l 1,4,5
 183 -152 183 -152 250 84.5 c 128,-1,6
 317 321 317 321 317 584 c 0,7,8
 317 849 317 849 251 1085.5 c 128,-1,9
 185 1322 185 1322 55 1503 c 1,10,-1
 381 1503 l 1,11,12
 520 1337 520 1337 591 1101 c 128,-1,13
 662 865 662 865 662 582 c 256,0,1
247 1485 m 1024,14,-1
EndSplineSet
EndChar

StartChar: asterisk
Encoding: 42 42 45
Width: 1100
Flags: W
LayerCount: 2
Fore
SplineSet
702 1556 m 1,0,-1
 664 1204 l 1,1,-1
 1020 1305 l 1,2,-1
 1057 1010 l 1,3,-1
 743 989 l 1,4,-1
 950 711 l 1,5,-1
 690 573 l 1,6,-1
 547 856 l 1,7,-1
 424 575 l 1,8,-1
 152 711 l 1,9,-1
 358 989 l 1,10,-1
 45 1014 l 1,11,-1
 90 1305 l 1,12,-1
 438 1204 l 1,13,-1
 399 1556 l 1,14,-1
 702 1556 l 1,0,-1
EndSplineSet
EndChar

StartChar: plus
Encoding: 43 43 46
Width: 1159
Flags: W
LayerCount: 2
Fore
SplineSet
444 588 m 1,0,-1
 72 588 l 1,1,-1
 72 856 l 1,2,-1
 444 856 l 1,3,-1
 444 1223 l 1,4,-1
 713 1223 l 1,5,-1
 713 856 l 1,6,-1
 1085 856 l 1,7,-1
 1085 588 l 1,8,-1
 713 588 l 1,9,-1
 713 227 l 1,10,-1
 444 227 l 1,11,-1
 444 588 l 1,0,-1
EndSplineSet
EndChar

StartChar: comma
Encoding: 44 44 47
Width: 633
Flags: W
LayerCount: 2
Fore
SplineSet
498 299 m 1,0,-1
 512 276 l 1,1,2
 415 -105 415 -105 336 -285 c 1,3,-1
 57 -285 l 1,4,5
 86 -147 86 -147 115.5 24.5 c 128,-1,6
 145 196 145 196 156 299 c 1,7,-1
 498 299 l 1,0,-1
EndSplineSet
EndChar

StartChar: hyphen
Encoding: 45 45 48
Width: 651
Flags: W
LayerCount: 2
Fore
SplineSet
43 393 m 1,0,-1
 43 705 l 1,1,-1
 608 705 l 1,2,-1
 608 393 l 1,3,-1
 43 393 l 1,0,-1
EndSplineSet
EndChar

StartChar: period
Encoding: 46 46 49
Width: 592
Flags: W
LayerCount: 2
Fore
SplineSet
86 166 m 0,0,1
 86 258 86 258 140.5 308 c 128,-1,2
 195 358 195 358 299 358 c 0,3,4
 398 358 398 358 451 308 c 128,-1,5
 504 258 504 258 504 166 c 0,6,7
 504 76 504 76 449.5 25.5 c 128,-1,8
 395 -25 395 -25 299 -25 c 0,9,10
 200 -25 200 -25 143 25 c 128,-1,11
 86 75 86 75 86 166 c 0,0,1
EndSplineSet
EndChar

StartChar: slash
Encoding: 47 47 50
Width: 905
Flags: W
LayerCount: 2
Fore
SplineSet
901 1483 m 1,0,-1
 356 -20 l 1,1,-1
 10 -20 l 1,2,-1
 555 1483 l 1,3,-1
 901 1483 l 1,0,-1
EndSplineSet
EndChar

StartChar: zero
Encoding: 48 48 51
Width: 1200
Flags: W
LayerCount: 2
Fore
SplineSet
1128 729 m 0,0,1
 1128 341 1128 341 998 160.5 c 128,-1,2
 868 -20 868 -20 600 -20 c 0,3,4
 338 -20 338 -20 205 168.5 c 128,-1,5
 72 357 72 357 72 729 c 0,6,7
 72 1119 72 1119 202 1301 c 128,-1,8
 332 1483 332 1483 600 1483 c 0,9,10
 861 1483 861 1483 994.5 1293.5 c 128,-1,11
 1128 1104 1128 1104 1128 729 c 0,0,1
465 729 m 0,12,13
 465 481 465 481 496 388 c 128,-1,14
 527 295 527 295 600 295 c 0,15,16
 674 295 674 295 704.5 391 c 128,-1,17
 735 487 735 487 735 729 c 0,18,19
 735 972 735 972 704 1069.5 c 128,-1,20
 673 1167 673 1167 600 1167 c 256,21,22
 527 1167 527 1167 496 1073 c 128,-1,23
 465 979 465 979 465 729 c 0,12,13
EndSplineSet
EndChar

StartChar: one
Encoding: 49 49 52
Width: 1200
Flags: W
LayerCount: 2
Fore
SplineSet
942 0 m 1,0,-1
 541 0 l 1,1,-1
 541 774 l 2,2,3
 541 915 541 915 547 1032 c 1,4,5
 510 987 510 987 455 938 c 2,6,-1
 289 801 l 1,7,-1
 84 1053 l 1,8,-1
 586 1462 l 1,9,-1
 942 1462 l 1,10,-1
 942 0 l 1,0,-1
EndSplineSet
EndChar

StartChar: two
Encoding: 50 50 53
Width: 1200
Flags: W
LayerCount: 2
Fore
SplineSet
1122 0 m 1,0,-1
 61 0 l 1,1,-1
 61 260 l 1,2,-1
 418 621 l 2,3,4
 571 781 571 781 618 839.5 c 128,-1,5
 665 898 665 898 683.5 940 c 128,-1,6
 702 982 702 982 702 1028 c 0,7,8
 702 1085 702 1085 665 1118 c 128,-1,9
 628 1151 628 1151 561 1151 c 0,10,11
 492 1151 492 1151 421.5 1111.5 c 128,-1,12
 351 1072 351 1072 262 995 c 1,13,-1
 45 1249 l 1,14,15
 158 1350 158 1350 235 1393.5 c 128,-1,16
 312 1437 312 1437 402.5 1460 c 128,-1,17
 493 1483 493 1483 606 1483 c 0,18,19
 748 1483 748 1483 859.5 1433 c 128,-1,20
 971 1383 971 1383 1032.5 1290.5 c 128,-1,21
 1094 1198 1094 1198 1094 1083 c 0,22,23
 1094 997 1094 997 1072.5 924 c 128,-1,24
 1051 851 1051 851 1006 780.5 c 128,-1,25
 961 710 961 710 886.5 632 c 128,-1,26
 812 554 812 554 569 336 c 1,27,-1
 569 326 l 1,28,-1
 1122 326 l 1,29,-1
 1122 0 l 1,0,-1
EndSplineSet
EndChar

StartChar: three
Encoding: 51 51 54
Width: 1200
Flags: W
LayerCount: 2
Fore
SplineSet
1073 1145 m 0,0,1
 1073 1009 1073 1009 990 911.5 c 128,-1,2
 907 814 907 814 750 770 c 1,3,-1
 750 764 l 1,4,5
 1116 718 1116 718 1116 418 c 0,6,7
 1116 214 1116 214 954.5 97 c 128,-1,8
 793 -20 793 -20 506 -20 c 0,9,10
 388 -20 388 -20 287.5 -3 c 128,-1,11
 187 14 187 14 70 59 c 1,12,-1
 70 387 l 1,13,14
 166 338 166 338 265.5 314.5 c 128,-1,15
 365 291 365 291 449 291 c 0,16,17
 579 291 579 291 638.5 327.5 c 128,-1,18
 698 364 698 364 698 442 c 0,19,20
 698 502 698 502 667 534.5 c 128,-1,21
 636 567 636 567 567 583.5 c 128,-1,22
 498 600 498 600 387 600 c 2,23,-1
 297 600 l 1,24,-1
 297 897 l 1,25,-1
 389 897 l 2,26,27
 690 897 690 897 690 1051 c 0,28,29
 690 1109 690 1109 645.5 1137 c 128,-1,30
 601 1165 601 1165 526 1165 c 0,31,32
 386 1165 386 1165 236 1071 c 1,33,-1
 72 1335 l 1,34,35
 188 1415 188 1415 309.5 1449 c 128,-1,36
 431 1483 431 1483 588 1483 c 0,37,38
 815 1483 815 1483 944 1393 c 128,-1,39
 1073 1303 1073 1303 1073 1145 c 0,0,1
EndSplineSet
EndChar

StartChar: four
Encoding: 52 52 55
Width: 1200
Flags: W
LayerCount: 2
Fore
SplineSet
1169 283 m 1,0,-1
 1008 283 l 1,1,-1
 1008 0 l 1,2,-1
 618 0 l 1,3,-1
 618 283 l 1,4,-1
 35 283 l 1,5,-1
 35 573 l 1,6,-1
 643 1462 l 1,7,-1
 1008 1462 l 1,8,-1
 1008 578 l 1,9,-1
 1169 578 l 1,10,-1
 1169 283 l 1,0,-1
618 578 m 1,11,-1
 618 748 l 2,12,13
 618 796 618 796 621.5 877.5 c 128,-1,14
 625 959 625 959 627 963 c 1,15,-1
 616 963 l 1,16,17
 582 886 582 886 539 819 c 2,18,-1
 377 578 l 1,19,-1
 618 578 l 1,11,-1
EndSplineSet
EndChar

StartChar: five
Encoding: 53 53 56
Width: 1200
Flags: W
LayerCount: 2
Fore
SplineSet
664 958 m 0,0,1
 790 958 790 958 891.5 899.5 c 128,-1,2
 993 841 993 841 1049.5 734 c 128,-1,3
 1106 627 1106 627 1106 487 c 0,4,5
 1106 242 1106 242 958.5 111 c 128,-1,6
 811 -20 811 -20 512 -20 c 0,7,8
 256 -20 256 -20 94 59 c 1,9,-1
 94 383 l 1,10,11
 181 343 181 343 290.5 317 c 128,-1,12
 400 291 400 291 479 291 c 0,13,14
 589 291 589 291 648 337.5 c 128,-1,15
 707 384 707 384 707 475 c 0,16,17
 707 559 707 559 647 606 c 128,-1,18
 587 653 587 653 465 653 c 0,19,20
 372 653 372 653 264 618 c 1,21,-1
 119 690 l 1,22,-1
 174 1462 l 1,23,-1
 1008 1462 l 1,24,-1
 1008 1133 l 1,25,-1
 510 1133 l 1,26,-1
 492 940 l 1,27,28
 570 955 570 955 603 956.5 c 128,-1,29
 636 958 636 958 664 958 c 0,0,1
EndSplineSet
EndChar

StartChar: six
Encoding: 54 54 57
Width: 1200
Flags: W
LayerCount: 2
Fore
SplineSet
70 618 m 0,0,1
 70 924 70 924 157.5 1113.5 c 128,-1,2
 245 1303 245 1303 415.5 1393 c 128,-1,3
 586 1483 586 1483 836 1483 c 0,4,5
 925 1483 925 1483 1044 1466 c 1,6,-1
 1044 1157 l 1,7,8
 944 1176 944 1176 827 1176 c 0,9,10
 629 1176 629 1176 532 1089 c 128,-1,11
 435 1002 435 1002 426 805 c 1,12,-1
 438 805 l 1,13,14
 528 975 528 975 727 975 c 0,15,16
 922 975 922 975 1029.5 849.5 c 128,-1,17
 1137 724 1137 724 1137 500 c 0,18,19
 1137 259 1137 259 1001 119.5 c 128,-1,20
 865 -20 865 -20 621 -20 c 0,21,22
 362 -20 362 -20 216 148 c 128,-1,23
 70 316 70 316 70 618 c 0,0,1
612 293 m 0,24,25
 675 293 675 293 714.5 340.5 c 128,-1,26
 754 388 754 388 754 492 c 0,27,28
 754 670 754 670 616 670 c 0,29,30
 548 670 548 670 505.5 624 c 128,-1,31
 463 578 463 578 463 512 c 0,32,33
 463 416 463 416 504 354.5 c 128,-1,34
 545 293 545 293 612 293 c 0,24,25
EndSplineSet
EndChar

StartChar: seven
Encoding: 55 55 58
Width: 1200
Flags: W
LayerCount: 2
Fore
SplineSet
209 0 m 1,0,-1
 711 1133 l 1,1,-1
 78 1133 l 1,2,-1
 78 1460 l 1,3,-1
 1133 1460 l 1,4,-1
 1133 1227 l 1,5,-1
 618 0 l 1,6,-1
 209 0 l 1,0,-1
EndSplineSet
EndChar

StartChar: eight
Encoding: 56 56 59
Width: 1200
Flags: W
LayerCount: 2
Fore
SplineSet
604 1483 m 256,0,1
 835 1483 835 1483 963.5 1390 c 128,-1,2
 1092 1297 1092 1297 1092 1126 c 0,3,4
 1092 1010 1092 1010 1031.5 922.5 c 128,-1,5
 971 835 971 835 840 770 c 1,6,7
 1002 678 1002 678 1068.5 586.5 c 128,-1,8
 1135 495 1135 495 1135 389 c 0,9,10
 1135 194 1135 194 994 87 c 128,-1,11
 853 -20 853 -20 600 -20 c 0,12,13
 342 -20 342 -20 205 84.5 c 128,-1,14
 68 189 68 189 68 385 c 0,15,16
 68 512 68 512 129 601.5 c 128,-1,17
 190 691 190 691 334 764 c 1,18,19
 218 842 218 842 164.5 931.5 c 128,-1,20
 111 1021 111 1021 111 1128 c 0,21,22
 111 1296 111 1296 242 1389.5 c 128,-1,23
 373 1483 373 1483 604 1483 c 256,0,1
430 401 m 0,24,25
 430 339 430 339 474 301.5 c 128,-1,26
 518 264 518 264 596 264 c 0,27,28
 772 264 772 264 772 393 c 0,29,30
 772 442 772 442 733.5 489.5 c 128,-1,31
 695 537 695 537 596 596 c 1,32,33
 507 549 507 549 468.5 501.5 c 128,-1,34
 430 454 430 454 430 401 c 0,24,25
602 1198 m 0,35,36
 551 1198 551 1198 516 1168.5 c 128,-1,37
 481 1139 481 1139 481 1092 c 0,38,39
 481 1006 481 1006 598 940 c 1,40,41
 669 981 669 981 695 1015 c 128,-1,42
 721 1049 721 1049 721 1092 c 0,43,44
 721 1140 721 1140 686 1169 c 128,-1,45
 651 1198 651 1198 602 1198 c 0,35,36
EndSplineSet
EndChar

StartChar: nine
Encoding: 57 57 60
Width: 1200
Flags: W
LayerCount: 2
Fore
SplineSet
1133 793 m 0,0,1
 1133 364 1133 364 948 172 c 128,-1,2
 763 -20 763 -20 356 -20 c 0,3,4
 222 -20 222 -20 152 -10 c 1,5,-1
 152 303 l 1,6,7
 238 287 238 287 324 287 c 0,8,9
 536 287 536 287 651 374.5 c 128,-1,10
 766 462 766 462 776 651 c 1,11,-1
 764 651 l 1,12,13
 725 579 725 579 687 547 c 128,-1,14
 649 515 649 515 594 498 c 128,-1,15
 539 481 539 481 457 481 c 0,16,17
 267 481 267 481 160 608 c 128,-1,18
 53 735 53 735 53 958 c 0,19,20
 53 1201 53 1201 191.5 1339 c 128,-1,21
 330 1477 330 1477 571 1477 c 0,22,23
 839 1477 839 1477 986 1299 c 128,-1,24
 1133 1121 1133 1121 1133 793 c 0,0,1
582 1161 m 0,25,26
 517 1161 517 1161 476.5 1114 c 128,-1,27
 436 1067 436 1067 436 963 c 0,28,29
 436 881 436 881 471 832.5 c 128,-1,30
 506 784 506 784 578 784 c 0,31,32
 643 784 643 784 691 831 c 128,-1,33
 739 878 739 878 739 944 c 0,34,35
 739 1033 739 1033 694.5 1097 c 128,-1,36
 650 1161 650 1161 582 1161 c 0,25,26
EndSplineSet
EndChar

StartChar: colon
Encoding: 58 58 61
Width: 592
Flags: W
LayerCount: 2
Fore
SplineSet
86 166 m 0,0,1
 86 258 86 258 140.5 308 c 128,-1,2
 195 358 195 358 299 358 c 0,3,4
 398 358 398 358 451 308 c 128,-1,5
 504 258 504 258 504 166 c 0,6,7
 504 76 504 76 449.5 25.5 c 128,-1,8
 395 -25 395 -25 299 -25 c 0,9,10
 200 -25 200 -25 143 25 c 128,-1,11
 86 75 86 75 86 166 c 0,0,1
86 956 m 0,12,13
 86 1047 86 1047 141 1097 c 128,-1,14
 196 1147 196 1147 299 1147 c 0,15,16
 398 1147 398 1147 451 1097 c 128,-1,17
 504 1047 504 1047 504 956 c 0,18,19
 504 866 504 866 450 815 c 128,-1,20
 396 764 396 764 299 764 c 0,21,22
 197 764 197 764 141.5 815 c 128,-1,23
 86 866 86 866 86 956 c 0,12,13
EndSplineSet
EndChar

StartChar: semicolon
Encoding: 59 59 62
Width: 608
Flags: W
LayerCount: 2
Fore
SplineSet
498 299 m 1,0,-1
 512 276 l 1,1,2
 415 -105 415 -105 336 -285 c 1,3,-1
 57 -285 l 1,4,5
 86 -147 86 -147 115.5 24.5 c 128,-1,6
 145 196 145 196 156 299 c 1,7,-1
 498 299 l 1,0,-1
92 956 m 256,8,9
 92 1047 92 1047 145.5 1097 c 128,-1,10
 199 1147 199 1147 303 1147 c 0,11,12
 403 1147 403 1147 456.5 1096.5 c 128,-1,13
 510 1046 510 1046 510 956 c 256,14,15
 510 866 510 866 456 815 c 128,-1,16
 402 764 402 764 303 764 c 0,17,18
 201 764 201 764 146.5 814.5 c 128,-1,19
 92 865 92 865 92 956 c 256,8,9
EndSplineSet
EndChar

StartChar: less
Encoding: 60 60 63
Width: 1159
Flags: W
LayerCount: 2
Fore
SplineSet
1083 178 m 1,0,-1
 72 627 l 1,1,-1
 72 799 l 1,2,-1
 1083 1305 l 1,3,-1
 1083 1008 l 1,4,-1
 463 725 l 1,5,-1
 1083 473 l 1,6,-1
 1083 178 l 1,0,-1
EndSplineSet
EndChar

StartChar: equal
Encoding: 61 61 64
Width: 1159
Flags: W
LayerCount: 2
Fore
SplineSet
72 815 m 1,0,-1
 72 1083 l 1,1,-1
 1087 1083 l 1,2,-1
 1087 815 l 1,3,-1
 72 815 l 1,0,-1
72 358 m 1,4,-1
 72 629 l 1,5,-1
 1087 629 l 1,6,-1
 1087 358 l 1,7,-1
 72 358 l 1,4,-1
EndSplineSet
EndChar

StartChar: greater
Encoding: 62 62 65
Width: 1159
Flags: W
LayerCount: 2
Fore
SplineSet
72 473 m 1,0,-1
 692 725 l 1,1,-1
 72 1008 l 1,2,-1
 72 1305 l 1,3,-1
 1083 799 l 1,4,-1
 1083 627 l 1,5,-1
 72 178 l 1,6,-1
 72 473 l 1,0,-1
EndSplineSet
EndChar

StartChar: question
Encoding: 63 63 66
Width: 1034
Flags: W
LayerCount: 2
Fore
SplineSet
295 516 m 1,0,-1
 295 602 l 2,1,2
 295 700 295 700 335 767.5 c 128,-1,3
 375 835 375 835 477 899 c 0,4,5
 558 950 558 950 593.5 991 c 128,-1,6
 629 1032 629 1032 629 1085 c 0,7,8
 629 1127 629 1127 591 1151.5 c 128,-1,9
 553 1176 553 1176 492 1176 c 0,10,11
 341 1176 341 1176 139 1069 c 1,12,-1
 0 1341 l 1,13,14
 249 1483 249 1483 520 1483 c 0,15,16
 743 1483 743 1483 870 1385 c 128,-1,17
 997 1287 997 1287 997 1118 c 0,18,19
 997 997 997 997 940.5 908.5 c 128,-1,20
 884 820 884 820 760 741 c 0,21,22
 655 673 655 673 628.5 641.5 c 128,-1,23
 602 610 602 610 602 567 c 2,24,-1
 602 516 l 1,25,-1
 295 516 l 1,0,-1
252 166 m 256,26,27
 252 258 252 258 305.5 308 c 128,-1,28
 359 358 359 358 463 358 c 0,29,30
 563 358 563 358 616.5 307.5 c 128,-1,31
 670 257 670 257 670 166 c 256,32,33
 670 75 670 75 614.5 25 c 128,-1,34
 559 -25 559 -25 463 -25 c 0,35,36
 364 -25 364 -25 308 24.5 c 128,-1,37
 252 74 252 74 252 166 c 256,26,27
EndSplineSet
EndChar

